<?xml version="1.0" encoding="utf-8" standalone="no"?>
<!DOCTYPE svg PUBLIC "-//W3C//DTD SVG 1.1//EN"
  "http://www.w3.org/Graphics/SVG/1.1/DTD/svg11.dtd">
<svg xmlns:xlink="http://www.w3.org/1999/xlink" width="393.968521pt" height="82.534687pt" viewBox="0 0 393.968521 82.534687" xmlns="http://www.w3.org/2000/svg" version="1.1">
 <metadata>
  <rdf:RDF xmlns:dc="http://purl.org/dc/elements/1.1/" xmlns:cc="http://creativecommons.org/ns#" xmlns:rdf="http://www.w3.org/1999/02/22-rdf-syntax-ns#">
   <cc:Work>
    <dc:type rdf:resource="http://purl.org/dc/dcmitype/StillImage"/>
    <dc:date>2023-07-10T14:44:51.696593</dc:date>
    <dc:format>image/svg+xml</dc:format>
    <dc:creator>
     <cc:Agent>
      <dc:title>Matplotlib v3.5.1, https://matplotlib.org/</dc:title>
     </cc:Agent>
    </dc:creator>
   </cc:Work>
  </rdf:RDF>
 </metadata>
 <defs>
  <style type="text/css">*{stroke-linejoin: round; stroke-linecap: butt}</style>
 </defs>
 <g id="figure_1">
  <g id="patch_1">
   <path d="M 0 82.534687 
L 393.968521 82.534687 
L 393.968521 0 
L 0 0 
z
" style="fill: #ffffff"/>
  </g>
  <g id="axes_1">
   <g id="patch_2">
    <path d="M 23.1075 61.56 
L 385.8075 61.56 
L 385.8075 7.2 
L 23.1075 7.2 
z
" style="fill: #ffffff"/>
   </g>
   <g id="PathCollection_1">
    <defs>
     <path id="m23527e69ce" d="M 0 1.118034 
C 0.296506 1.118034 0.580908 1.000231 0.790569 0.790569 
C 1.000231 0.580908 1.118034 0.296506 1.118034 0 
C 1.118034 -0.296506 1.000231 -0.580908 0.790569 -0.790569 
C 0.580908 -1.000231 0.296506 -1.118034 0 -1.118034 
C -0.296506 -1.118034 -0.580908 -1.000231 -0.790569 -0.790569 
C -1.000231 -0.580908 -1.118034 -0.296506 -1.118034 0 
C -1.118034 0.296506 -1.000231 0.580908 -0.790569 0.790569 
C -0.580908 1.000231 -0.296506 1.118034 0 1.118034 
z
" style="stroke: #000000"/>
    </defs>
    <g clip-path="url(#p50576a0850)">
     <use xlink:href="#m23527e69ce" x="55.744824" y="35.189831" style="stroke: #000000"/>
     <use xlink:href="#m23527e69ce" x="64.684613" y="29.374327" style="stroke: #000000"/>
     <use xlink:href="#m23527e69ce" x="88.949754" y="34.321572" style="stroke: #000000"/>
     <use xlink:href="#m23527e69ce" x="119.032852" y="19.100149" style="stroke: #000000"/>
     <use xlink:href="#m23527e69ce" x="130.526866" y="39.131532" style="stroke: #000000"/>
     <use xlink:href="#m23527e69ce" x="153.231092" y="38.91059" style="stroke: #000000"/>
     <use xlink:href="#m23527e69ce" x="163.447993" y="40.297821" style="stroke: #000000"/>
     <use xlink:href="#m23527e69ce" x="179.766655" y="40.093043" style="stroke: #000000"/>
     <use xlink:href="#m23527e69ce" x="188.564542" y="40.431544" style="stroke: #000000"/>
     <use xlink:href="#m23527e69ce" x="205.876514" y="35.03208" style="stroke: #000000"/>
     <use xlink:href="#m23527e69ce" x="233.121585" y="55.836508" style="stroke: #000000"/>
     <use xlink:href="#m23527e69ce" x="241.919472" y="56.143603" style="stroke: #000000"/>
     <use xlink:href="#m23527e69ce" x="250.859261" y="56.477758" style="stroke: #000000"/>
     <use xlink:href="#m23527e69ce" x="265.191303" y="56.759565" style="stroke: #000000"/>
     <use xlink:href="#m23527e69ce" x="276.543415" y="56.185298" style="stroke: #000000"/>
     <use xlink:href="#m23527e69ce" x="293.429683" y="56.183913" style="stroke: #000000"/>
     <use xlink:href="#m23527e69ce" x="303.788486" y="55.829443" style="stroke: #000000"/>
     <use xlink:href="#m23527e69ce" x="316.985317" y="54.01057" style="stroke: #000000"/>
     <use xlink:href="#m23527e69ce" x="325.925106" y="56.131476" style="stroke: #000000"/>
     <use xlink:href="#m23527e69ce" x="342.52757" y="56.388841" style="stroke: #000000"/>
     <use xlink:href="#m23527e69ce" x="355.866303" y="53.8252" style="stroke: #000000"/>
     <use xlink:href="#m23527e69ce" x="368.211725" y="56.315567" style="stroke: #000000"/>
     <use xlink:href="#m23527e69ce" x="378.854331" y="56.419443" style="stroke: #000000"/>
    </g>
   </g>
   <g id="PathCollection_2">
    <g clip-path="url(#p50576a0850)">
     <use xlink:href="#m23527e69ce" x="55.744824" y="38.019949" style="stroke: #000000"/>
     <use xlink:href="#m23527e69ce" x="64.684613" y="22.862881" style="stroke: #000000"/>
     <use xlink:href="#m23527e69ce" x="88.949754" y="37.036919" style="stroke: #000000"/>
     <use xlink:href="#m23527e69ce" x="119.032852" y="37.156811" style="stroke: #000000"/>
     <use xlink:href="#m23527e69ce" x="130.526866" y="40.427429" style="stroke: #000000"/>
     <use xlink:href="#m23527e69ce" x="153.231092" y="40.393361" style="stroke: #000000"/>
     <use xlink:href="#m23527e69ce" x="163.447993" y="41.602581" style="stroke: #000000"/>
     <use xlink:href="#m23527e69ce" x="179.766655" y="37.96196" style="stroke: #000000"/>
     <use xlink:href="#m23527e69ce" x="188.564542" y="40.214597" style="stroke: #000000"/>
     <use xlink:href="#m23527e69ce" x="205.876514" y="37.68025" style="stroke: #000000"/>
     <use xlink:href="#m23527e69ce" x="233.121585" y="55.874602" style="stroke: #000000"/>
     <use xlink:href="#m23527e69ce" x="241.919472" y="56.593987" style="stroke: #000000"/>
     <use xlink:href="#m23527e69ce" x="250.859261" y="55.142592" style="stroke: #000000"/>
     <use xlink:href="#m23527e69ce" x="265.191303" y="56.407387" style="stroke: #000000"/>
     <use xlink:href="#m23527e69ce" x="276.543415" y="55.11803" style="stroke: #000000"/>
     <use xlink:href="#m23527e69ce" x="293.429683" y="56.556843" style="stroke: #000000"/>
     <use xlink:href="#m23527e69ce" x="303.788486" y="56.368285" style="stroke: #000000"/>
     <use xlink:href="#m23527e69ce" x="316.985317" y="56.488037" style="stroke: #000000"/>
     <use xlink:href="#m23527e69ce" x="325.925106" y="56.537771" style="stroke: #000000"/>
     <use xlink:href="#m23527e69ce" x="342.52757" y="56.618861" style="stroke: #000000"/>
     <use xlink:href="#m23527e69ce" x="355.866303" y="28.95746" style="stroke: #000000"/>
     <use xlink:href="#m23527e69ce" x="368.211725" y="55.985768" style="stroke: #000000"/>
     <use xlink:href="#m23527e69ce" x="378.854331" y="56.503824" style="stroke: #000000"/>
    </g>
   </g>
   <g id="matplotlib.axis_1">
    <g id="xtick_1">
     <g id="line2d_1">
      <defs>
       <path id="mc03e129cd5" d="M 0 0 
L 0 3.5 
" style="stroke: #000000; stroke-width: 0.8"/>
      </defs>
      <g>
       <use xlink:href="#mc03e129cd5" x="23.1075" y="61.56" style="stroke: #000000; stroke-width: 0.8"/>
      </g>
     </g>
     <g id="text_1">
      <!-- 0 -->
      <g transform="translate(20.880625 73.878906)scale(0.07 -0.07)">
       <defs>
        <path id="DejaVuSans-30" d="M 2034 4250 
Q 1547 4250 1301 3770 
Q 1056 3291 1056 2328 
Q 1056 1369 1301 889 
Q 1547 409 2034 409 
Q 2525 409 2770 889 
Q 3016 1369 3016 2328 
Q 3016 3291 2770 3770 
Q 2525 4250 2034 4250 
z
M 2034 4750 
Q 2819 4750 3233 4129 
Q 3647 3509 3647 2328 
Q 3647 1150 3233 529 
Q 2819 -91 2034 -91 
Q 1250 -91 836 529 
Q 422 1150 422 2328 
Q 422 3509 836 4129 
Q 1250 4750 2034 4750 
z
" transform="scale(0.015625)"/>
       </defs>
       <use xlink:href="#DejaVuSans-30"/>
      </g>
     </g>
    </g>
    <g id="xtick_2">
     <g id="line2d_2">
      <g>
       <use xlink:href="#mc03e129cd5" x="94.058204" y="61.56" style="stroke: #000000; stroke-width: 0.8"/>
      </g>
     </g>
     <g id="text_2">
      <!-- 500 -->
      <g transform="translate(87.377579 73.878906)scale(0.07 -0.07)">
       <defs>
        <path id="DejaVuSans-35" d="M 691 4666 
L 3169 4666 
L 3169 4134 
L 1269 4134 
L 1269 2991 
Q 1406 3038 1543 3061 
Q 1681 3084 1819 3084 
Q 2600 3084 3056 2656 
Q 3513 2228 3513 1497 
Q 3513 744 3044 326 
Q 2575 -91 1722 -91 
Q 1428 -91 1123 -41 
Q 819 9 494 109 
L 494 744 
Q 775 591 1075 516 
Q 1375 441 1709 441 
Q 2250 441 2565 725 
Q 2881 1009 2881 1497 
Q 2881 1984 2565 2268 
Q 2250 2553 1709 2553 
Q 1456 2553 1204 2497 
Q 953 2441 691 2322 
L 691 4666 
z
" transform="scale(0.015625)"/>
       </defs>
       <use xlink:href="#DejaVuSans-35"/>
       <use xlink:href="#DejaVuSans-30" x="63.623047"/>
       <use xlink:href="#DejaVuSans-30" x="127.246094"/>
      </g>
     </g>
    </g>
    <g id="xtick_3">
     <g id="line2d_3">
      <g>
       <use xlink:href="#mc03e129cd5" x="165.008908" y="61.56" style="stroke: #000000; stroke-width: 0.8"/>
      </g>
     </g>
     <g id="text_3">
      <!-- 1000 -->
      <g transform="translate(156.101408 73.878906)scale(0.07 -0.07)">
       <defs>
        <path id="DejaVuSans-31" d="M 794 531 
L 1825 531 
L 1825 4091 
L 703 3866 
L 703 4441 
L 1819 4666 
L 2450 4666 
L 2450 531 
L 3481 531 
L 3481 0 
L 794 0 
L 794 531 
z
" transform="scale(0.015625)"/>
       </defs>
       <use xlink:href="#DejaVuSans-31"/>
       <use xlink:href="#DejaVuSans-30" x="63.623047"/>
       <use xlink:href="#DejaVuSans-30" x="127.246094"/>
       <use xlink:href="#DejaVuSans-30" x="190.869141"/>
      </g>
     </g>
    </g>
    <g id="xtick_4">
     <g id="line2d_4">
      <g>
       <use xlink:href="#mc03e129cd5" x="235.959613" y="61.56" style="stroke: #000000; stroke-width: 0.8"/>
      </g>
     </g>
     <g id="text_4">
      <!-- 1500 -->
      <g transform="translate(227.052113 73.878906)scale(0.07 -0.07)">
       <use xlink:href="#DejaVuSans-31"/>
       <use xlink:href="#DejaVuSans-35" x="63.623047"/>
       <use xlink:href="#DejaVuSans-30" x="127.246094"/>
       <use xlink:href="#DejaVuSans-30" x="190.869141"/>
      </g>
     </g>
    </g>
    <g id="xtick_5">
     <g id="line2d_5">
      <g>
       <use xlink:href="#mc03e129cd5" x="306.910317" y="61.56" style="stroke: #000000; stroke-width: 0.8"/>
      </g>
     </g>
     <g id="text_5">
      <!-- 2000 -->
      <g transform="translate(298.002817 73.878906)scale(0.07 -0.07)">
       <defs>
        <path id="DejaVuSans-32" d="M 1228 531 
L 3431 531 
L 3431 0 
L 469 0 
L 469 531 
Q 828 903 1448 1529 
Q 2069 2156 2228 2338 
Q 2531 2678 2651 2914 
Q 2772 3150 2772 3378 
Q 2772 3750 2511 3984 
Q 2250 4219 1831 4219 
Q 1534 4219 1204 4116 
Q 875 4013 500 3803 
L 500 4441 
Q 881 4594 1212 4672 
Q 1544 4750 1819 4750 
Q 2544 4750 2975 4387 
Q 3406 4025 3406 3419 
Q 3406 3131 3298 2873 
Q 3191 2616 2906 2266 
Q 2828 2175 2409 1742 
Q 1991 1309 1228 531 
z
" transform="scale(0.015625)"/>
       </defs>
       <use xlink:href="#DejaVuSans-32"/>
       <use xlink:href="#DejaVuSans-30" x="63.623047"/>
       <use xlink:href="#DejaVuSans-30" x="127.246094"/>
       <use xlink:href="#DejaVuSans-30" x="190.869141"/>
      </g>
     </g>
    </g>
    <g id="xtick_6">
     <g id="line2d_6">
      <g>
       <use xlink:href="#mc03e129cd5" x="377.861021" y="61.56" style="stroke: #000000; stroke-width: 0.8"/>
      </g>
     </g>
     <g id="text_6">
      <!-- 2500 -->
      <g transform="translate(368.953521 73.878906)scale(0.07 -0.07)">
       <use xlink:href="#DejaVuSans-32"/>
       <use xlink:href="#DejaVuSans-35" x="63.623047"/>
       <use xlink:href="#DejaVuSans-30" x="127.246094"/>
       <use xlink:href="#DejaVuSans-30" x="190.869141"/>
      </g>
     </g>
    </g>
   </g>
   <g id="matplotlib.axis_2">
    <g id="ytick_1">
     <g id="line2d_7">
      <defs>
       <path id="m5001934f07" d="M 0 0 
L -3.5 0 
" style="stroke: #000000; stroke-width: 0.8"/>
      </defs>
      <g>
       <use xlink:href="#m5001934f07" x="23.1075" y="57.362911" style="stroke: #000000; stroke-width: 0.8"/>
      </g>
     </g>
     <g id="text_7">
      <!-- 0 -->
      <g transform="translate(11.65375 60.022365)scale(0.07 -0.07)">
       <use xlink:href="#DejaVuSans-30"/>
      </g>
     </g>
    </g>
    <g id="ytick_2">
     <g id="line2d_8">
      <g>
       <use xlink:href="#m5001934f07" x="23.1075" y="33.905482" style="stroke: #000000; stroke-width: 0.8"/>
      </g>
     </g>
     <g id="text_8">
      <!-- 20 -->
      <g transform="translate(7.2 36.564935)scale(0.07 -0.07)">
       <use xlink:href="#DejaVuSans-32"/>
       <use xlink:href="#DejaVuSans-30" x="63.623047"/>
      </g>
     </g>
    </g>
    <g id="ytick_3">
     <g id="line2d_9">
      <g>
       <use xlink:href="#m5001934f07" x="23.1075" y="10.448052" style="stroke: #000000; stroke-width: 0.8"/>
      </g>
     </g>
     <g id="text_9">
      <!-- 40 -->
      <g transform="translate(7.2 13.107505)scale(0.07 -0.07)">
       <defs>
        <path id="DejaVuSans-34" d="M 2419 4116 
L 825 1625 
L 2419 1625 
L 2419 4116 
z
M 2253 4666 
L 3047 4666 
L 3047 1625 
L 3713 1625 
L 3713 1100 
L 3047 1100 
L 3047 0 
L 2419 0 
L 2419 1100 
L 313 1100 
L 313 1709 
L 2253 4666 
z
" transform="scale(0.015625)"/>
       </defs>
       <use xlink:href="#DejaVuSans-34"/>
       <use xlink:href="#DejaVuSans-30" x="63.623047"/>
      </g>
     </g>
    </g>
   </g>
   <g id="line2d_10">
    <path d="M 55.744824 35.189831 
L 64.684613 29.374327 
L 88.949754 34.321572 
L 119.032852 19.100149 
L 130.526866 39.131532 
L 153.231092 38.91059 
L 163.447993 40.297821 
L 179.766655 40.093043 
L 188.564542 40.431544 
L 205.876514 35.03208 
L 233.121585 55.836508 
L 241.919472 56.143603 
L 250.859261 56.477758 
L 265.191303 56.759565 
L 276.543415 56.185298 
L 293.429683 56.183913 
L 303.788486 55.829443 
L 316.985317 54.01057 
L 325.925106 56.131476 
L 342.52757 56.388841 
L 355.866303 53.8252 
L 368.211725 56.315567 
L 378.854331 56.419443 
" clip-path="url(#p50576a0850)" style="fill: none; stroke: #ff7f0e; stroke-width: 3; stroke-linecap: square"/>
   </g>
   <g id="line2d_11">
    <path d="M 55.744824 38.019949 
L 64.684613 22.862881 
L 88.949754 37.036919 
L 119.032852 37.156811 
L 130.526866 40.427429 
L 153.231092 40.393361 
L 163.447993 41.602581 
L 179.766655 37.96196 
L 188.564542 40.214597 
L 205.876514 37.68025 
L 233.121585 55.874602 
L 241.919472 56.593987 
L 250.859261 55.142592 
L 265.191303 56.407387 
L 276.543415 55.11803 
L 293.429683 56.556843 
L 303.788486 56.368285 
L 316.985317 56.488037 
L 325.925106 56.537771 
L 342.52757 56.618861 
L 355.866303 28.95746 
L 368.211725 55.985768 
L 378.854331 56.503824 
" clip-path="url(#p50576a0850)" style="fill: none; stroke: #d62728; stroke-width: 3; stroke-linecap: square"/>
   </g>
   <g id="LineCollection_1">
    <path d="M 55.744824 43.360363 
L 55.744824 27.0193 
" clip-path="url(#p50576a0850)" style="fill: none; stroke: #000000; stroke-width: 1.5"/>
    <path d="M 64.684613 36.202525 
L 64.684613 22.546128 
" clip-path="url(#p50576a0850)" style="fill: none; stroke: #000000; stroke-width: 1.5"/>
    <path d="M 88.949754 40.184946 
L 88.949754 28.458199 
" clip-path="url(#p50576a0850)" style="fill: none; stroke: #000000; stroke-width: 1.5"/>
    <path d="M 119.032852 28.529389 
L 119.032852 9.670909 
" clip-path="url(#p50576a0850)" style="fill: none; stroke: #000000; stroke-width: 1.5"/>
    <path d="M 130.526866 45.317837 
L 130.526866 32.945226 
" clip-path="url(#p50576a0850)" style="fill: none; stroke: #000000; stroke-width: 1.5"/>
    <path d="M 153.231092 43.784533 
L 153.231092 34.036647 
" clip-path="url(#p50576a0850)" style="fill: none; stroke: #000000; stroke-width: 1.5"/>
    <path d="M 163.447993 45.031171 
L 163.447993 35.56447 
" clip-path="url(#p50576a0850)" style="fill: none; stroke: #000000; stroke-width: 1.5"/>
    <path d="M 179.766655 46.288251 
L 179.766655 33.897834 
" clip-path="url(#p50576a0850)" style="fill: none; stroke: #000000; stroke-width: 1.5"/>
    <path d="M 188.564542 47.480134 
L 188.564542 33.382954 
" clip-path="url(#p50576a0850)" style="fill: none; stroke: #000000; stroke-width: 1.5"/>
    <path d="M 205.876514 42.694409 
L 205.876514 27.36975 
" clip-path="url(#p50576a0850)" style="fill: none; stroke: #000000; stroke-width: 1.5"/>
    <path d="M 233.121585 57.664686 
L 233.121585 54.008329 
" clip-path="url(#p50576a0850)" style="fill: none; stroke: #000000; stroke-width: 1.5"/>
    <path d="M 241.919472 57.598359 
L 241.919472 54.688846 
" clip-path="url(#p50576a0850)" style="fill: none; stroke: #000000; stroke-width: 1.5"/>
    <path d="M 250.859261 57.728579 
L 250.859261 55.226936 
" clip-path="url(#p50576a0850)" style="fill: none; stroke: #000000; stroke-width: 1.5"/>
    <path d="M 265.191303 57.719641 
L 265.191303 55.799489 
" clip-path="url(#p50576a0850)" style="fill: none; stroke: #000000; stroke-width: 1.5"/>
    <path d="M 276.543415 58.208471 
L 276.543415 54.162125 
" clip-path="url(#p50576a0850)" style="fill: none; stroke: #000000; stroke-width: 1.5"/>
    <path d="M 293.429683 57.679737 
L 293.429683 54.688088 
" clip-path="url(#p50576a0850)" style="fill: none; stroke: #000000; stroke-width: 1.5"/>
    <path d="M 303.788486 58.004354 
L 303.788486 53.654532 
" clip-path="url(#p50576a0850)" style="fill: none; stroke: #000000; stroke-width: 1.5"/>
    <path d="M 316.985317 59.089091 
L 316.985317 48.932048 
" clip-path="url(#p50576a0850)" style="fill: none; stroke: #000000; stroke-width: 1.5"/>
    <path d="M 325.925106 57.842344 
L 325.925106 54.420608 
" clip-path="url(#p50576a0850)" style="fill: none; stroke: #000000; stroke-width: 1.5"/>
    <path d="M 342.52757 58.071292 
L 342.52757 54.70639 
" clip-path="url(#p50576a0850)" style="fill: none; stroke: #000000; stroke-width: 1.5"/>
    <path d="M 355.866303 57.297884 
L 355.866303 50.352517 
" clip-path="url(#p50576a0850)" style="fill: none; stroke: #000000; stroke-width: 1.5"/>
    <path d="M 368.211725 57.663954 
L 368.211725 54.96718 
" clip-path="url(#p50576a0850)" style="fill: none; stroke: #000000; stroke-width: 1.5"/>
    <path d="M 378.854331 57.712151 
L 378.854331 55.126736 
" clip-path="url(#p50576a0850)" style="fill: none; stroke: #000000; stroke-width: 1.5"/>
   </g>
   <g id="line2d_12">
    <defs>
     <path id="m2b7f95d56a" d="M 2 0 
L -2 -0 
" style="stroke: #000000"/>
    </defs>
    <g clip-path="url(#p50576a0850)">
     <use xlink:href="#m2b7f95d56a" x="55.744824" y="43.360363" style="stroke: #000000"/>
     <use xlink:href="#m2b7f95d56a" x="64.684613" y="36.202525" style="stroke: #000000"/>
     <use xlink:href="#m2b7f95d56a" x="88.949754" y="40.184946" style="stroke: #000000"/>
     <use xlink:href="#m2b7f95d56a" x="119.032852" y="28.529389" style="stroke: #000000"/>
     <use xlink:href="#m2b7f95d56a" x="130.526866" y="45.317837" style="stroke: #000000"/>
     <use xlink:href="#m2b7f95d56a" x="153.231092" y="43.784533" style="stroke: #000000"/>
     <use xlink:href="#m2b7f95d56a" x="163.447993" y="45.031171" style="stroke: #000000"/>
     <use xlink:href="#m2b7f95d56a" x="179.766655" y="46.288251" style="stroke: #000000"/>
     <use xlink:href="#m2b7f95d56a" x="188.564542" y="47.480134" style="stroke: #000000"/>
     <use xlink:href="#m2b7f95d56a" x="205.876514" y="42.694409" style="stroke: #000000"/>
     <use xlink:href="#m2b7f95d56a" x="233.121585" y="57.664686" style="stroke: #000000"/>
     <use xlink:href="#m2b7f95d56a" x="241.919472" y="57.598359" style="stroke: #000000"/>
     <use xlink:href="#m2b7f95d56a" x="250.859261" y="57.728579" style="stroke: #000000"/>
     <use xlink:href="#m2b7f95d56a" x="265.191303" y="57.719641" style="stroke: #000000"/>
     <use xlink:href="#m2b7f95d56a" x="276.543415" y="58.208471" style="stroke: #000000"/>
     <use xlink:href="#m2b7f95d56a" x="293.429683" y="57.679737" style="stroke: #000000"/>
     <use xlink:href="#m2b7f95d56a" x="303.788486" y="58.004354" style="stroke: #000000"/>
     <use xlink:href="#m2b7f95d56a" x="316.985317" y="59.089091" style="stroke: #000000"/>
     <use xlink:href="#m2b7f95d56a" x="325.925106" y="57.842344" style="stroke: #000000"/>
     <use xlink:href="#m2b7f95d56a" x="342.52757" y="58.071292" style="stroke: #000000"/>
     <use xlink:href="#m2b7f95d56a" x="355.866303" y="57.297884" style="stroke: #000000"/>
     <use xlink:href="#m2b7f95d56a" x="368.211725" y="57.663954" style="stroke: #000000"/>
     <use xlink:href="#m2b7f95d56a" x="378.854331" y="57.712151" style="stroke: #000000"/>
    </g>
   </g>
   <g id="line2d_13">
    <g clip-path="url(#p50576a0850)">
     <use xlink:href="#m2b7f95d56a" x="55.744824" y="27.0193" style="stroke: #000000"/>
     <use xlink:href="#m2b7f95d56a" x="64.684613" y="22.546128" style="stroke: #000000"/>
     <use xlink:href="#m2b7f95d56a" x="88.949754" y="28.458199" style="stroke: #000000"/>
     <use xlink:href="#m2b7f95d56a" x="119.032852" y="9.670909" style="stroke: #000000"/>
     <use xlink:href="#m2b7f95d56a" x="130.526866" y="32.945226" style="stroke: #000000"/>
     <use xlink:href="#m2b7f95d56a" x="153.231092" y="34.036647" style="stroke: #000000"/>
     <use xlink:href="#m2b7f95d56a" x="163.447993" y="35.56447" style="stroke: #000000"/>
     <use xlink:href="#m2b7f95d56a" x="179.766655" y="33.897834" style="stroke: #000000"/>
     <use xlink:href="#m2b7f95d56a" x="188.564542" y="33.382954" style="stroke: #000000"/>
     <use xlink:href="#m2b7f95d56a" x="205.876514" y="27.36975" style="stroke: #000000"/>
     <use xlink:href="#m2b7f95d56a" x="233.121585" y="54.008329" style="stroke: #000000"/>
     <use xlink:href="#m2b7f95d56a" x="241.919472" y="54.688846" style="stroke: #000000"/>
     <use xlink:href="#m2b7f95d56a" x="250.859261" y="55.226936" style="stroke: #000000"/>
     <use xlink:href="#m2b7f95d56a" x="265.191303" y="55.799489" style="stroke: #000000"/>
     <use xlink:href="#m2b7f95d56a" x="276.543415" y="54.162125" style="stroke: #000000"/>
     <use xlink:href="#m2b7f95d56a" x="293.429683" y="54.688088" style="stroke: #000000"/>
     <use xlink:href="#m2b7f95d56a" x="303.788486" y="53.654532" style="stroke: #000000"/>
     <use xlink:href="#m2b7f95d56a" x="316.985317" y="48.932048" style="stroke: #000000"/>
     <use xlink:href="#m2b7f95d56a" x="325.925106" y="54.420608" style="stroke: #000000"/>
     <use xlink:href="#m2b7f95d56a" x="342.52757" y="54.70639" style="stroke: #000000"/>
     <use xlink:href="#m2b7f95d56a" x="355.866303" y="50.352517" style="stroke: #000000"/>
     <use xlink:href="#m2b7f95d56a" x="368.211725" y="54.96718" style="stroke: #000000"/>
     <use xlink:href="#m2b7f95d56a" x="378.854331" y="55.126736" style="stroke: #000000"/>
    </g>
   </g>
   <g id="LineCollection_2">
    <path d="M 55.744824 44.106298 
L 55.744824 31.9336 
" clip-path="url(#p50576a0850)" style="fill: none; stroke: #000000; stroke-width: 1.5"/>
    <path d="M 64.684613 29.949314 
L 64.684613 15.776449 
" clip-path="url(#p50576a0850)" style="fill: none; stroke: #000000; stroke-width: 1.5"/>
    <path d="M 88.949754 42.391626 
L 88.949754 31.682212 
" clip-path="url(#p50576a0850)" style="fill: none; stroke: #000000; stroke-width: 1.5"/>
    <path d="M 119.032852 42.839935 
L 119.032852 31.473687 
" clip-path="url(#p50576a0850)" style="fill: none; stroke: #000000; stroke-width: 1.5"/>
    <path d="M 130.526866 44.77889 
L 130.526866 36.075967 
" clip-path="url(#p50576a0850)" style="fill: none; stroke: #000000; stroke-width: 1.5"/>
    <path d="M 153.231092 47.317497 
L 153.231092 33.469224 
" clip-path="url(#p50576a0850)" style="fill: none; stroke: #000000; stroke-width: 1.5"/>
    <path d="M 163.447993 45.19204 
L 163.447993 38.013121 
" clip-path="url(#p50576a0850)" style="fill: none; stroke: #000000; stroke-width: 1.5"/>
    <path d="M 179.766655 44.455392 
L 179.766655 31.468528 
" clip-path="url(#p50576a0850)" style="fill: none; stroke: #000000; stroke-width: 1.5"/>
    <path d="M 188.564542 43.754669 
L 188.564542 36.674525 
" clip-path="url(#p50576a0850)" style="fill: none; stroke: #000000; stroke-width: 1.5"/>
    <path d="M 205.876514 41.437766 
L 205.876514 33.922734 
" clip-path="url(#p50576a0850)" style="fill: none; stroke: #000000; stroke-width: 1.5"/>
    <path d="M 233.121585 57.653773 
L 233.121585 54.095432 
" clip-path="url(#p50576a0850)" style="fill: none; stroke: #000000; stroke-width: 1.5"/>
    <path d="M 241.919472 57.48698 
L 241.919472 55.700993 
" clip-path="url(#p50576a0850)" style="fill: none; stroke: #000000; stroke-width: 1.5"/>
    <path d="M 250.859261 56.954393 
L 250.859261 53.330791 
" clip-path="url(#p50576a0850)" style="fill: none; stroke: #000000; stroke-width: 1.5"/>
    <path d="M 265.191303 57.583257 
L 265.191303 55.231517 
" clip-path="url(#p50576a0850)" style="fill: none; stroke: #000000; stroke-width: 1.5"/>
    <path d="M 276.543415 56.913198 
L 276.543415 53.322862 
" clip-path="url(#p50576a0850)" style="fill: none; stroke: #000000; stroke-width: 1.5"/>
    <path d="M 293.429683 57.469995 
L 293.429683 55.64369 
" clip-path="url(#p50576a0850)" style="fill: none; stroke: #000000; stroke-width: 1.5"/>
    <path d="M 303.788486 57.387293 
L 303.788486 55.349276 
" clip-path="url(#p50576a0850)" style="fill: none; stroke: #000000; stroke-width: 1.5"/>
    <path d="M 316.985317 57.418602 
L 316.985317 55.557471 
" clip-path="url(#p50576a0850)" style="fill: none; stroke: #000000; stroke-width: 1.5"/>
    <path d="M 325.925106 57.483924 
L 325.925106 55.591617 
" clip-path="url(#p50576a0850)" style="fill: none; stroke: #000000; stroke-width: 1.5"/>
    <path d="M 342.52757 58.199607 
L 342.52757 55.038116 
" clip-path="url(#p50576a0850)" style="fill: none; stroke: #000000; stroke-width: 1.5"/>
    <path d="M 355.866303 43.096008 
L 355.866303 14.818912 
" clip-path="url(#p50576a0850)" style="fill: none; stroke: #000000; stroke-width: 1.5"/>
    <path d="M 368.211725 56.982757 
L 368.211725 54.988779 
" clip-path="url(#p50576a0850)" style="fill: none; stroke: #000000; stroke-width: 1.5"/>
    <path d="M 378.854331 57.552719 
L 378.854331 55.454929 
" clip-path="url(#p50576a0850)" style="fill: none; stroke: #000000; stroke-width: 1.5"/>
   </g>
   <g id="line2d_14">
    <g clip-path="url(#p50576a0850)">
     <use xlink:href="#m2b7f95d56a" x="55.744824" y="44.106298" style="stroke: #000000"/>
     <use xlink:href="#m2b7f95d56a" x="64.684613" y="29.949314" style="stroke: #000000"/>
     <use xlink:href="#m2b7f95d56a" x="88.949754" y="42.391626" style="stroke: #000000"/>
     <use xlink:href="#m2b7f95d56a" x="119.032852" y="42.839935" style="stroke: #000000"/>
     <use xlink:href="#m2b7f95d56a" x="130.526866" y="44.77889" style="stroke: #000000"/>
     <use xlink:href="#m2b7f95d56a" x="153.231092" y="47.317497" style="stroke: #000000"/>
     <use xlink:href="#m2b7f95d56a" x="163.447993" y="45.19204" style="stroke: #000000"/>
     <use xlink:href="#m2b7f95d56a" x="179.766655" y="44.455392" style="stroke: #000000"/>
     <use xlink:href="#m2b7f95d56a" x="188.564542" y="43.754669" style="stroke: #000000"/>
     <use xlink:href="#m2b7f95d56a" x="205.876514" y="41.437766" style="stroke: #000000"/>
     <use xlink:href="#m2b7f95d56a" x="233.121585" y="57.653773" style="stroke: #000000"/>
     <use xlink:href="#m2b7f95d56a" x="241.919472" y="57.48698" style="stroke: #000000"/>
     <use xlink:href="#m2b7f95d56a" x="250.859261" y="56.954393" style="stroke: #000000"/>
     <use xlink:href="#m2b7f95d56a" x="265.191303" y="57.583257" style="stroke: #000000"/>
     <use xlink:href="#m2b7f95d56a" x="276.543415" y="56.913198" style="stroke: #000000"/>
     <use xlink:href="#m2b7f95d56a" x="293.429683" y="57.469995" style="stroke: #000000"/>
     <use xlink:href="#m2b7f95d56a" x="303.788486" y="57.387293" style="stroke: #000000"/>
     <use xlink:href="#m2b7f95d56a" x="316.985317" y="57.418602" style="stroke: #000000"/>
     <use xlink:href="#m2b7f95d56a" x="325.925106" y="57.483924" style="stroke: #000000"/>
     <use xlink:href="#m2b7f95d56a" x="342.52757" y="58.199607" style="stroke: #000000"/>
     <use xlink:href="#m2b7f95d56a" x="355.866303" y="43.096008" style="stroke: #000000"/>
     <use xlink:href="#m2b7f95d56a" x="368.211725" y="56.982757" style="stroke: #000000"/>
     <use xlink:href="#m2b7f95d56a" x="378.854331" y="57.552719" style="stroke: #000000"/>
    </g>
   </g>
   <g id="line2d_15">
    <g clip-path="url(#p50576a0850)">
     <use xlink:href="#m2b7f95d56a" x="55.744824" y="31.9336" style="stroke: #000000"/>
     <use xlink:href="#m2b7f95d56a" x="64.684613" y="15.776449" style="stroke: #000000"/>
     <use xlink:href="#m2b7f95d56a" x="88.949754" y="31.682212" style="stroke: #000000"/>
     <use xlink:href="#m2b7f95d56a" x="119.032852" y="31.473687" style="stroke: #000000"/>
     <use xlink:href="#m2b7f95d56a" x="130.526866" y="36.075967" style="stroke: #000000"/>
     <use xlink:href="#m2b7f95d56a" x="153.231092" y="33.469224" style="stroke: #000000"/>
     <use xlink:href="#m2b7f95d56a" x="163.447993" y="38.013121" style="stroke: #000000"/>
     <use xlink:href="#m2b7f95d56a" x="179.766655" y="31.468528" style="stroke: #000000"/>
     <use xlink:href="#m2b7f95d56a" x="188.564542" y="36.674525" style="stroke: #000000"/>
     <use xlink:href="#m2b7f95d56a" x="205.876514" y="33.922734" style="stroke: #000000"/>
     <use xlink:href="#m2b7f95d56a" x="233.121585" y="54.095432" style="stroke: #000000"/>
     <use xlink:href="#m2b7f95d56a" x="241.919472" y="55.700993" style="stroke: #000000"/>
     <use xlink:href="#m2b7f95d56a" x="250.859261" y="53.330791" style="stroke: #000000"/>
     <use xlink:href="#m2b7f95d56a" x="265.191303" y="55.231517" style="stroke: #000000"/>
     <use xlink:href="#m2b7f95d56a" x="276.543415" y="53.322862" style="stroke: #000000"/>
     <use xlink:href="#m2b7f95d56a" x="293.429683" y="55.64369" style="stroke: #000000"/>
     <use xlink:href="#m2b7f95d56a" x="303.788486" y="55.349276" style="stroke: #000000"/>
     <use xlink:href="#m2b7f95d56a" x="316.985317" y="55.557471" style="stroke: #000000"/>
     <use xlink:href="#m2b7f95d56a" x="325.925106" y="55.591617" style="stroke: #000000"/>
     <use xlink:href="#m2b7f95d56a" x="342.52757" y="55.038116" style="stroke: #000000"/>
     <use xlink:href="#m2b7f95d56a" x="355.866303" y="14.818912" style="stroke: #000000"/>
     <use xlink:href="#m2b7f95d56a" x="368.211725" y="54.988779" style="stroke: #000000"/>
     <use xlink:href="#m2b7f95d56a" x="378.854331" y="55.454929" style="stroke: #000000"/>
    </g>
   </g>
   <g id="patch_3">
    <path d="M 23.1075 61.56 
L 23.1075 7.2 
" style="fill: none; stroke: #000000; stroke-width: 0.8; stroke-linejoin: miter; stroke-linecap: square"/>
   </g>
   <g id="patch_4">
    <path d="M 23.1075 61.56 
L 385.8075 61.56 
" style="fill: none; stroke: #000000; stroke-width: 0.8; stroke-linejoin: miter; stroke-linecap: square"/>
   </g>
   <g id="legend_1">
    <g id="patch_5">
     <path d="M 165.294687 33.349375 
L 243.620312 33.349375 
Q 245.020312 33.349375 245.020312 31.949375 
L 245.020312 12.1 
Q 245.020312 10.7 243.620312 10.7 
L 165.294687 10.7 
Q 163.894687 10.7 163.894687 12.1 
L 163.894687 31.949375 
Q 163.894687 33.349375 165.294687 33.349375 
z
" style="fill: #ffffff; opacity: 0.8; stroke: #cccccc; stroke-linejoin: miter"/>
    </g>
    <g id="line2d_16">
     <path d="M 166.694687 16.368906 
L 173.694687 16.368906 
L 180.694687 16.368906 
" style="fill: none; stroke: #ff7f0e; stroke-width: 3; stroke-linecap: square"/>
    </g>
    <g id="text_10">
     <!-- Leiden cluster 1 -->
     <g transform="translate(186.294687 18.818906)scale(0.07 -0.07)">
      <defs>
       <path id="DejaVuSans-4c" d="M 628 4666 
L 1259 4666 
L 1259 531 
L 3531 531 
L 3531 0 
L 628 0 
L 628 4666 
z
" transform="scale(0.015625)"/>
       <path id="DejaVuSans-65" d="M 3597 1894 
L 3597 1613 
L 953 1613 
Q 991 1019 1311 708 
Q 1631 397 2203 397 
Q 2534 397 2845 478 
Q 3156 559 3463 722 
L 3463 178 
Q 3153 47 2828 -22 
Q 2503 -91 2169 -91 
Q 1331 -91 842 396 
Q 353 884 353 1716 
Q 353 2575 817 3079 
Q 1281 3584 2069 3584 
Q 2775 3584 3186 3129 
Q 3597 2675 3597 1894 
z
M 3022 2063 
Q 3016 2534 2758 2815 
Q 2500 3097 2075 3097 
Q 1594 3097 1305 2825 
Q 1016 2553 972 2059 
L 3022 2063 
z
" transform="scale(0.015625)"/>
       <path id="DejaVuSans-69" d="M 603 3500 
L 1178 3500 
L 1178 0 
L 603 0 
L 603 3500 
z
M 603 4863 
L 1178 4863 
L 1178 4134 
L 603 4134 
L 603 4863 
z
" transform="scale(0.015625)"/>
       <path id="DejaVuSans-64" d="M 2906 2969 
L 2906 4863 
L 3481 4863 
L 3481 0 
L 2906 0 
L 2906 525 
Q 2725 213 2448 61 
Q 2172 -91 1784 -91 
Q 1150 -91 751 415 
Q 353 922 353 1747 
Q 353 2572 751 3078 
Q 1150 3584 1784 3584 
Q 2172 3584 2448 3432 
Q 2725 3281 2906 2969 
z
M 947 1747 
Q 947 1113 1208 752 
Q 1469 391 1925 391 
Q 2381 391 2643 752 
Q 2906 1113 2906 1747 
Q 2906 2381 2643 2742 
Q 2381 3103 1925 3103 
Q 1469 3103 1208 2742 
Q 947 2381 947 1747 
z
" transform="scale(0.015625)"/>
       <path id="DejaVuSans-6e" d="M 3513 2113 
L 3513 0 
L 2938 0 
L 2938 2094 
Q 2938 2591 2744 2837 
Q 2550 3084 2163 3084 
Q 1697 3084 1428 2787 
Q 1159 2491 1159 1978 
L 1159 0 
L 581 0 
L 581 3500 
L 1159 3500 
L 1159 2956 
Q 1366 3272 1645 3428 
Q 1925 3584 2291 3584 
Q 2894 3584 3203 3211 
Q 3513 2838 3513 2113 
z
" transform="scale(0.015625)"/>
       <path id="DejaVuSans-20" transform="scale(0.015625)"/>
       <path id="DejaVuSans-63" d="M 3122 3366 
L 3122 2828 
Q 2878 2963 2633 3030 
Q 2388 3097 2138 3097 
Q 1578 3097 1268 2742 
Q 959 2388 959 1747 
Q 959 1106 1268 751 
Q 1578 397 2138 397 
Q 2388 397 2633 464 
Q 2878 531 3122 666 
L 3122 134 
Q 2881 22 2623 -34 
Q 2366 -91 2075 -91 
Q 1284 -91 818 406 
Q 353 903 353 1747 
Q 353 2603 823 3093 
Q 1294 3584 2113 3584 
Q 2378 3584 2631 3529 
Q 2884 3475 3122 3366 
z
" transform="scale(0.015625)"/>
       <path id="DejaVuSans-6c" d="M 603 4863 
L 1178 4863 
L 1178 0 
L 603 0 
L 603 4863 
z
" transform="scale(0.015625)"/>
       <path id="DejaVuSans-75" d="M 544 1381 
L 544 3500 
L 1119 3500 
L 1119 1403 
Q 1119 906 1312 657 
Q 1506 409 1894 409 
Q 2359 409 2629 706 
Q 2900 1003 2900 1516 
L 2900 3500 
L 3475 3500 
L 3475 0 
L 2900 0 
L 2900 538 
Q 2691 219 2414 64 
Q 2138 -91 1772 -91 
Q 1169 -91 856 284 
Q 544 659 544 1381 
z
M 1991 3584 
L 1991 3584 
z
" transform="scale(0.015625)"/>
       <path id="DejaVuSans-73" d="M 2834 3397 
L 2834 2853 
Q 2591 2978 2328 3040 
Q 2066 3103 1784 3103 
Q 1356 3103 1142 2972 
Q 928 2841 928 2578 
Q 928 2378 1081 2264 
Q 1234 2150 1697 2047 
L 1894 2003 
Q 2506 1872 2764 1633 
Q 3022 1394 3022 966 
Q 3022 478 2636 193 
Q 2250 -91 1575 -91 
Q 1294 -91 989 -36 
Q 684 19 347 128 
L 347 722 
Q 666 556 975 473 
Q 1284 391 1588 391 
Q 1994 391 2212 530 
Q 2431 669 2431 922 
Q 2431 1156 2273 1281 
Q 2116 1406 1581 1522 
L 1381 1569 
Q 847 1681 609 1914 
Q 372 2147 372 2553 
Q 372 3047 722 3315 
Q 1072 3584 1716 3584 
Q 2034 3584 2315 3537 
Q 2597 3491 2834 3397 
z
" transform="scale(0.015625)"/>
       <path id="DejaVuSans-74" d="M 1172 4494 
L 1172 3500 
L 2356 3500 
L 2356 3053 
L 1172 3053 
L 1172 1153 
Q 1172 725 1289 603 
Q 1406 481 1766 481 
L 2356 481 
L 2356 0 
L 1766 0 
Q 1100 0 847 248 
Q 594 497 594 1153 
L 594 3053 
L 172 3053 
L 172 3500 
L 594 3500 
L 594 4494 
L 1172 4494 
z
" transform="scale(0.015625)"/>
       <path id="DejaVuSans-72" d="M 2631 2963 
Q 2534 3019 2420 3045 
Q 2306 3072 2169 3072 
Q 1681 3072 1420 2755 
Q 1159 2438 1159 1844 
L 1159 0 
L 581 0 
L 581 3500 
L 1159 3500 
L 1159 2956 
Q 1341 3275 1631 3429 
Q 1922 3584 2338 3584 
Q 2397 3584 2469 3576 
Q 2541 3569 2628 3553 
L 2631 2963 
z
" transform="scale(0.015625)"/>
      </defs>
      <use xlink:href="#DejaVuSans-4c"/>
      <use xlink:href="#DejaVuSans-65" x="53.962891"/>
      <use xlink:href="#DejaVuSans-69" x="115.486328"/>
      <use xlink:href="#DejaVuSans-64" x="143.269531"/>
      <use xlink:href="#DejaVuSans-65" x="206.746094"/>
      <use xlink:href="#DejaVuSans-6e" x="268.269531"/>
      <use xlink:href="#DejaVuSans-20" x="331.648438"/>
      <use xlink:href="#DejaVuSans-63" x="363.435547"/>
      <use xlink:href="#DejaVuSans-6c" x="418.416016"/>
      <use xlink:href="#DejaVuSans-75" x="446.199219"/>
      <use xlink:href="#DejaVuSans-73" x="509.578125"/>
      <use xlink:href="#DejaVuSans-74" x="561.677734"/>
      <use xlink:href="#DejaVuSans-65" x="600.886719"/>
      <use xlink:href="#DejaVuSans-72" x="662.410156"/>
      <use xlink:href="#DejaVuSans-20" x="703.523438"/>
      <use xlink:href="#DejaVuSans-31" x="735.310547"/>
     </g>
    </g>
    <g id="line2d_17">
     <path d="M 166.694687 26.643594 
L 173.694687 26.643594 
L 180.694687 26.643594 
" style="fill: none; stroke: #d62728; stroke-width: 3; stroke-linecap: square"/>
    </g>
    <g id="text_11">
     <!-- Leiden cluster 3 -->
     <g transform="translate(186.294687 29.093594)scale(0.07 -0.07)">
      <defs>
       <path id="DejaVuSans-33" d="M 2597 2516 
Q 3050 2419 3304 2112 
Q 3559 1806 3559 1356 
Q 3559 666 3084 287 
Q 2609 -91 1734 -91 
Q 1441 -91 1130 -33 
Q 819 25 488 141 
L 488 750 
Q 750 597 1062 519 
Q 1375 441 1716 441 
Q 2309 441 2620 675 
Q 2931 909 2931 1356 
Q 2931 1769 2642 2001 
Q 2353 2234 1838 2234 
L 1294 2234 
L 1294 2753 
L 1863 2753 
Q 2328 2753 2575 2939 
Q 2822 3125 2822 3475 
Q 2822 3834 2567 4026 
Q 2313 4219 1838 4219 
Q 1578 4219 1281 4162 
Q 984 4106 628 3988 
L 628 4550 
Q 988 4650 1302 4700 
Q 1616 4750 1894 4750 
Q 2613 4750 3031 4423 
Q 3450 4097 3450 3541 
Q 3450 3153 3228 2886 
Q 3006 2619 2597 2516 
z
" transform="scale(0.015625)"/>
      </defs>
      <use xlink:href="#DejaVuSans-4c"/>
      <use xlink:href="#DejaVuSans-65" x="53.962891"/>
      <use xlink:href="#DejaVuSans-69" x="115.486328"/>
      <use xlink:href="#DejaVuSans-64" x="143.269531"/>
      <use xlink:href="#DejaVuSans-65" x="206.746094"/>
      <use xlink:href="#DejaVuSans-6e" x="268.269531"/>
      <use xlink:href="#DejaVuSans-20" x="331.648438"/>
      <use xlink:href="#DejaVuSans-63" x="363.435547"/>
      <use xlink:href="#DejaVuSans-6c" x="418.416016"/>
      <use xlink:href="#DejaVuSans-75" x="446.199219"/>
      <use xlink:href="#DejaVuSans-73" x="509.578125"/>
      <use xlink:href="#DejaVuSans-74" x="561.677734"/>
      <use xlink:href="#DejaVuSans-65" x="600.886719"/>
      <use xlink:href="#DejaVuSans-72" x="662.410156"/>
      <use xlink:href="#DejaVuSans-20" x="703.523438"/>
      <use xlink:href="#DejaVuSans-33" x="735.310547"/>
     </g>
    </g>
   </g>
  </g>
 </g>
 <defs>
  <clipPath id="p50576a0850">
   <rect x="23.1075" y="7.2" width="362.7" height="54.36"/>
  </clipPath>
 </defs>
</svg>
