<?xml version="1.0" encoding="utf-8" standalone="no"?>
<!DOCTYPE svg PUBLIC "-//W3C//DTD SVG 1.1//EN"
  "http://www.w3.org/Graphics/SVG/1.1/DTD/svg11.dtd">
<svg xmlns:xlink="http://www.w3.org/1999/xlink" width="393.968521pt" height="79.443651pt" viewBox="0 0 393.968521 79.443651" xmlns="http://www.w3.org/2000/svg" version="1.1">
 <metadata>
  <rdf:RDF xmlns:dc="http://purl.org/dc/elements/1.1/" xmlns:cc="http://creativecommons.org/ns#" xmlns:rdf="http://www.w3.org/1999/02/22-rdf-syntax-ns#">
   <cc:Work>
    <dc:type rdf:resource="http://purl.org/dc/dcmitype/StillImage"/>
    <dc:date>2024-05-24T10:51:15.516963</dc:date>
    <dc:format>image/svg+xml</dc:format>
    <dc:creator>
     <cc:Agent>
      <dc:title>Matplotlib v3.5.1, https://matplotlib.org/</dc:title>
     </cc:Agent>
    </dc:creator>
   </cc:Work>
  </rdf:RDF>
 </metadata>
 <defs>
  <style type="text/css">*{stroke-linejoin: round; stroke-linecap: butt}</style>
 </defs>
 <g id="figure_1">
  <g id="patch_1">
   <path d="M 0 79.443651 
L 393.968521 79.443651 
L 393.968521 0 
L 0 0 
z
" style="fill: #ffffff"/>
  </g>
  <g id="axes_1">
   <g id="patch_2">
    <path d="M 23.1075 61.56 
L 385.8075 61.56 
L 385.8075 7.2 
L 23.1075 7.2 
z
" style="fill: #ffffff"/>
   </g>
   <g id="matplotlib.axis_1">
    <g id="xtick_1">
     <g id="line2d_1">
      <defs>
       <path id="m4142de5875" d="M 0 0 
L 0 3.5 
" style="stroke: #000000; stroke-width: 0.8"/>
      </defs>
      <g>
       <use xlink:href="#m4142de5875" x="23.1075" y="58.468963" style="stroke: #000000; stroke-width: 0.8"/>
      </g>
     </g>
     <g id="text_1">
      <!-- 0 -->
      <g transform="translate(20.880625 70.78787)scale(0.07 -0.07)">
       <defs>
        <path id="DejaVuSans-30" d="M 2034 4250 
Q 1547 4250 1301 3770 
Q 1056 3291 1056 2328 
Q 1056 1369 1301 889 
Q 1547 409 2034 409 
Q 2525 409 2770 889 
Q 3016 1369 3016 2328 
Q 3016 3291 2770 3770 
Q 2525 4250 2034 4250 
z
M 2034 4750 
Q 2819 4750 3233 4129 
Q 3647 3509 3647 2328 
Q 3647 1150 3233 529 
Q 2819 -91 2034 -91 
Q 1250 -91 836 529 
Q 422 1150 422 2328 
Q 422 3509 836 4129 
Q 1250 4750 2034 4750 
z
" transform="scale(0.015625)"/>
       </defs>
       <use xlink:href="#DejaVuSans-30"/>
      </g>
     </g>
    </g>
    <g id="xtick_2">
     <g id="line2d_2">
      <g>
       <use xlink:href="#m4142de5875" x="94.058204" y="58.468963" style="stroke: #000000; stroke-width: 0.8"/>
      </g>
     </g>
     <g id="text_2">
      <!-- 500 -->
      <g transform="translate(87.377579 70.78787)scale(0.07 -0.07)">
       <defs>
        <path id="DejaVuSans-35" d="M 691 4666 
L 3169 4666 
L 3169 4134 
L 1269 4134 
L 1269 2991 
Q 1406 3038 1543 3061 
Q 1681 3084 1819 3084 
Q 2600 3084 3056 2656 
Q 3513 2228 3513 1497 
Q 3513 744 3044 326 
Q 2575 -91 1722 -91 
Q 1428 -91 1123 -41 
Q 819 9 494 109 
L 494 744 
Q 775 591 1075 516 
Q 1375 441 1709 441 
Q 2250 441 2565 725 
Q 2881 1009 2881 1497 
Q 2881 1984 2565 2268 
Q 2250 2553 1709 2553 
Q 1456 2553 1204 2497 
Q 953 2441 691 2322 
L 691 4666 
z
" transform="scale(0.015625)"/>
       </defs>
       <use xlink:href="#DejaVuSans-35"/>
       <use xlink:href="#DejaVuSans-30" x="63.623047"/>
       <use xlink:href="#DejaVuSans-30" x="127.246094"/>
      </g>
     </g>
    </g>
    <g id="xtick_3">
     <g id="line2d_3">
      <g>
       <use xlink:href="#m4142de5875" x="165.008908" y="58.468963" style="stroke: #000000; stroke-width: 0.8"/>
      </g>
     </g>
     <g id="text_3">
      <!-- 1000 -->
      <g transform="translate(156.101408 70.78787)scale(0.07 -0.07)">
       <defs>
        <path id="DejaVuSans-31" d="M 794 531 
L 1825 531 
L 1825 4091 
L 703 3866 
L 703 4441 
L 1819 4666 
L 2450 4666 
L 2450 531 
L 3481 531 
L 3481 0 
L 794 0 
L 794 531 
z
" transform="scale(0.015625)"/>
       </defs>
       <use xlink:href="#DejaVuSans-31"/>
       <use xlink:href="#DejaVuSans-30" x="63.623047"/>
       <use xlink:href="#DejaVuSans-30" x="127.246094"/>
       <use xlink:href="#DejaVuSans-30" x="190.869141"/>
      </g>
     </g>
    </g>
    <g id="xtick_4">
     <g id="line2d_4">
      <g>
       <use xlink:href="#m4142de5875" x="235.959613" y="58.468963" style="stroke: #000000; stroke-width: 0.8"/>
      </g>
     </g>
     <g id="text_4">
      <!-- 1500 -->
      <g transform="translate(227.052113 70.78787)scale(0.07 -0.07)">
       <use xlink:href="#DejaVuSans-31"/>
       <use xlink:href="#DejaVuSans-35" x="63.623047"/>
       <use xlink:href="#DejaVuSans-30" x="127.246094"/>
       <use xlink:href="#DejaVuSans-30" x="190.869141"/>
      </g>
     </g>
    </g>
    <g id="xtick_5">
     <g id="line2d_5">
      <g>
       <use xlink:href="#m4142de5875" x="306.910317" y="58.468963" style="stroke: #000000; stroke-width: 0.8"/>
      </g>
     </g>
     <g id="text_5">
      <!-- 2000 -->
      <g transform="translate(298.002817 70.78787)scale(0.07 -0.07)">
       <defs>
        <path id="DejaVuSans-32" d="M 1228 531 
L 3431 531 
L 3431 0 
L 469 0 
L 469 531 
Q 828 903 1448 1529 
Q 2069 2156 2228 2338 
Q 2531 2678 2651 2914 
Q 2772 3150 2772 3378 
Q 2772 3750 2511 3984 
Q 2250 4219 1831 4219 
Q 1534 4219 1204 4116 
Q 875 4013 500 3803 
L 500 4441 
Q 881 4594 1212 4672 
Q 1544 4750 1819 4750 
Q 2544 4750 2975 4387 
Q 3406 4025 3406 3419 
Q 3406 3131 3298 2873 
Q 3191 2616 2906 2266 
Q 2828 2175 2409 1742 
Q 1991 1309 1228 531 
z
" transform="scale(0.015625)"/>
       </defs>
       <use xlink:href="#DejaVuSans-32"/>
       <use xlink:href="#DejaVuSans-30" x="63.623047"/>
       <use xlink:href="#DejaVuSans-30" x="127.246094"/>
       <use xlink:href="#DejaVuSans-30" x="190.869141"/>
      </g>
     </g>
    </g>
    <g id="xtick_6">
     <g id="line2d_6">
      <g>
       <use xlink:href="#m4142de5875" x="377.861021" y="58.468963" style="stroke: #000000; stroke-width: 0.8"/>
      </g>
     </g>
     <g id="text_6">
      <!-- 2500 -->
      <g transform="translate(368.953521 70.78787)scale(0.07 -0.07)">
       <use xlink:href="#DejaVuSans-32"/>
       <use xlink:href="#DejaVuSans-35" x="63.623047"/>
       <use xlink:href="#DejaVuSans-30" x="127.246094"/>
       <use xlink:href="#DejaVuSans-30" x="190.869141"/>
      </g>
     </g>
    </g>
   </g>
   <g id="matplotlib.axis_2">
    <g id="ytick_1">
     <g id="line2d_7">
      <defs>
       <path id="m86ac099b61" d="M 0 0 
L -3.5 0 
" style="stroke: #000000; stroke-width: 0.8"/>
      </defs>
      <g>
       <use xlink:href="#m86ac099b61" x="23.1075" y="58.468963" style="stroke: #000000; stroke-width: 0.8"/>
      </g>
     </g>
     <g id="text_7">
      <!-- 0 -->
      <g transform="translate(11.65375 61.128417)scale(0.07 -0.07)">
       <use xlink:href="#DejaVuSans-30"/>
      </g>
     </g>
    </g>
    <g id="ytick_2">
     <g id="line2d_8">
      <g>
       <use xlink:href="#m86ac099b61" x="23.1075" y="29.637847" style="stroke: #000000; stroke-width: 0.8"/>
      </g>
     </g>
     <g id="text_8">
      <!-- 20 -->
      <g transform="translate(7.2 32.2973)scale(0.07 -0.07)">
       <use xlink:href="#DejaVuSans-32"/>
       <use xlink:href="#DejaVuSans-30" x="63.623047"/>
      </g>
     </g>
    </g>
   </g>
   <g id="line2d_9">
    <path d="M 55.744824 32.892053 
L 64.684613 18.402384 
L 88.949754 28.012163 
L 102.430387 27.476972 
L 119.032852 24.453278 
L 130.526866 35.287798 
L 153.231092 35.63608 
L 163.447993 36.036399 
L 179.766655 35.305037 
L 188.564542 36.483582 
L 205.876514 31.179435 
L 233.121585 56.643485 
L 241.919472 56.728479 
L 250.859261 57.206481 
L 265.191303 57.63129 
L 276.543415 57.170356 
L 293.429683 57.001361 
L 303.788486 56.639627 
L 316.985317 56.255492 
L 325.925106 57.307129 
L 342.52757 57.087334 
L 355.866303 52.4728 
L 368.211725 57.142344 
L 378.854331 57.01215 
" clip-path="url(#p7000a1533d)" style="fill: none; stroke: #0000ff; stroke-width: 3; stroke-linecap: square"/>
   </g>
   <g id="LineCollection_1">
    <path d="M 55.744824 41.375354 
L 55.744824 24.408753 
" clip-path="url(#p7000a1533d)" style="fill: none; stroke: #000000; stroke-width: 1.5"/>
    <path d="M 64.684613 28.883991 
L 64.684613 7.920778 
" clip-path="url(#p7000a1533d)" style="fill: none; stroke: #000000; stroke-width: 1.5"/>
    <path d="M 88.949754 37.348528 
L 88.949754 18.675798 
" clip-path="url(#p7000a1533d)" style="fill: none; stroke: #000000; stroke-width: 1.5"/>
    <path d="M 102.430387 35.269009 
L 102.430387 19.684936 
" clip-path="url(#p7000a1533d)" style="fill: none; stroke: #000000; stroke-width: 1.5"/>
    <path d="M 119.032852 35.932877 
L 119.032852 12.973678 
" clip-path="url(#p7000a1533d)" style="fill: none; stroke: #000000; stroke-width: 1.5"/>
    <path d="M 130.526866 42.691062 
L 130.526866 27.884534 
" clip-path="url(#p7000a1533d)" style="fill: none; stroke: #000000; stroke-width: 1.5"/>
    <path d="M 153.231092 42.298497 
L 153.231092 28.973664 
" clip-path="url(#p7000a1533d)" style="fill: none; stroke: #000000; stroke-width: 1.5"/>
    <path d="M 163.447993 43.717335 
L 163.447993 28.355463 
" clip-path="url(#p7000a1533d)" style="fill: none; stroke: #000000; stroke-width: 1.5"/>
    <path d="M 179.766655 43.010561 
L 179.766655 27.599514 
" clip-path="url(#p7000a1533d)" style="fill: none; stroke: #000000; stroke-width: 1.5"/>
    <path d="M 188.564542 44.570962 
L 188.564542 28.396202 
" clip-path="url(#p7000a1533d)" style="fill: none; stroke: #000000; stroke-width: 1.5"/>
    <path d="M 205.876514 39.414955 
L 205.876514 22.943914 
" clip-path="url(#p7000a1533d)" style="fill: none; stroke: #000000; stroke-width: 1.5"/>
    <path d="M 233.121585 59.54708 
L 233.121585 53.73989 
" clip-path="url(#p7000a1533d)" style="fill: none; stroke: #000000; stroke-width: 1.5"/>
    <path d="M 241.919472 59.551802 
L 241.919472 53.905156 
" clip-path="url(#p7000a1533d)" style="fill: none; stroke: #000000; stroke-width: 1.5"/>
    <path d="M 250.859261 58.946308 
L 250.859261 55.466654 
" clip-path="url(#p7000a1533d)" style="fill: none; stroke: #000000; stroke-width: 1.5"/>
    <path d="M 265.191303 59.117868 
L 265.191303 56.144712 
" clip-path="url(#p7000a1533d)" style="fill: none; stroke: #000000; stroke-width: 1.5"/>
    <path d="M 276.543415 59.095268 
L 276.543415 55.245444 
" clip-path="url(#p7000a1533d)" style="fill: none; stroke: #000000; stroke-width: 1.5"/>
    <path d="M 293.429683 59.28847 
L 293.429683 54.714251 
" clip-path="url(#p7000a1533d)" style="fill: none; stroke: #000000; stroke-width: 1.5"/>
    <path d="M 303.788486 59.268347 
L 303.788486 54.010907 
" clip-path="url(#p7000a1533d)" style="fill: none; stroke: #000000; stroke-width: 1.5"/>
    <path d="M 316.985317 60.461429 
L 316.985317 52.049555 
" clip-path="url(#p7000a1533d)" style="fill: none; stroke: #000000; stroke-width: 1.5"/>
    <path d="M 325.925106 58.919071 
L 325.925106 55.695188 
" clip-path="url(#p7000a1533d)" style="fill: none; stroke: #000000; stroke-width: 1.5"/>
    <path d="M 342.52757 59.372397 
L 342.52757 54.802271 
" clip-path="url(#p7000a1533d)" style="fill: none; stroke: #000000; stroke-width: 1.5"/>
    <path d="M 355.866303 61.56 
L 355.866303 43.3856 
" clip-path="url(#p7000a1533d)" style="fill: none; stroke: #000000; stroke-width: 1.5"/>
    <path d="M 368.211725 58.792706 
L 368.211725 55.491981 
" clip-path="url(#p7000a1533d)" style="fill: none; stroke: #000000; stroke-width: 1.5"/>
    <path d="M 378.854331 60.092044 
L 378.854331 53.932255 
" clip-path="url(#p7000a1533d)" style="fill: none; stroke: #000000; stroke-width: 1.5"/>
   </g>
   <g id="line2d_10">
    <defs>
     <path id="m2a9cc9fbbd" d="M 3 0 
L -3 -0 
" style="stroke: #000000"/>
    </defs>
    <g clip-path="url(#p7000a1533d)">
     <use xlink:href="#m2a9cc9fbbd" x="55.744824" y="41.375354" style="stroke: #000000"/>
     <use xlink:href="#m2a9cc9fbbd" x="64.684613" y="28.883991" style="stroke: #000000"/>
     <use xlink:href="#m2a9cc9fbbd" x="88.949754" y="37.348528" style="stroke: #000000"/>
     <use xlink:href="#m2a9cc9fbbd" x="102.430387" y="35.269009" style="stroke: #000000"/>
     <use xlink:href="#m2a9cc9fbbd" x="119.032852" y="35.932877" style="stroke: #000000"/>
     <use xlink:href="#m2a9cc9fbbd" x="130.526866" y="42.691062" style="stroke: #000000"/>
     <use xlink:href="#m2a9cc9fbbd" x="153.231092" y="42.298497" style="stroke: #000000"/>
     <use xlink:href="#m2a9cc9fbbd" x="163.447993" y="43.717335" style="stroke: #000000"/>
     <use xlink:href="#m2a9cc9fbbd" x="179.766655" y="43.010561" style="stroke: #000000"/>
     <use xlink:href="#m2a9cc9fbbd" x="188.564542" y="44.570962" style="stroke: #000000"/>
     <use xlink:href="#m2a9cc9fbbd" x="205.876514" y="39.414955" style="stroke: #000000"/>
     <use xlink:href="#m2a9cc9fbbd" x="233.121585" y="59.54708" style="stroke: #000000"/>
     <use xlink:href="#m2a9cc9fbbd" x="241.919472" y="59.551802" style="stroke: #000000"/>
     <use xlink:href="#m2a9cc9fbbd" x="250.859261" y="58.946308" style="stroke: #000000"/>
     <use xlink:href="#m2a9cc9fbbd" x="265.191303" y="59.117868" style="stroke: #000000"/>
     <use xlink:href="#m2a9cc9fbbd" x="276.543415" y="59.095268" style="stroke: #000000"/>
     <use xlink:href="#m2a9cc9fbbd" x="293.429683" y="59.28847" style="stroke: #000000"/>
     <use xlink:href="#m2a9cc9fbbd" x="303.788486" y="59.268347" style="stroke: #000000"/>
     <use xlink:href="#m2a9cc9fbbd" x="316.985317" y="60.461429" style="stroke: #000000"/>
     <use xlink:href="#m2a9cc9fbbd" x="325.925106" y="58.919071" style="stroke: #000000"/>
     <use xlink:href="#m2a9cc9fbbd" x="342.52757" y="59.372397" style="stroke: #000000"/>
     <use xlink:href="#m2a9cc9fbbd" x="355.866303" y="61.56" style="stroke: #000000"/>
     <use xlink:href="#m2a9cc9fbbd" x="368.211725" y="58.792706" style="stroke: #000000"/>
     <use xlink:href="#m2a9cc9fbbd" x="378.854331" y="60.092044" style="stroke: #000000"/>
    </g>
   </g>
   <g id="line2d_11">
    <g clip-path="url(#p7000a1533d)">
     <use xlink:href="#m2a9cc9fbbd" x="55.744824" y="24.408753" style="stroke: #000000"/>
     <use xlink:href="#m2a9cc9fbbd" x="64.684613" y="7.920778" style="stroke: #000000"/>
     <use xlink:href="#m2a9cc9fbbd" x="88.949754" y="18.675798" style="stroke: #000000"/>
     <use xlink:href="#m2a9cc9fbbd" x="102.430387" y="19.684936" style="stroke: #000000"/>
     <use xlink:href="#m2a9cc9fbbd" x="119.032852" y="12.973678" style="stroke: #000000"/>
     <use xlink:href="#m2a9cc9fbbd" x="130.526866" y="27.884534" style="stroke: #000000"/>
     <use xlink:href="#m2a9cc9fbbd" x="153.231092" y="28.973664" style="stroke: #000000"/>
     <use xlink:href="#m2a9cc9fbbd" x="163.447993" y="28.355463" style="stroke: #000000"/>
     <use xlink:href="#m2a9cc9fbbd" x="179.766655" y="27.599514" style="stroke: #000000"/>
     <use xlink:href="#m2a9cc9fbbd" x="188.564542" y="28.396202" style="stroke: #000000"/>
     <use xlink:href="#m2a9cc9fbbd" x="205.876514" y="22.943914" style="stroke: #000000"/>
     <use xlink:href="#m2a9cc9fbbd" x="233.121585" y="53.73989" style="stroke: #000000"/>
     <use xlink:href="#m2a9cc9fbbd" x="241.919472" y="53.905156" style="stroke: #000000"/>
     <use xlink:href="#m2a9cc9fbbd" x="250.859261" y="55.466654" style="stroke: #000000"/>
     <use xlink:href="#m2a9cc9fbbd" x="265.191303" y="56.144712" style="stroke: #000000"/>
     <use xlink:href="#m2a9cc9fbbd" x="276.543415" y="55.245444" style="stroke: #000000"/>
     <use xlink:href="#m2a9cc9fbbd" x="293.429683" y="54.714251" style="stroke: #000000"/>
     <use xlink:href="#m2a9cc9fbbd" x="303.788486" y="54.010907" style="stroke: #000000"/>
     <use xlink:href="#m2a9cc9fbbd" x="316.985317" y="52.049555" style="stroke: #000000"/>
     <use xlink:href="#m2a9cc9fbbd" x="325.925106" y="55.695188" style="stroke: #000000"/>
     <use xlink:href="#m2a9cc9fbbd" x="342.52757" y="54.802271" style="stroke: #000000"/>
     <use xlink:href="#m2a9cc9fbbd" x="355.866303" y="43.3856" style="stroke: #000000"/>
     <use xlink:href="#m2a9cc9fbbd" x="368.211725" y="55.491981" style="stroke: #000000"/>
     <use xlink:href="#m2a9cc9fbbd" x="378.854331" y="53.932255" style="stroke: #000000"/>
    </g>
   </g>
   <g id="line2d_12"/>
   <g id="patch_3">
    <path d="M 23.1075 61.56 
L 23.1075 7.2 
" style="fill: none; stroke: #000000; stroke-width: 0.8; stroke-linejoin: miter; stroke-linecap: square"/>
   </g>
   <g id="patch_4">
    <path d="M 23.1075 58.468963 
L 385.8075 58.468963 
" style="fill: none; stroke: #000000; stroke-width: 0.8; stroke-linejoin: miter; stroke-linecap: square"/>
   </g>
  </g>
 </g>
 <defs>
  <clipPath id="p7000a1533d">
   <rect x="23.1075" y="7.2" width="362.7" height="54.36"/>
  </clipPath>
 </defs>
</svg>
