<?xml version="1.0" encoding="utf-8" standalone="no"?>
<!DOCTYPE svg PUBLIC "-//W3C//DTD SVG 1.1//EN"
  "http://www.w3.org/Graphics/SVG/1.1/DTD/svg11.dtd">
<svg xmlns:xlink="http://www.w3.org/1999/xlink" width="393.0075pt" height="81.323362pt" viewBox="0 0 393.0075 81.323362" xmlns="http://www.w3.org/2000/svg" version="1.1">
 <metadata>
  <rdf:RDF xmlns:dc="http://purl.org/dc/elements/1.1/" xmlns:cc="http://creativecommons.org/ns#" xmlns:rdf="http://www.w3.org/1999/02/22-rdf-syntax-ns#">
   <cc:Work>
    <dc:type rdf:resource="http://purl.org/dc/dcmitype/StillImage"/>
    <dc:date>2024-05-24T10:51:14.842914</dc:date>
    <dc:format>image/svg+xml</dc:format>
    <dc:creator>
     <cc:Agent>
      <dc:title>Matplotlib v3.5.1, https://matplotlib.org/</dc:title>
     </cc:Agent>
    </dc:creator>
   </cc:Work>
  </rdf:RDF>
 </metadata>
 <defs>
  <style type="text/css">*{stroke-linejoin: round; stroke-linecap: butt}</style>
 </defs>
 <g id="figure_1">
  <g id="patch_1">
   <path d="M 0 81.323362 
L 393.0075 81.323362 
L 393.0075 0 
L 0 0 
z
" style="fill: #ffffff"/>
  </g>
  <g id="axes_1">
   <g id="patch_2">
    <path d="M 23.1075 61.56 
L 385.8075 61.56 
L 385.8075 7.2 
L 23.1075 7.2 
z
" style="fill: #ffffff"/>
   </g>
   <g id="matplotlib.axis_1">
    <g id="xtick_1">
     <g id="line2d_1">
      <defs>
       <path id="m3d3d73aeb2" d="M 0 0 
L 0 3.5 
" style="stroke: #000000; stroke-width: 0.8"/>
      </defs>
      <g>
       <use xlink:href="#m3d3d73aeb2" x="23.1075" y="60.348675" style="stroke: #000000; stroke-width: 0.8"/>
      </g>
     </g>
     <g id="text_1">
      <!-- 0 -->
      <g transform="translate(20.880625 72.667581)scale(0.07 -0.07)">
       <defs>
        <path id="DejaVuSans-30" d="M 2034 4250 
Q 1547 4250 1301 3770 
Q 1056 3291 1056 2328 
Q 1056 1369 1301 889 
Q 1547 409 2034 409 
Q 2525 409 2770 889 
Q 3016 1369 3016 2328 
Q 3016 3291 2770 3770 
Q 2525 4250 2034 4250 
z
M 2034 4750 
Q 2819 4750 3233 4129 
Q 3647 3509 3647 2328 
Q 3647 1150 3233 529 
Q 2819 -91 2034 -91 
Q 1250 -91 836 529 
Q 422 1150 422 2328 
Q 422 3509 836 4129 
Q 1250 4750 2034 4750 
z
" transform="scale(0.015625)"/>
       </defs>
       <use xlink:href="#DejaVuSans-30"/>
      </g>
     </g>
    </g>
    <g id="xtick_2">
     <g id="line2d_2">
      <g>
       <use xlink:href="#m3d3d73aeb2" x="79.550077" y="60.348675" style="stroke: #000000; stroke-width: 0.8"/>
      </g>
     </g>
     <g id="text_2">
      <!-- 500 -->
      <g transform="translate(72.869452 72.667581)scale(0.07 -0.07)">
       <defs>
        <path id="DejaVuSans-35" d="M 691 4666 
L 3169 4666 
L 3169 4134 
L 1269 4134 
L 1269 2991 
Q 1406 3038 1543 3061 
Q 1681 3084 1819 3084 
Q 2600 3084 3056 2656 
Q 3513 2228 3513 1497 
Q 3513 744 3044 326 
Q 2575 -91 1722 -91 
Q 1428 -91 1123 -41 
Q 819 9 494 109 
L 494 744 
Q 775 591 1075 516 
Q 1375 441 1709 441 
Q 2250 441 2565 725 
Q 2881 1009 2881 1497 
Q 2881 1984 2565 2268 
Q 2250 2553 1709 2553 
Q 1456 2553 1204 2497 
Q 953 2441 691 2322 
L 691 4666 
z
" transform="scale(0.015625)"/>
       </defs>
       <use xlink:href="#DejaVuSans-35"/>
       <use xlink:href="#DejaVuSans-30" x="63.623047"/>
       <use xlink:href="#DejaVuSans-30" x="127.246094"/>
      </g>
     </g>
    </g>
    <g id="xtick_3">
     <g id="line2d_3">
      <g>
       <use xlink:href="#m3d3d73aeb2" x="135.992654" y="60.348675" style="stroke: #000000; stroke-width: 0.8"/>
      </g>
     </g>
     <g id="text_3">
      <!-- 1000 -->
      <g transform="translate(127.085154 72.667581)scale(0.07 -0.07)">
       <defs>
        <path id="DejaVuSans-31" d="M 794 531 
L 1825 531 
L 1825 4091 
L 703 3866 
L 703 4441 
L 1819 4666 
L 2450 4666 
L 2450 531 
L 3481 531 
L 3481 0 
L 794 0 
L 794 531 
z
" transform="scale(0.015625)"/>
       </defs>
       <use xlink:href="#DejaVuSans-31"/>
       <use xlink:href="#DejaVuSans-30" x="63.623047"/>
       <use xlink:href="#DejaVuSans-30" x="127.246094"/>
       <use xlink:href="#DejaVuSans-30" x="190.869141"/>
      </g>
     </g>
    </g>
    <g id="xtick_4">
     <g id="line2d_4">
      <g>
       <use xlink:href="#m3d3d73aeb2" x="192.435231" y="60.348675" style="stroke: #000000; stroke-width: 0.8"/>
      </g>
     </g>
     <g id="text_4">
      <!-- 1500 -->
      <g transform="translate(183.527731 72.667581)scale(0.07 -0.07)">
       <use xlink:href="#DejaVuSans-31"/>
       <use xlink:href="#DejaVuSans-35" x="63.623047"/>
       <use xlink:href="#DejaVuSans-30" x="127.246094"/>
       <use xlink:href="#DejaVuSans-30" x="190.869141"/>
      </g>
     </g>
    </g>
    <g id="xtick_5">
     <g id="line2d_5">
      <g>
       <use xlink:href="#m3d3d73aeb2" x="248.877808" y="60.348675" style="stroke: #000000; stroke-width: 0.8"/>
      </g>
     </g>
     <g id="text_5">
      <!-- 2000 -->
      <g transform="translate(239.970308 72.667581)scale(0.07 -0.07)">
       <defs>
        <path id="DejaVuSans-32" d="M 1228 531 
L 3431 531 
L 3431 0 
L 469 0 
L 469 531 
Q 828 903 1448 1529 
Q 2069 2156 2228 2338 
Q 2531 2678 2651 2914 
Q 2772 3150 2772 3378 
Q 2772 3750 2511 3984 
Q 2250 4219 1831 4219 
Q 1534 4219 1204 4116 
Q 875 4013 500 3803 
L 500 4441 
Q 881 4594 1212 4672 
Q 1544 4750 1819 4750 
Q 2544 4750 2975 4387 
Q 3406 4025 3406 3419 
Q 3406 3131 3298 2873 
Q 3191 2616 2906 2266 
Q 2828 2175 2409 1742 
Q 1991 1309 1228 531 
z
" transform="scale(0.015625)"/>
       </defs>
       <use xlink:href="#DejaVuSans-32"/>
       <use xlink:href="#DejaVuSans-30" x="63.623047"/>
       <use xlink:href="#DejaVuSans-30" x="127.246094"/>
       <use xlink:href="#DejaVuSans-30" x="190.869141"/>
      </g>
     </g>
    </g>
    <g id="xtick_6">
     <g id="line2d_6">
      <g>
       <use xlink:href="#m3d3d73aeb2" x="305.320385" y="60.348675" style="stroke: #000000; stroke-width: 0.8"/>
      </g>
     </g>
     <g id="text_6">
      <!-- 2500 -->
      <g transform="translate(296.412885 72.667581)scale(0.07 -0.07)">
       <use xlink:href="#DejaVuSans-32"/>
       <use xlink:href="#DejaVuSans-35" x="63.623047"/>
       <use xlink:href="#DejaVuSans-30" x="127.246094"/>
       <use xlink:href="#DejaVuSans-30" x="190.869141"/>
      </g>
     </g>
    </g>
    <g id="xtick_7">
     <g id="line2d_7">
      <g>
       <use xlink:href="#m3d3d73aeb2" x="361.762962" y="60.348675" style="stroke: #000000; stroke-width: 0.8"/>
      </g>
     </g>
     <g id="text_7">
      <!-- 3000 -->
      <g transform="translate(352.855462 72.667581)scale(0.07 -0.07)">
       <defs>
        <path id="DejaVuSans-33" d="M 2597 2516 
Q 3050 2419 3304 2112 
Q 3559 1806 3559 1356 
Q 3559 666 3084 287 
Q 2609 -91 1734 -91 
Q 1441 -91 1130 -33 
Q 819 25 488 141 
L 488 750 
Q 750 597 1062 519 
Q 1375 441 1716 441 
Q 2309 441 2620 675 
Q 2931 909 2931 1356 
Q 2931 1769 2642 2001 
Q 2353 2234 1838 2234 
L 1294 2234 
L 1294 2753 
L 1863 2753 
Q 2328 2753 2575 2939 
Q 2822 3125 2822 3475 
Q 2822 3834 2567 4026 
Q 2313 4219 1838 4219 
Q 1578 4219 1281 4162 
Q 984 4106 628 3988 
L 628 4550 
Q 988 4650 1302 4700 
Q 1616 4750 1894 4750 
Q 2613 4750 3031 4423 
Q 3450 4097 3450 3541 
Q 3450 3153 3228 2886 
Q 3006 2619 2597 2516 
z
" transform="scale(0.015625)"/>
       </defs>
       <use xlink:href="#DejaVuSans-33"/>
       <use xlink:href="#DejaVuSans-30" x="63.623047"/>
       <use xlink:href="#DejaVuSans-30" x="127.246094"/>
       <use xlink:href="#DejaVuSans-30" x="190.869141"/>
      </g>
     </g>
    </g>
   </g>
   <g id="matplotlib.axis_2">
    <g id="ytick_1">
     <g id="line2d_8">
      <defs>
       <path id="m692989b34d" d="M 0 0 
L -3.5 0 
" style="stroke: #000000; stroke-width: 0.8"/>
      </defs>
      <g>
       <use xlink:href="#m692989b34d" x="23.1075" y="60.348675" style="stroke: #000000; stroke-width: 0.8"/>
      </g>
     </g>
     <g id="text_8">
      <!-- 0 -->
      <g transform="translate(11.65375 63.008128)scale(0.07 -0.07)">
       <use xlink:href="#DejaVuSans-30"/>
      </g>
     </g>
    </g>
    <g id="ytick_2">
     <g id="line2d_9">
      <g>
       <use xlink:href="#m692989b34d" x="23.1075" y="32.779773" style="stroke: #000000; stroke-width: 0.8"/>
      </g>
     </g>
     <g id="text_9">
      <!-- 10 -->
      <g transform="translate(7.2 35.439226)scale(0.07 -0.07)">
       <use xlink:href="#DejaVuSans-31"/>
       <use xlink:href="#DejaVuSans-30" x="63.623047"/>
      </g>
     </g>
    </g>
   </g>
   <g id="line2d_10">
    <path d="M 60.924027 56.609477 
L 80.227388 55.778468 
L 128.655119 54.88684 
L 135.653999 52.800136 
L 151.23215 26.931002 
L 165.229909 53.591065 
L 175.276688 56.626741 
L 185.549237 57.156797 
L 198.531029 54.238897 
L 210.948396 49.825153 
L 220.769405 54.135193 
L 228.10694 57.595 
L 240.185651 55.442309 
L 254.070525 49.756107 
L 266.600777 53.695209 
L 280.937192 58.347962 
L 287.823186 56.613374 
L 298.885931 50.717413 
L 305.771926 54.940278 
L 312.996576 54.097596 
L 321.575847 54.299543 
L 332.412822 56.303041 
L 339.976127 56.369524 
L 347.539433 56.583614 
L 358.489293 58.452643 
L 367.520105 52.463449 
L 378.244195 51.959521 
" clip-path="url(#pe1273d01fa)" style="fill: none; stroke: #0000ff; stroke-width: 3; stroke-linecap: square"/>
   </g>
   <g id="LineCollection_1">
    <path d="M 60.924027 61.23732 
L 60.924027 51.981635 
" clip-path="url(#pe1273d01fa)" style="fill: none; stroke: #000000; stroke-width: 1.5"/>
    <path d="M 80.227388 60.323518 
L 80.227388 51.233417 
" clip-path="url(#pe1273d01fa)" style="fill: none; stroke: #000000; stroke-width: 1.5"/>
    <path d="M 128.655119 60.293294 
L 128.655119 49.480387 
" clip-path="url(#pe1273d01fa)" style="fill: none; stroke: #000000; stroke-width: 1.5"/>
    <path d="M 135.653999 58.432281 
L 135.653999 47.167991 
" clip-path="url(#pe1273d01fa)" style="fill: none; stroke: #000000; stroke-width: 1.5"/>
    <path d="M 151.23215 45.283559 
L 151.23215 8.578445 
" clip-path="url(#pe1273d01fa)" style="fill: none; stroke: #000000; stroke-width: 1.5"/>
    <path d="M 165.229909 58.93309 
L 165.229909 48.249041 
" clip-path="url(#pe1273d01fa)" style="fill: none; stroke: #000000; stroke-width: 1.5"/>
    <path d="M 175.276688 60.722789 
L 175.276688 52.530694 
" clip-path="url(#pe1273d01fa)" style="fill: none; stroke: #000000; stroke-width: 1.5"/>
    <path d="M 185.549237 60.976872 
L 185.549237 53.336721 
" clip-path="url(#pe1273d01fa)" style="fill: none; stroke: #000000; stroke-width: 1.5"/>
    <path d="M 198.531029 59.291901 
L 198.531029 49.185894 
" clip-path="url(#pe1273d01fa)" style="fill: none; stroke: #000000; stroke-width: 1.5"/>
    <path d="M 210.948396 60.803372 
L 210.948396 38.846934 
" clip-path="url(#pe1273d01fa)" style="fill: none; stroke: #000000; stroke-width: 1.5"/>
    <path d="M 220.769405 59.48529 
L 220.769405 48.785097 
" clip-path="url(#pe1273d01fa)" style="fill: none; stroke: #000000; stroke-width: 1.5"/>
    <path d="M 228.10694 61.539298 
L 228.10694 53.650702 
" clip-path="url(#pe1273d01fa)" style="fill: none; stroke: #000000; stroke-width: 1.5"/>
    <path d="M 240.185651 60.243931 
L 240.185651 50.640686 
" clip-path="url(#pe1273d01fa)" style="fill: none; stroke: #000000; stroke-width: 1.5"/>
    <path d="M 254.070525 55.886225 
L 254.070525 43.625988 
" clip-path="url(#pe1273d01fa)" style="fill: none; stroke: #000000; stroke-width: 1.5"/>
    <path d="M 266.600777 58.79224 
L 266.600777 48.598178 
" clip-path="url(#pe1273d01fa)" style="fill: none; stroke: #000000; stroke-width: 1.5"/>
    <path d="M 280.937192 61.192436 
L 280.937192 55.503489 
" clip-path="url(#pe1273d01fa)" style="fill: none; stroke: #000000; stroke-width: 1.5"/>
    <path d="M 287.823186 60.761394 
L 287.823186 52.465354 
" clip-path="url(#pe1273d01fa)" style="fill: none; stroke: #000000; stroke-width: 1.5"/>
    <path d="M 298.885931 57.50938 
L 298.885931 43.925446 
" clip-path="url(#pe1273d01fa)" style="fill: none; stroke: #000000; stroke-width: 1.5"/>
    <path d="M 305.771926 59.479329 
L 305.771926 50.401227 
" clip-path="url(#pe1273d01fa)" style="fill: none; stroke: #000000; stroke-width: 1.5"/>
    <path d="M 312.996576 58.717787 
L 312.996576 49.477404 
" clip-path="url(#pe1273d01fa)" style="fill: none; stroke: #000000; stroke-width: 1.5"/>
    <path d="M 321.575847 59.728393 
L 321.575847 48.870694 
" clip-path="url(#pe1273d01fa)" style="fill: none; stroke: #000000; stroke-width: 1.5"/>
    <path d="M 332.412822 60.524597 
L 332.412822 52.081484 
" clip-path="url(#pe1273d01fa)" style="fill: none; stroke: #000000; stroke-width: 1.5"/>
    <path d="M 339.976127 60.891292 
L 339.976127 51.847756 
" clip-path="url(#pe1273d01fa)" style="fill: none; stroke: #000000; stroke-width: 1.5"/>
    <path d="M 347.539433 60.93655 
L 347.539433 52.230677 
" clip-path="url(#pe1273d01fa)" style="fill: none; stroke: #000000; stroke-width: 1.5"/>
    <path d="M 358.489293 61.56 
L 358.489293 55.345287 
" clip-path="url(#pe1273d01fa)" style="fill: none; stroke: #000000; stroke-width: 1.5"/>
    <path d="M 367.520105 58.320336 
L 367.520105 46.606562 
" clip-path="url(#pe1273d01fa)" style="fill: none; stroke: #000000; stroke-width: 1.5"/>
    <path d="M 378.244195 58.317695 
L 378.244195 45.601347 
" clip-path="url(#pe1273d01fa)" style="fill: none; stroke: #000000; stroke-width: 1.5"/>
   </g>
   <g id="line2d_11">
    <defs>
     <path id="m1763d3031d" d="M 3 0 
L -3 -0 
" style="stroke: #000000"/>
    </defs>
    <g clip-path="url(#pe1273d01fa)">
     <use xlink:href="#m1763d3031d" x="60.924027" y="61.23732" style="stroke: #000000"/>
     <use xlink:href="#m1763d3031d" x="80.227388" y="60.323518" style="stroke: #000000"/>
     <use xlink:href="#m1763d3031d" x="128.655119" y="60.293294" style="stroke: #000000"/>
     <use xlink:href="#m1763d3031d" x="135.653999" y="58.432281" style="stroke: #000000"/>
     <use xlink:href="#m1763d3031d" x="151.23215" y="45.283559" style="stroke: #000000"/>
     <use xlink:href="#m1763d3031d" x="165.229909" y="58.93309" style="stroke: #000000"/>
     <use xlink:href="#m1763d3031d" x="175.276688" y="60.722789" style="stroke: #000000"/>
     <use xlink:href="#m1763d3031d" x="185.549237" y="60.976872" style="stroke: #000000"/>
     <use xlink:href="#m1763d3031d" x="198.531029" y="59.291901" style="stroke: #000000"/>
     <use xlink:href="#m1763d3031d" x="210.948396" y="60.803372" style="stroke: #000000"/>
     <use xlink:href="#m1763d3031d" x="220.769405" y="59.48529" style="stroke: #000000"/>
     <use xlink:href="#m1763d3031d" x="228.10694" y="61.539298" style="stroke: #000000"/>
     <use xlink:href="#m1763d3031d" x="240.185651" y="60.243931" style="stroke: #000000"/>
     <use xlink:href="#m1763d3031d" x="254.070525" y="55.886225" style="stroke: #000000"/>
     <use xlink:href="#m1763d3031d" x="266.600777" y="58.79224" style="stroke: #000000"/>
     <use xlink:href="#m1763d3031d" x="280.937192" y="61.192436" style="stroke: #000000"/>
     <use xlink:href="#m1763d3031d" x="287.823186" y="60.761394" style="stroke: #000000"/>
     <use xlink:href="#m1763d3031d" x="298.885931" y="57.50938" style="stroke: #000000"/>
     <use xlink:href="#m1763d3031d" x="305.771926" y="59.479329" style="stroke: #000000"/>
     <use xlink:href="#m1763d3031d" x="312.996576" y="58.717787" style="stroke: #000000"/>
     <use xlink:href="#m1763d3031d" x="321.575847" y="59.728393" style="stroke: #000000"/>
     <use xlink:href="#m1763d3031d" x="332.412822" y="60.524597" style="stroke: #000000"/>
     <use xlink:href="#m1763d3031d" x="339.976127" y="60.891292" style="stroke: #000000"/>
     <use xlink:href="#m1763d3031d" x="347.539433" y="60.93655" style="stroke: #000000"/>
     <use xlink:href="#m1763d3031d" x="358.489293" y="61.56" style="stroke: #000000"/>
     <use xlink:href="#m1763d3031d" x="367.520105" y="58.320336" style="stroke: #000000"/>
     <use xlink:href="#m1763d3031d" x="378.244195" y="58.317695" style="stroke: #000000"/>
    </g>
   </g>
   <g id="line2d_12">
    <g clip-path="url(#pe1273d01fa)">
     <use xlink:href="#m1763d3031d" x="60.924027" y="51.981635" style="stroke: #000000"/>
     <use xlink:href="#m1763d3031d" x="80.227388" y="51.233417" style="stroke: #000000"/>
     <use xlink:href="#m1763d3031d" x="128.655119" y="49.480387" style="stroke: #000000"/>
     <use xlink:href="#m1763d3031d" x="135.653999" y="47.167991" style="stroke: #000000"/>
     <use xlink:href="#m1763d3031d" x="151.23215" y="8.578445" style="stroke: #000000"/>
     <use xlink:href="#m1763d3031d" x="165.229909" y="48.249041" style="stroke: #000000"/>
     <use xlink:href="#m1763d3031d" x="175.276688" y="52.530694" style="stroke: #000000"/>
     <use xlink:href="#m1763d3031d" x="185.549237" y="53.336721" style="stroke: #000000"/>
     <use xlink:href="#m1763d3031d" x="198.531029" y="49.185894" style="stroke: #000000"/>
     <use xlink:href="#m1763d3031d" x="210.948396" y="38.846934" style="stroke: #000000"/>
     <use xlink:href="#m1763d3031d" x="220.769405" y="48.785097" style="stroke: #000000"/>
     <use xlink:href="#m1763d3031d" x="228.10694" y="53.650702" style="stroke: #000000"/>
     <use xlink:href="#m1763d3031d" x="240.185651" y="50.640686" style="stroke: #000000"/>
     <use xlink:href="#m1763d3031d" x="254.070525" y="43.625988" style="stroke: #000000"/>
     <use xlink:href="#m1763d3031d" x="266.600777" y="48.598178" style="stroke: #000000"/>
     <use xlink:href="#m1763d3031d" x="280.937192" y="55.503489" style="stroke: #000000"/>
     <use xlink:href="#m1763d3031d" x="287.823186" y="52.465354" style="stroke: #000000"/>
     <use xlink:href="#m1763d3031d" x="298.885931" y="43.925446" style="stroke: #000000"/>
     <use xlink:href="#m1763d3031d" x="305.771926" y="50.401227" style="stroke: #000000"/>
     <use xlink:href="#m1763d3031d" x="312.996576" y="49.477404" style="stroke: #000000"/>
     <use xlink:href="#m1763d3031d" x="321.575847" y="48.870694" style="stroke: #000000"/>
     <use xlink:href="#m1763d3031d" x="332.412822" y="52.081484" style="stroke: #000000"/>
     <use xlink:href="#m1763d3031d" x="339.976127" y="51.847756" style="stroke: #000000"/>
     <use xlink:href="#m1763d3031d" x="347.539433" y="52.230677" style="stroke: #000000"/>
     <use xlink:href="#m1763d3031d" x="358.489293" y="55.345287" style="stroke: #000000"/>
     <use xlink:href="#m1763d3031d" x="367.520105" y="46.606562" style="stroke: #000000"/>
     <use xlink:href="#m1763d3031d" x="378.244195" y="45.601347" style="stroke: #000000"/>
    </g>
   </g>
   <g id="line2d_13"/>
   <g id="patch_3">
    <path d="M 23.1075 61.56 
L 23.1075 7.2 
" style="fill: none; stroke: #000000; stroke-width: 0.8; stroke-linejoin: miter; stroke-linecap: square"/>
   </g>
   <g id="patch_4">
    <path d="M 23.1075 60.348675 
L 385.8075 60.348675 
" style="fill: none; stroke: #000000; stroke-width: 0.8; stroke-linejoin: miter; stroke-linecap: square"/>
   </g>
  </g>
 </g>
 <defs>
  <clipPath id="pe1273d01fa">
   <rect x="23.1075" y="7.2" width="362.7" height="54.36"/>
  </clipPath>
 </defs>
</svg>
