<?xml version="1.0" encoding="utf-8" standalone="no"?>
<!DOCTYPE svg PUBLIC "-//W3C//DTD SVG 1.1//EN"
  "http://www.w3.org/Graphics/SVG/1.1/DTD/svg11.dtd">
<svg xmlns:xlink="http://www.w3.org/1999/xlink" width="393.0075pt" height="78.243109pt" viewBox="0 0 393.0075 78.243109" xmlns="http://www.w3.org/2000/svg" version="1.1">
 <metadata>
  <rdf:RDF xmlns:dc="http://purl.org/dc/elements/1.1/" xmlns:cc="http://creativecommons.org/ns#" xmlns:rdf="http://www.w3.org/1999/02/22-rdf-syntax-ns#">
   <cc:Work>
    <dc:type rdf:resource="http://purl.org/dc/dcmitype/StillImage"/>
    <dc:date>2024-05-24T10:51:13.665158</dc:date>
    <dc:format>image/svg+xml</dc:format>
    <dc:creator>
     <cc:Agent>
      <dc:title>Matplotlib v3.5.1, https://matplotlib.org/</dc:title>
     </cc:Agent>
    </dc:creator>
   </cc:Work>
  </rdf:RDF>
 </metadata>
 <defs>
  <style type="text/css">*{stroke-linejoin: round; stroke-linecap: butt}</style>
 </defs>
 <g id="figure_1">
  <g id="patch_1">
   <path d="M 0 78.243109 
L 393.0075 78.243109 
L 393.0075 0 
L 0 0 
z
" style="fill: #ffffff"/>
  </g>
  <g id="axes_1">
   <g id="patch_2">
    <path d="M 23.1075 61.56 
L 385.8075 61.56 
L 385.8075 7.2 
L 23.1075 7.2 
z
" style="fill: #ffffff"/>
   </g>
   <g id="matplotlib.axis_1">
    <g id="xtick_1">
     <g id="line2d_1">
      <defs>
       <path id="m52bf305092" d="M 0 0 
L 0 3.5 
" style="stroke: #000000; stroke-width: 0.8"/>
      </defs>
      <g>
       <use xlink:href="#m52bf305092" x="23.1075" y="57.268421" style="stroke: #000000; stroke-width: 0.8"/>
      </g>
     </g>
     <g id="text_1">
      <!-- 0 -->
      <g transform="translate(20.880625 69.587327)scale(0.07 -0.07)">
       <defs>
        <path id="DejaVuSans-30" d="M 2034 4250 
Q 1547 4250 1301 3770 
Q 1056 3291 1056 2328 
Q 1056 1369 1301 889 
Q 1547 409 2034 409 
Q 2525 409 2770 889 
Q 3016 1369 3016 2328 
Q 3016 3291 2770 3770 
Q 2525 4250 2034 4250 
z
M 2034 4750 
Q 2819 4750 3233 4129 
Q 3647 3509 3647 2328 
Q 3647 1150 3233 529 
Q 2819 -91 2034 -91 
Q 1250 -91 836 529 
Q 422 1150 422 2328 
Q 422 3509 836 4129 
Q 1250 4750 2034 4750 
z
" transform="scale(0.015625)"/>
       </defs>
       <use xlink:href="#DejaVuSans-30"/>
      </g>
     </g>
    </g>
    <g id="xtick_2">
     <g id="line2d_2">
      <g>
       <use xlink:href="#m52bf305092" x="70.894061" y="57.268421" style="stroke: #000000; stroke-width: 0.8"/>
      </g>
     </g>
     <g id="text_2">
      <!-- 500 -->
      <g transform="translate(64.213436 69.587327)scale(0.07 -0.07)">
       <defs>
        <path id="DejaVuSans-35" d="M 691 4666 
L 3169 4666 
L 3169 4134 
L 1269 4134 
L 1269 2991 
Q 1406 3038 1543 3061 
Q 1681 3084 1819 3084 
Q 2600 3084 3056 2656 
Q 3513 2228 3513 1497 
Q 3513 744 3044 326 
Q 2575 -91 1722 -91 
Q 1428 -91 1123 -41 
Q 819 9 494 109 
L 494 744 
Q 775 591 1075 516 
Q 1375 441 1709 441 
Q 2250 441 2565 725 
Q 2881 1009 2881 1497 
Q 2881 1984 2565 2268 
Q 2250 2553 1709 2553 
Q 1456 2553 1204 2497 
Q 953 2441 691 2322 
L 691 4666 
z
" transform="scale(0.015625)"/>
       </defs>
       <use xlink:href="#DejaVuSans-35"/>
       <use xlink:href="#DejaVuSans-30" x="63.623047"/>
       <use xlink:href="#DejaVuSans-30" x="127.246094"/>
      </g>
     </g>
    </g>
    <g id="xtick_3">
     <g id="line2d_3">
      <g>
       <use xlink:href="#m52bf305092" x="118.680623" y="57.268421" style="stroke: #000000; stroke-width: 0.8"/>
      </g>
     </g>
     <g id="text_3">
      <!-- 1000 -->
      <g transform="translate(109.773123 69.587327)scale(0.07 -0.07)">
       <defs>
        <path id="DejaVuSans-31" d="M 794 531 
L 1825 531 
L 1825 4091 
L 703 3866 
L 703 4441 
L 1819 4666 
L 2450 4666 
L 2450 531 
L 3481 531 
L 3481 0 
L 794 0 
L 794 531 
z
" transform="scale(0.015625)"/>
       </defs>
       <use xlink:href="#DejaVuSans-31"/>
       <use xlink:href="#DejaVuSans-30" x="63.623047"/>
       <use xlink:href="#DejaVuSans-30" x="127.246094"/>
       <use xlink:href="#DejaVuSans-30" x="190.869141"/>
      </g>
     </g>
    </g>
    <g id="xtick_4">
     <g id="line2d_4">
      <g>
       <use xlink:href="#m52bf305092" x="166.467184" y="57.268421" style="stroke: #000000; stroke-width: 0.8"/>
      </g>
     </g>
     <g id="text_4">
      <!-- 1500 -->
      <g transform="translate(157.559684 69.587327)scale(0.07 -0.07)">
       <use xlink:href="#DejaVuSans-31"/>
       <use xlink:href="#DejaVuSans-35" x="63.623047"/>
       <use xlink:href="#DejaVuSans-30" x="127.246094"/>
       <use xlink:href="#DejaVuSans-30" x="190.869141"/>
      </g>
     </g>
    </g>
    <g id="xtick_5">
     <g id="line2d_5">
      <g>
       <use xlink:href="#m52bf305092" x="214.253745" y="57.268421" style="stroke: #000000; stroke-width: 0.8"/>
      </g>
     </g>
     <g id="text_5">
      <!-- 2000 -->
      <g transform="translate(205.346245 69.587327)scale(0.07 -0.07)">
       <defs>
        <path id="DejaVuSans-32" d="M 1228 531 
L 3431 531 
L 3431 0 
L 469 0 
L 469 531 
Q 828 903 1448 1529 
Q 2069 2156 2228 2338 
Q 2531 2678 2651 2914 
Q 2772 3150 2772 3378 
Q 2772 3750 2511 3984 
Q 2250 4219 1831 4219 
Q 1534 4219 1204 4116 
Q 875 4013 500 3803 
L 500 4441 
Q 881 4594 1212 4672 
Q 1544 4750 1819 4750 
Q 2544 4750 2975 4387 
Q 3406 4025 3406 3419 
Q 3406 3131 3298 2873 
Q 3191 2616 2906 2266 
Q 2828 2175 2409 1742 
Q 1991 1309 1228 531 
z
" transform="scale(0.015625)"/>
       </defs>
       <use xlink:href="#DejaVuSans-32"/>
       <use xlink:href="#DejaVuSans-30" x="63.623047"/>
       <use xlink:href="#DejaVuSans-30" x="127.246094"/>
       <use xlink:href="#DejaVuSans-30" x="190.869141"/>
      </g>
     </g>
    </g>
    <g id="xtick_6">
     <g id="line2d_6">
      <g>
       <use xlink:href="#m52bf305092" x="262.040306" y="57.268421" style="stroke: #000000; stroke-width: 0.8"/>
      </g>
     </g>
     <g id="text_6">
      <!-- 2500 -->
      <g transform="translate(253.132806 69.587327)scale(0.07 -0.07)">
       <use xlink:href="#DejaVuSans-32"/>
       <use xlink:href="#DejaVuSans-35" x="63.623047"/>
       <use xlink:href="#DejaVuSans-30" x="127.246094"/>
       <use xlink:href="#DejaVuSans-30" x="190.869141"/>
      </g>
     </g>
    </g>
    <g id="xtick_7">
     <g id="line2d_7">
      <g>
       <use xlink:href="#m52bf305092" x="309.826868" y="57.268421" style="stroke: #000000; stroke-width: 0.8"/>
      </g>
     </g>
     <g id="text_7">
      <!-- 3000 -->
      <g transform="translate(300.919368 69.587327)scale(0.07 -0.07)">
       <defs>
        <path id="DejaVuSans-33" d="M 2597 2516 
Q 3050 2419 3304 2112 
Q 3559 1806 3559 1356 
Q 3559 666 3084 287 
Q 2609 -91 1734 -91 
Q 1441 -91 1130 -33 
Q 819 25 488 141 
L 488 750 
Q 750 597 1062 519 
Q 1375 441 1716 441 
Q 2309 441 2620 675 
Q 2931 909 2931 1356 
Q 2931 1769 2642 2001 
Q 2353 2234 1838 2234 
L 1294 2234 
L 1294 2753 
L 1863 2753 
Q 2328 2753 2575 2939 
Q 2822 3125 2822 3475 
Q 2822 3834 2567 4026 
Q 2313 4219 1838 4219 
Q 1578 4219 1281 4162 
Q 984 4106 628 3988 
L 628 4550 
Q 988 4650 1302 4700 
Q 1616 4750 1894 4750 
Q 2613 4750 3031 4423 
Q 3450 4097 3450 3541 
Q 3450 3153 3228 2886 
Q 3006 2619 2597 2516 
z
" transform="scale(0.015625)"/>
       </defs>
       <use xlink:href="#DejaVuSans-33"/>
       <use xlink:href="#DejaVuSans-30" x="63.623047"/>
       <use xlink:href="#DejaVuSans-30" x="127.246094"/>
       <use xlink:href="#DejaVuSans-30" x="190.869141"/>
      </g>
     </g>
    </g>
    <g id="xtick_8">
     <g id="line2d_8">
      <g>
       <use xlink:href="#m52bf305092" x="357.613429" y="57.268421" style="stroke: #000000; stroke-width: 0.8"/>
      </g>
     </g>
     <g id="text_8">
      <!-- 3500 -->
      <g transform="translate(348.705929 69.587327)scale(0.07 -0.07)">
       <use xlink:href="#DejaVuSans-33"/>
       <use xlink:href="#DejaVuSans-35" x="63.623047"/>
       <use xlink:href="#DejaVuSans-30" x="127.246094"/>
       <use xlink:href="#DejaVuSans-30" x="190.869141"/>
      </g>
     </g>
    </g>
   </g>
   <g id="matplotlib.axis_2">
    <g id="ytick_1">
     <g id="line2d_9">
      <defs>
       <path id="mb063fee7db" d="M 0 0 
L -3.5 0 
" style="stroke: #000000; stroke-width: 0.8"/>
      </defs>
      <g>
       <use xlink:href="#mb063fee7db" x="23.1075" y="57.268421" style="stroke: #000000; stroke-width: 0.8"/>
      </g>
     </g>
     <g id="text_9">
      <!-- 0 -->
      <g transform="translate(11.65375 59.927874)scale(0.07 -0.07)">
       <use xlink:href="#DejaVuSans-30"/>
      </g>
     </g>
    </g>
    <g id="ytick_2">
     <g id="line2d_10">
      <g>
       <use xlink:href="#mb063fee7db" x="23.1075" y="28.657895" style="stroke: #000000; stroke-width: 0.8"/>
      </g>
     </g>
     <g id="text_10">
      <!-- 20 -->
      <g transform="translate(7.2 31.317348)scale(0.07 -0.07)">
       <use xlink:href="#DejaVuSans-32"/>
       <use xlink:href="#DejaVuSans-30" x="63.623047"/>
      </g>
     </g>
    </g>
   </g>
   <g id="line2d_11">
    <path d="M 58.278409 51.52587 
L 103.00663 57.066445 
L 116.386868 56.622099 
L 124.510583 57.170683 
L 137.508528 55.254645 
L 145.727816 56.842192 
L 153.851532 55.664481 
L 161.592955 54.183486 
L 175.54663 55.881266 
L 183.096907 56.010668 
L 189.30916 56.656664 
L 197.241729 56.976349 
L 203.07169 56.816872 
L 211.290978 56.430178 
L 220.848291 56.95362 
L 228.876433 57.263865 
L 240.823073 57.062804 
L 248.37335 56.634173 
L 256.688211 56.86168 
L 274.273666 55.8515 
L 280.581492 52.789549 
L 291.476828 56.675292 
L 297.689081 48.082249 
L 303.710188 52.698025 
L 309.540148 56.882564 
L 321.964654 56.618755 
L 331.61754 57.126279 
L 344.615484 56.471577 
L 353.408211 55.881824 
L 362.392085 56.846673 
L 370.324654 57.172412 
" clip-path="url(#p1bdb2f7e34)" style="fill: none; stroke: #0000ff; stroke-width: 3; stroke-linecap: square"/>
   </g>
   <g id="LineCollection_1">
    <path d="M 58.278409 56.334108 
L 58.278409 46.717633 
" clip-path="url(#p1bdb2f7e34)" style="fill: none; stroke: #000000; stroke-width: 1.5"/>
    <path d="M 103.00663 57.888427 
L 103.00663 56.244463 
" clip-path="url(#p1bdb2f7e34)" style="fill: none; stroke: #000000; stroke-width: 1.5"/>
    <path d="M 116.386868 58.367194 
L 116.386868 54.877004 
" clip-path="url(#p1bdb2f7e34)" style="fill: none; stroke: #000000; stroke-width: 1.5"/>
    <path d="M 124.510583 57.630386 
L 124.510583 56.710979 
" clip-path="url(#p1bdb2f7e34)" style="fill: none; stroke: #000000; stroke-width: 1.5"/>
    <path d="M 137.508528 57.365194 
L 137.508528 53.144097 
" clip-path="url(#p1bdb2f7e34)" style="fill: none; stroke: #000000; stroke-width: 1.5"/>
    <path d="M 145.727816 58.02002 
L 145.727816 55.664365 
" clip-path="url(#p1bdb2f7e34)" style="fill: none; stroke: #000000; stroke-width: 1.5"/>
    <path d="M 153.851532 58.806518 
L 153.851532 52.522444 
" clip-path="url(#p1bdb2f7e34)" style="fill: none; stroke: #000000; stroke-width: 1.5"/>
    <path d="M 161.592955 59.111219 
L 161.592955 49.255753 
" clip-path="url(#p1bdb2f7e34)" style="fill: none; stroke: #000000; stroke-width: 1.5"/>
    <path d="M 175.54663 59.133215 
L 175.54663 52.629317 
" clip-path="url(#p1bdb2f7e34)" style="fill: none; stroke: #000000; stroke-width: 1.5"/>
    <path d="M 183.096907 57.843094 
L 183.096907 54.178241 
" clip-path="url(#p1bdb2f7e34)" style="fill: none; stroke: #000000; stroke-width: 1.5"/>
    <path d="M 189.30916 57.975853 
L 189.30916 55.337475 
" clip-path="url(#p1bdb2f7e34)" style="fill: none; stroke: #000000; stroke-width: 1.5"/>
    <path d="M 197.241729 57.969651 
L 197.241729 55.983047 
" clip-path="url(#p1bdb2f7e34)" style="fill: none; stroke: #000000; stroke-width: 1.5"/>
    <path d="M 203.07169 58.087272 
L 203.07169 55.546471 
" clip-path="url(#p1bdb2f7e34)" style="fill: none; stroke: #000000; stroke-width: 1.5"/>
    <path d="M 211.290978 58.642973 
L 211.290978 54.217383 
" clip-path="url(#p1bdb2f7e34)" style="fill: none; stroke: #000000; stroke-width: 1.5"/>
    <path d="M 220.848291 57.676438 
L 220.848291 56.230802 
" clip-path="url(#p1bdb2f7e34)" style="fill: none; stroke: #000000; stroke-width: 1.5"/>
    <path d="M 228.876433 57.332955 
L 228.876433 57.194776 
" clip-path="url(#p1bdb2f7e34)" style="fill: none; stroke: #000000; stroke-width: 1.5"/>
    <path d="M 240.823073 57.86265 
L 240.823073 56.262957 
" clip-path="url(#p1bdb2f7e34)" style="fill: none; stroke: #000000; stroke-width: 1.5"/>
    <path d="M 248.37335 57.905504 
L 248.37335 55.362841 
" clip-path="url(#p1bdb2f7e34)" style="fill: none; stroke: #000000; stroke-width: 1.5"/>
    <path d="M 256.688211 57.874068 
L 256.688211 55.849291 
" clip-path="url(#p1bdb2f7e34)" style="fill: none; stroke: #000000; stroke-width: 1.5"/>
    <path d="M 274.273666 58.223031 
L 274.273666 53.479968 
" clip-path="url(#p1bdb2f7e34)" style="fill: none; stroke: #000000; stroke-width: 1.5"/>
    <path d="M 280.581492 56.708141 
L 280.581492 48.870956 
" clip-path="url(#p1bdb2f7e34)" style="fill: none; stroke: #000000; stroke-width: 1.5"/>
    <path d="M 291.476828 58.71753 
L 291.476828 54.633054 
" clip-path="url(#p1bdb2f7e34)" style="fill: none; stroke: #000000; stroke-width: 1.5"/>
    <path d="M 297.689081 55.201568 
L 297.689081 40.962931 
" clip-path="url(#p1bdb2f7e34)" style="fill: none; stroke: #000000; stroke-width: 1.5"/>
    <path d="M 303.710188 56.145841 
L 303.710188 49.250208 
" clip-path="url(#p1bdb2f7e34)" style="fill: none; stroke: #000000; stroke-width: 1.5"/>
    <path d="M 309.540148 58.065645 
L 309.540148 55.699483 
" clip-path="url(#p1bdb2f7e34)" style="fill: none; stroke: #000000; stroke-width: 1.5"/>
    <path d="M 321.964654 57.987474 
L 321.964654 55.250036 
" clip-path="url(#p1bdb2f7e34)" style="fill: none; stroke: #000000; stroke-width: 1.5"/>
    <path d="M 331.61754 57.621593 
L 331.61754 56.630965 
" clip-path="url(#p1bdb2f7e34)" style="fill: none; stroke: #000000; stroke-width: 1.5"/>
    <path d="M 344.615484 57.793492 
L 344.615484 55.149662 
" clip-path="url(#p1bdb2f7e34)" style="fill: none; stroke: #000000; stroke-width: 1.5"/>
    <path d="M 353.408211 58.400276 
L 353.408211 53.363372 
" clip-path="url(#p1bdb2f7e34)" style="fill: none; stroke: #000000; stroke-width: 1.5"/>
    <path d="M 362.392085 57.692756 
L 362.392085 56.00059 
" clip-path="url(#p1bdb2f7e34)" style="fill: none; stroke: #000000; stroke-width: 1.5"/>
    <path d="M 370.324654 57.569399 
L 370.324654 56.775424 
" clip-path="url(#p1bdb2f7e34)" style="fill: none; stroke: #000000; stroke-width: 1.5"/>
   </g>
   <g id="line2d_12">
    <defs>
     <path id="md48caad225" d="M 3 0 
L -3 -0 
" style="stroke: #000000"/>
    </defs>
    <g clip-path="url(#p1bdb2f7e34)">
     <use xlink:href="#md48caad225" x="58.278409" y="56.334108" style="stroke: #000000"/>
     <use xlink:href="#md48caad225" x="103.00663" y="57.888427" style="stroke: #000000"/>
     <use xlink:href="#md48caad225" x="116.386868" y="58.367194" style="stroke: #000000"/>
     <use xlink:href="#md48caad225" x="124.510583" y="57.630386" style="stroke: #000000"/>
     <use xlink:href="#md48caad225" x="137.508528" y="57.365194" style="stroke: #000000"/>
     <use xlink:href="#md48caad225" x="145.727816" y="58.02002" style="stroke: #000000"/>
     <use xlink:href="#md48caad225" x="153.851532" y="58.806518" style="stroke: #000000"/>
     <use xlink:href="#md48caad225" x="161.592955" y="59.111219" style="stroke: #000000"/>
     <use xlink:href="#md48caad225" x="175.54663" y="59.133215" style="stroke: #000000"/>
     <use xlink:href="#md48caad225" x="183.096907" y="57.843094" style="stroke: #000000"/>
     <use xlink:href="#md48caad225" x="189.30916" y="57.975853" style="stroke: #000000"/>
     <use xlink:href="#md48caad225" x="197.241729" y="57.969651" style="stroke: #000000"/>
     <use xlink:href="#md48caad225" x="203.07169" y="58.087272" style="stroke: #000000"/>
     <use xlink:href="#md48caad225" x="211.290978" y="58.642973" style="stroke: #000000"/>
     <use xlink:href="#md48caad225" x="220.848291" y="57.676438" style="stroke: #000000"/>
     <use xlink:href="#md48caad225" x="228.876433" y="57.332955" style="stroke: #000000"/>
     <use xlink:href="#md48caad225" x="240.823073" y="57.86265" style="stroke: #000000"/>
     <use xlink:href="#md48caad225" x="248.37335" y="57.905504" style="stroke: #000000"/>
     <use xlink:href="#md48caad225" x="256.688211" y="57.874068" style="stroke: #000000"/>
     <use xlink:href="#md48caad225" x="274.273666" y="58.223031" style="stroke: #000000"/>
     <use xlink:href="#md48caad225" x="280.581492" y="56.708141" style="stroke: #000000"/>
     <use xlink:href="#md48caad225" x="291.476828" y="58.71753" style="stroke: #000000"/>
     <use xlink:href="#md48caad225" x="297.689081" y="55.201568" style="stroke: #000000"/>
     <use xlink:href="#md48caad225" x="303.710188" y="56.145841" style="stroke: #000000"/>
     <use xlink:href="#md48caad225" x="309.540148" y="58.065645" style="stroke: #000000"/>
     <use xlink:href="#md48caad225" x="321.964654" y="57.987474" style="stroke: #000000"/>
     <use xlink:href="#md48caad225" x="331.61754" y="57.621593" style="stroke: #000000"/>
     <use xlink:href="#md48caad225" x="344.615484" y="57.793492" style="stroke: #000000"/>
     <use xlink:href="#md48caad225" x="353.408211" y="58.400276" style="stroke: #000000"/>
     <use xlink:href="#md48caad225" x="362.392085" y="57.692756" style="stroke: #000000"/>
     <use xlink:href="#md48caad225" x="370.324654" y="57.569399" style="stroke: #000000"/>
    </g>
   </g>
   <g id="line2d_13">
    <g clip-path="url(#p1bdb2f7e34)">
     <use xlink:href="#md48caad225" x="58.278409" y="46.717633" style="stroke: #000000"/>
     <use xlink:href="#md48caad225" x="103.00663" y="56.244463" style="stroke: #000000"/>
     <use xlink:href="#md48caad225" x="116.386868" y="54.877004" style="stroke: #000000"/>
     <use xlink:href="#md48caad225" x="124.510583" y="56.710979" style="stroke: #000000"/>
     <use xlink:href="#md48caad225" x="137.508528" y="53.144097" style="stroke: #000000"/>
     <use xlink:href="#md48caad225" x="145.727816" y="55.664365" style="stroke: #000000"/>
     <use xlink:href="#md48caad225" x="153.851532" y="52.522444" style="stroke: #000000"/>
     <use xlink:href="#md48caad225" x="161.592955" y="49.255753" style="stroke: #000000"/>
     <use xlink:href="#md48caad225" x="175.54663" y="52.629317" style="stroke: #000000"/>
     <use xlink:href="#md48caad225" x="183.096907" y="54.178241" style="stroke: #000000"/>
     <use xlink:href="#md48caad225" x="189.30916" y="55.337475" style="stroke: #000000"/>
     <use xlink:href="#md48caad225" x="197.241729" y="55.983047" style="stroke: #000000"/>
     <use xlink:href="#md48caad225" x="203.07169" y="55.546471" style="stroke: #000000"/>
     <use xlink:href="#md48caad225" x="211.290978" y="54.217383" style="stroke: #000000"/>
     <use xlink:href="#md48caad225" x="220.848291" y="56.230802" style="stroke: #000000"/>
     <use xlink:href="#md48caad225" x="228.876433" y="57.194776" style="stroke: #000000"/>
     <use xlink:href="#md48caad225" x="240.823073" y="56.262957" style="stroke: #000000"/>
     <use xlink:href="#md48caad225" x="248.37335" y="55.362841" style="stroke: #000000"/>
     <use xlink:href="#md48caad225" x="256.688211" y="55.849291" style="stroke: #000000"/>
     <use xlink:href="#md48caad225" x="274.273666" y="53.479968" style="stroke: #000000"/>
     <use xlink:href="#md48caad225" x="280.581492" y="48.870956" style="stroke: #000000"/>
     <use xlink:href="#md48caad225" x="291.476828" y="54.633054" style="stroke: #000000"/>
     <use xlink:href="#md48caad225" x="297.689081" y="40.962931" style="stroke: #000000"/>
     <use xlink:href="#md48caad225" x="303.710188" y="49.250208" style="stroke: #000000"/>
     <use xlink:href="#md48caad225" x="309.540148" y="55.699483" style="stroke: #000000"/>
     <use xlink:href="#md48caad225" x="321.964654" y="55.250036" style="stroke: #000000"/>
     <use xlink:href="#md48caad225" x="331.61754" y="56.630965" style="stroke: #000000"/>
     <use xlink:href="#md48caad225" x="344.615484" y="55.149662" style="stroke: #000000"/>
     <use xlink:href="#md48caad225" x="353.408211" y="53.363372" style="stroke: #000000"/>
     <use xlink:href="#md48caad225" x="362.392085" y="56.00059" style="stroke: #000000"/>
     <use xlink:href="#md48caad225" x="370.324654" y="56.775424" style="stroke: #000000"/>
    </g>
   </g>
   <g id="line2d_14"/>
   <g id="patch_3">
    <path d="M 23.1075 61.56 
L 23.1075 7.2 
" style="fill: none; stroke: #000000; stroke-width: 0.8; stroke-linejoin: miter; stroke-linecap: square"/>
   </g>
   <g id="patch_4">
    <path d="M 23.1075 57.268421 
L 385.8075 57.268421 
" style="fill: none; stroke: #000000; stroke-width: 0.8; stroke-linejoin: miter; stroke-linecap: square"/>
   </g>
  </g>
 </g>
 <defs>
  <clipPath id="p1bdb2f7e34">
   <rect x="23.1075" y="7.2" width="362.7" height="54.36"/>
  </clipPath>
 </defs>
</svg>
