<?xml version="1.0" encoding="utf-8" standalone="no"?>
<!DOCTYPE svg PUBLIC "-//W3C//DTD SVG 1.1//EN"
  "http://www.w3.org/Graphics/SVG/1.1/DTD/svg11.dtd">
<svg xmlns:xlink="http://www.w3.org/1999/xlink" width="393.0075pt" height="77.167081pt" viewBox="0 0 393.0075 77.167081" xmlns="http://www.w3.org/2000/svg" version="1.1">
 <metadata>
  <rdf:RDF xmlns:dc="http://purl.org/dc/elements/1.1/" xmlns:cc="http://creativecommons.org/ns#" xmlns:rdf="http://www.w3.org/1999/02/22-rdf-syntax-ns#">
   <cc:Work>
    <dc:type rdf:resource="http://purl.org/dc/dcmitype/StillImage"/>
    <dc:date>2024-05-24T10:51:15.056219</dc:date>
    <dc:format>image/svg+xml</dc:format>
    <dc:creator>
     <cc:Agent>
      <dc:title>Matplotlib v3.5.1, https://matplotlib.org/</dc:title>
     </cc:Agent>
    </dc:creator>
   </cc:Work>
  </rdf:RDF>
 </metadata>
 <defs>
  <style type="text/css">*{stroke-linejoin: round; stroke-linecap: butt}</style>
 </defs>
 <g id="figure_1">
  <g id="patch_1">
   <path d="M 0 77.167081 
L 393.0075 77.167081 
L 393.0075 0 
L 0 0 
z
" style="fill: #ffffff"/>
  </g>
  <g id="axes_1">
   <g id="patch_2">
    <path d="M 23.1075 61.56 
L 385.8075 61.56 
L 385.8075 7.2 
L 23.1075 7.2 
z
" style="fill: #ffffff"/>
   </g>
   <g id="matplotlib.axis_1">
    <g id="xtick_1">
     <g id="line2d_1">
      <defs>
       <path id="ma2b0ceb311" d="M 0 0 
L 0 3.5 
" style="stroke: #000000; stroke-width: 0.8"/>
      </defs>
      <g>
       <use xlink:href="#ma2b0ceb311" x="23.1075" y="56.192394" style="stroke: #000000; stroke-width: 0.8"/>
      </g>
     </g>
     <g id="text_1">
      <!-- 0 -->
      <g transform="translate(20.880625 68.5113)scale(0.07 -0.07)">
       <defs>
        <path id="DejaVuSans-30" d="M 2034 4250 
Q 1547 4250 1301 3770 
Q 1056 3291 1056 2328 
Q 1056 1369 1301 889 
Q 1547 409 2034 409 
Q 2525 409 2770 889 
Q 3016 1369 3016 2328 
Q 3016 3291 2770 3770 
Q 2525 4250 2034 4250 
z
M 2034 4750 
Q 2819 4750 3233 4129 
Q 3647 3509 3647 2328 
Q 3647 1150 3233 529 
Q 2819 -91 2034 -91 
Q 1250 -91 836 529 
Q 422 1150 422 2328 
Q 422 3509 836 4129 
Q 1250 4750 2034 4750 
z
" transform="scale(0.015625)"/>
       </defs>
       <use xlink:href="#DejaVuSans-30"/>
      </g>
     </g>
    </g>
    <g id="xtick_2">
     <g id="line2d_2">
      <g>
       <use xlink:href="#ma2b0ceb311" x="70.894061" y="56.192394" style="stroke: #000000; stroke-width: 0.8"/>
      </g>
     </g>
     <g id="text_2">
      <!-- 500 -->
      <g transform="translate(64.213436 68.5113)scale(0.07 -0.07)">
       <defs>
        <path id="DejaVuSans-35" d="M 691 4666 
L 3169 4666 
L 3169 4134 
L 1269 4134 
L 1269 2991 
Q 1406 3038 1543 3061 
Q 1681 3084 1819 3084 
Q 2600 3084 3056 2656 
Q 3513 2228 3513 1497 
Q 3513 744 3044 326 
Q 2575 -91 1722 -91 
Q 1428 -91 1123 -41 
Q 819 9 494 109 
L 494 744 
Q 775 591 1075 516 
Q 1375 441 1709 441 
Q 2250 441 2565 725 
Q 2881 1009 2881 1497 
Q 2881 1984 2565 2268 
Q 2250 2553 1709 2553 
Q 1456 2553 1204 2497 
Q 953 2441 691 2322 
L 691 4666 
z
" transform="scale(0.015625)"/>
       </defs>
       <use xlink:href="#DejaVuSans-35"/>
       <use xlink:href="#DejaVuSans-30" x="63.623047"/>
       <use xlink:href="#DejaVuSans-30" x="127.246094"/>
      </g>
     </g>
    </g>
    <g id="xtick_3">
     <g id="line2d_3">
      <g>
       <use xlink:href="#ma2b0ceb311" x="118.680623" y="56.192394" style="stroke: #000000; stroke-width: 0.8"/>
      </g>
     </g>
     <g id="text_3">
      <!-- 1000 -->
      <g transform="translate(109.773123 68.5113)scale(0.07 -0.07)">
       <defs>
        <path id="DejaVuSans-31" d="M 794 531 
L 1825 531 
L 1825 4091 
L 703 3866 
L 703 4441 
L 1819 4666 
L 2450 4666 
L 2450 531 
L 3481 531 
L 3481 0 
L 794 0 
L 794 531 
z
" transform="scale(0.015625)"/>
       </defs>
       <use xlink:href="#DejaVuSans-31"/>
       <use xlink:href="#DejaVuSans-30" x="63.623047"/>
       <use xlink:href="#DejaVuSans-30" x="127.246094"/>
       <use xlink:href="#DejaVuSans-30" x="190.869141"/>
      </g>
     </g>
    </g>
    <g id="xtick_4">
     <g id="line2d_4">
      <g>
       <use xlink:href="#ma2b0ceb311" x="166.467184" y="56.192394" style="stroke: #000000; stroke-width: 0.8"/>
      </g>
     </g>
     <g id="text_4">
      <!-- 1500 -->
      <g transform="translate(157.559684 68.5113)scale(0.07 -0.07)">
       <use xlink:href="#DejaVuSans-31"/>
       <use xlink:href="#DejaVuSans-35" x="63.623047"/>
       <use xlink:href="#DejaVuSans-30" x="127.246094"/>
       <use xlink:href="#DejaVuSans-30" x="190.869141"/>
      </g>
     </g>
    </g>
    <g id="xtick_5">
     <g id="line2d_5">
      <g>
       <use xlink:href="#ma2b0ceb311" x="214.253745" y="56.192394" style="stroke: #000000; stroke-width: 0.8"/>
      </g>
     </g>
     <g id="text_5">
      <!-- 2000 -->
      <g transform="translate(205.346245 68.5113)scale(0.07 -0.07)">
       <defs>
        <path id="DejaVuSans-32" d="M 1228 531 
L 3431 531 
L 3431 0 
L 469 0 
L 469 531 
Q 828 903 1448 1529 
Q 2069 2156 2228 2338 
Q 2531 2678 2651 2914 
Q 2772 3150 2772 3378 
Q 2772 3750 2511 3984 
Q 2250 4219 1831 4219 
Q 1534 4219 1204 4116 
Q 875 4013 500 3803 
L 500 4441 
Q 881 4594 1212 4672 
Q 1544 4750 1819 4750 
Q 2544 4750 2975 4387 
Q 3406 4025 3406 3419 
Q 3406 3131 3298 2873 
Q 3191 2616 2906 2266 
Q 2828 2175 2409 1742 
Q 1991 1309 1228 531 
z
" transform="scale(0.015625)"/>
       </defs>
       <use xlink:href="#DejaVuSans-32"/>
       <use xlink:href="#DejaVuSans-30" x="63.623047"/>
       <use xlink:href="#DejaVuSans-30" x="127.246094"/>
       <use xlink:href="#DejaVuSans-30" x="190.869141"/>
      </g>
     </g>
    </g>
    <g id="xtick_6">
     <g id="line2d_6">
      <g>
       <use xlink:href="#ma2b0ceb311" x="262.040306" y="56.192394" style="stroke: #000000; stroke-width: 0.8"/>
      </g>
     </g>
     <g id="text_6">
      <!-- 2500 -->
      <g transform="translate(253.132806 68.5113)scale(0.07 -0.07)">
       <use xlink:href="#DejaVuSans-32"/>
       <use xlink:href="#DejaVuSans-35" x="63.623047"/>
       <use xlink:href="#DejaVuSans-30" x="127.246094"/>
       <use xlink:href="#DejaVuSans-30" x="190.869141"/>
      </g>
     </g>
    </g>
    <g id="xtick_7">
     <g id="line2d_7">
      <g>
       <use xlink:href="#ma2b0ceb311" x="309.826868" y="56.192394" style="stroke: #000000; stroke-width: 0.8"/>
      </g>
     </g>
     <g id="text_7">
      <!-- 3000 -->
      <g transform="translate(300.919368 68.5113)scale(0.07 -0.07)">
       <defs>
        <path id="DejaVuSans-33" d="M 2597 2516 
Q 3050 2419 3304 2112 
Q 3559 1806 3559 1356 
Q 3559 666 3084 287 
Q 2609 -91 1734 -91 
Q 1441 -91 1130 -33 
Q 819 25 488 141 
L 488 750 
Q 750 597 1062 519 
Q 1375 441 1716 441 
Q 2309 441 2620 675 
Q 2931 909 2931 1356 
Q 2931 1769 2642 2001 
Q 2353 2234 1838 2234 
L 1294 2234 
L 1294 2753 
L 1863 2753 
Q 2328 2753 2575 2939 
Q 2822 3125 2822 3475 
Q 2822 3834 2567 4026 
Q 2313 4219 1838 4219 
Q 1578 4219 1281 4162 
Q 984 4106 628 3988 
L 628 4550 
Q 988 4650 1302 4700 
Q 1616 4750 1894 4750 
Q 2613 4750 3031 4423 
Q 3450 4097 3450 3541 
Q 3450 3153 3228 2886 
Q 3006 2619 2597 2516 
z
" transform="scale(0.015625)"/>
       </defs>
       <use xlink:href="#DejaVuSans-33"/>
       <use xlink:href="#DejaVuSans-30" x="63.623047"/>
       <use xlink:href="#DejaVuSans-30" x="127.246094"/>
       <use xlink:href="#DejaVuSans-30" x="190.869141"/>
      </g>
     </g>
    </g>
    <g id="xtick_8">
     <g id="line2d_8">
      <g>
       <use xlink:href="#ma2b0ceb311" x="357.613429" y="56.192394" style="stroke: #000000; stroke-width: 0.8"/>
      </g>
     </g>
     <g id="text_8">
      <!-- 3500 -->
      <g transform="translate(348.705929 68.5113)scale(0.07 -0.07)">
       <use xlink:href="#DejaVuSans-33"/>
       <use xlink:href="#DejaVuSans-35" x="63.623047"/>
       <use xlink:href="#DejaVuSans-30" x="127.246094"/>
       <use xlink:href="#DejaVuSans-30" x="190.869141"/>
      </g>
     </g>
    </g>
   </g>
   <g id="matplotlib.axis_2">
    <g id="ytick_1">
     <g id="line2d_9">
      <defs>
       <path id="m138e0303b7" d="M 0 0 
L -3.5 0 
" style="stroke: #000000; stroke-width: 0.8"/>
      </defs>
      <g>
       <use xlink:href="#m138e0303b7" x="23.1075" y="56.192394" style="stroke: #000000; stroke-width: 0.8"/>
      </g>
     </g>
     <g id="text_9">
      <!-- 0 -->
      <g transform="translate(11.65375 58.851847)scale(0.07 -0.07)">
       <use xlink:href="#DejaVuSans-30"/>
      </g>
     </g>
    </g>
    <g id="ytick_2">
     <g id="line2d_10">
      <g>
       <use xlink:href="#m138e0303b7" x="23.1075" y="35.604319" style="stroke: #000000; stroke-width: 0.8"/>
      </g>
     </g>
     <g id="text_10">
      <!-- 5 -->
      <g transform="translate(11.65375 38.263773)scale(0.07 -0.07)">
       <use xlink:href="#DejaVuSans-35"/>
      </g>
     </g>
    </g>
    <g id="ytick_3">
     <g id="line2d_11">
      <g>
       <use xlink:href="#m138e0303b7" x="23.1075" y="15.016245" style="stroke: #000000; stroke-width: 0.8"/>
      </g>
     </g>
     <g id="text_11">
      <!-- 10 -->
      <g transform="translate(7.2 17.675698)scale(0.07 -0.07)">
       <use xlink:href="#DejaVuSans-31"/>
       <use xlink:href="#DejaVuSans-30" x="63.623047"/>
      </g>
     </g>
    </g>
   </g>
   <g id="line2d_12">
    <path d="M 58.278409 39.663085 
L 103.00663 55.611027 
L 116.386868 54.332025 
L 124.510583 55.911064 
L 137.508528 50.395958 
L 145.727816 54.965541 
L 153.851532 51.575626 
L 161.592955 47.312744 
L 175.54663 52.199618 
L 183.096907 52.572087 
L 189.30916 54.431517 
L 197.241729 55.351696 
L 203.07169 54.892658 
L 211.290978 53.779602 
L 220.848291 55.286273 
L 228.876433 56.179281 
L 240.823073 55.600546 
L 248.37335 54.366778 
L 256.688211 55.021633 
L 274.273666 52.11394 
L 280.581492 43.300446 
L 291.476828 54.485136 
L 297.689081 29.750994 
L 303.710188 43.037004 
L 309.540148 55.081746 
L 321.964654 54.322401 
L 331.61754 55.783253 
L 344.615484 53.898765 
L 353.408211 52.201224 
L 362.392085 54.978439 
L 370.324654 55.916041 
" clip-path="url(#p5398d3b2d3)" style="fill: none; stroke: #0000ff; stroke-width: 3; stroke-linecap: square"/>
   </g>
   <g id="LineCollection_1">
    <path d="M 58.278409 53.503076 
L 58.278409 25.823093 
" clip-path="url(#p5398d3b2d3)" style="fill: none; stroke: #000000; stroke-width: 1.5"/>
    <path d="M 103.00663 57.977013 
L 103.00663 53.24504 
" clip-path="url(#p5398d3b2d3)" style="fill: none; stroke: #000000; stroke-width: 1.5"/>
    <path d="M 116.386868 59.355093 
L 116.386868 49.308958 
" clip-path="url(#p5398d3b2d3)" style="fill: none; stroke: #000000; stroke-width: 1.5"/>
    <path d="M 124.510583 57.23427 
L 124.510583 54.587859 
" clip-path="url(#p5398d3b2d3)" style="fill: none; stroke: #000000; stroke-width: 1.5"/>
    <path d="M 137.508528 56.470943 
L 137.508528 44.320974 
" clip-path="url(#p5398d3b2d3)" style="fill: none; stroke: #000000; stroke-width: 1.5"/>
    <path d="M 145.727816 58.355789 
L 145.727816 51.575293 
" clip-path="url(#p5398d3b2d3)" style="fill: none; stroke: #000000; stroke-width: 1.5"/>
    <path d="M 153.851532 60.619639 
L 153.851532 42.531613 
" clip-path="url(#p5398d3b2d3)" style="fill: none; stroke: #000000; stroke-width: 1.5"/>
    <path d="M 161.592955 61.496689 
L 161.592955 33.128799 
" clip-path="url(#p5398d3b2d3)" style="fill: none; stroke: #000000; stroke-width: 1.5"/>
    <path d="M 175.54663 61.56 
L 175.54663 42.839237 
" clip-path="url(#p5398d3b2d3)" style="fill: none; stroke: #000000; stroke-width: 1.5"/>
    <path d="M 183.096907 57.846527 
L 183.096907 47.297647 
" clip-path="url(#p5398d3b2d3)" style="fill: none; stroke: #000000; stroke-width: 1.5"/>
    <path d="M 189.30916 58.228659 
L 189.30916 50.634374 
" clip-path="url(#p5398d3b2d3)" style="fill: none; stroke: #000000; stroke-width: 1.5"/>
    <path d="M 197.241729 58.210807 
L 197.241729 52.492585 
" clip-path="url(#p5398d3b2d3)" style="fill: none; stroke: #000000; stroke-width: 1.5"/>
    <path d="M 203.07169 58.549369 
L 203.07169 51.235948 
" clip-path="url(#p5398d3b2d3)" style="fill: none; stroke: #000000; stroke-width: 1.5"/>
    <path d="M 211.290978 60.148893 
L 211.290978 47.410312 
" clip-path="url(#p5398d3b2d3)" style="fill: none; stroke: #000000; stroke-width: 1.5"/>
    <path d="M 220.848291 57.366827 
L 220.848291 53.20572 
" clip-path="url(#p5398d3b2d3)" style="fill: none; stroke: #000000; stroke-width: 1.5"/>
    <path d="M 228.876433 56.378147 
L 228.876433 55.980415 
" clip-path="url(#p5398d3b2d3)" style="fill: none; stroke: #000000; stroke-width: 1.5"/>
    <path d="M 240.823073 57.902818 
L 240.823073 53.298275 
" clip-path="url(#p5398d3b2d3)" style="fill: none; stroke: #000000; stroke-width: 1.5"/>
    <path d="M 248.37335 58.026169 
L 248.37335 50.707388 
" clip-path="url(#p5398d3b2d3)" style="fill: none; stroke: #000000; stroke-width: 1.5"/>
    <path d="M 256.688211 57.935684 
L 256.688211 52.107581 
" clip-path="url(#p5398d3b2d3)" style="fill: none; stroke: #000000; stroke-width: 1.5"/>
    <path d="M 274.273666 58.940136 
L 274.273666 45.287744 
" clip-path="url(#p5398d3b2d3)" style="fill: none; stroke: #000000; stroke-width: 1.5"/>
    <path d="M 280.581492 54.57969 
L 280.581492 32.021202 
" clip-path="url(#p5398d3b2d3)" style="fill: none; stroke: #000000; stroke-width: 1.5"/>
    <path d="M 291.476828 60.363497 
L 291.476828 48.606776 
" clip-path="url(#p5398d3b2d3)" style="fill: none; stroke: #000000; stroke-width: 1.5"/>
    <path d="M 297.689081 50.243181 
L 297.689081 9.258807 
" clip-path="url(#p5398d3b2d3)" style="fill: none; stroke: #000000; stroke-width: 1.5"/>
    <path d="M 303.710188 52.96117 
L 303.710188 33.112838 
" clip-path="url(#p5398d3b2d3)" style="fill: none; stroke: #000000; stroke-width: 1.5"/>
    <path d="M 309.540148 58.487116 
L 309.540148 51.676376 
" clip-path="url(#p5398d3b2d3)" style="fill: none; stroke: #000000; stroke-width: 1.5"/>
    <path d="M 321.964654 58.262111 
L 321.964654 50.38269 
" clip-path="url(#p5398d3b2d3)" style="fill: none; stroke: #000000; stroke-width: 1.5"/>
    <path d="M 331.61754 57.208962 
L 331.61754 54.357544 
" clip-path="url(#p5398d3b2d3)" style="fill: none; stroke: #000000; stroke-width: 1.5"/>
    <path d="M 344.615484 57.703755 
L 344.615484 50.093775 
" clip-path="url(#p5398d3b2d3)" style="fill: none; stroke: #000000; stroke-width: 1.5"/>
    <path d="M 353.408211 59.450315 
L 353.408211 44.952133 
" clip-path="url(#p5398d3b2d3)" style="fill: none; stroke: #000000; stroke-width: 1.5"/>
    <path d="M 362.392085 57.413797 
L 362.392085 52.543081 
" clip-path="url(#p5398d3b2d3)" style="fill: none; stroke: #000000; stroke-width: 1.5"/>
    <path d="M 370.324654 57.058726 
L 370.324654 54.773356 
" clip-path="url(#p5398d3b2d3)" style="fill: none; stroke: #000000; stroke-width: 1.5"/>
   </g>
   <g id="line2d_13">
    <defs>
     <path id="m6f9f985184" d="M 3 0 
L -3 -0 
" style="stroke: #000000"/>
    </defs>
    <g clip-path="url(#p5398d3b2d3)">
     <use xlink:href="#m6f9f985184" x="58.278409" y="53.503076" style="stroke: #000000"/>
     <use xlink:href="#m6f9f985184" x="103.00663" y="57.977013" style="stroke: #000000"/>
     <use xlink:href="#m6f9f985184" x="116.386868" y="59.355093" style="stroke: #000000"/>
     <use xlink:href="#m6f9f985184" x="124.510583" y="57.23427" style="stroke: #000000"/>
     <use xlink:href="#m6f9f985184" x="137.508528" y="56.470943" style="stroke: #000000"/>
     <use xlink:href="#m6f9f985184" x="145.727816" y="58.355789" style="stroke: #000000"/>
     <use xlink:href="#m6f9f985184" x="153.851532" y="60.619639" style="stroke: #000000"/>
     <use xlink:href="#m6f9f985184" x="161.592955" y="61.496689" style="stroke: #000000"/>
     <use xlink:href="#m6f9f985184" x="175.54663" y="61.56" style="stroke: #000000"/>
     <use xlink:href="#m6f9f985184" x="183.096907" y="57.846527" style="stroke: #000000"/>
     <use xlink:href="#m6f9f985184" x="189.30916" y="58.228659" style="stroke: #000000"/>
     <use xlink:href="#m6f9f985184" x="197.241729" y="58.210807" style="stroke: #000000"/>
     <use xlink:href="#m6f9f985184" x="203.07169" y="58.549369" style="stroke: #000000"/>
     <use xlink:href="#m6f9f985184" x="211.290978" y="60.148893" style="stroke: #000000"/>
     <use xlink:href="#m6f9f985184" x="220.848291" y="57.366827" style="stroke: #000000"/>
     <use xlink:href="#m6f9f985184" x="228.876433" y="56.378147" style="stroke: #000000"/>
     <use xlink:href="#m6f9f985184" x="240.823073" y="57.902818" style="stroke: #000000"/>
     <use xlink:href="#m6f9f985184" x="248.37335" y="58.026169" style="stroke: #000000"/>
     <use xlink:href="#m6f9f985184" x="256.688211" y="57.935684" style="stroke: #000000"/>
     <use xlink:href="#m6f9f985184" x="274.273666" y="58.940136" style="stroke: #000000"/>
     <use xlink:href="#m6f9f985184" x="280.581492" y="54.57969" style="stroke: #000000"/>
     <use xlink:href="#m6f9f985184" x="291.476828" y="60.363497" style="stroke: #000000"/>
     <use xlink:href="#m6f9f985184" x="297.689081" y="50.243181" style="stroke: #000000"/>
     <use xlink:href="#m6f9f985184" x="303.710188" y="52.96117" style="stroke: #000000"/>
     <use xlink:href="#m6f9f985184" x="309.540148" y="58.487116" style="stroke: #000000"/>
     <use xlink:href="#m6f9f985184" x="321.964654" y="58.262111" style="stroke: #000000"/>
     <use xlink:href="#m6f9f985184" x="331.61754" y="57.208962" style="stroke: #000000"/>
     <use xlink:href="#m6f9f985184" x="344.615484" y="57.703755" style="stroke: #000000"/>
     <use xlink:href="#m6f9f985184" x="353.408211" y="59.450315" style="stroke: #000000"/>
     <use xlink:href="#m6f9f985184" x="362.392085" y="57.413797" style="stroke: #000000"/>
     <use xlink:href="#m6f9f985184" x="370.324654" y="57.058726" style="stroke: #000000"/>
    </g>
   </g>
   <g id="line2d_14">
    <g clip-path="url(#p5398d3b2d3)">
     <use xlink:href="#m6f9f985184" x="58.278409" y="25.823093" style="stroke: #000000"/>
     <use xlink:href="#m6f9f985184" x="103.00663" y="53.24504" style="stroke: #000000"/>
     <use xlink:href="#m6f9f985184" x="116.386868" y="49.308958" style="stroke: #000000"/>
     <use xlink:href="#m6f9f985184" x="124.510583" y="54.587859" style="stroke: #000000"/>
     <use xlink:href="#m6f9f985184" x="137.508528" y="44.320974" style="stroke: #000000"/>
     <use xlink:href="#m6f9f985184" x="145.727816" y="51.575293" style="stroke: #000000"/>
     <use xlink:href="#m6f9f985184" x="153.851532" y="42.531613" style="stroke: #000000"/>
     <use xlink:href="#m6f9f985184" x="161.592955" y="33.128799" style="stroke: #000000"/>
     <use xlink:href="#m6f9f985184" x="175.54663" y="42.839237" style="stroke: #000000"/>
     <use xlink:href="#m6f9f985184" x="183.096907" y="47.297647" style="stroke: #000000"/>
     <use xlink:href="#m6f9f985184" x="189.30916" y="50.634374" style="stroke: #000000"/>
     <use xlink:href="#m6f9f985184" x="197.241729" y="52.492585" style="stroke: #000000"/>
     <use xlink:href="#m6f9f985184" x="203.07169" y="51.235948" style="stroke: #000000"/>
     <use xlink:href="#m6f9f985184" x="211.290978" y="47.410312" style="stroke: #000000"/>
     <use xlink:href="#m6f9f985184" x="220.848291" y="53.20572" style="stroke: #000000"/>
     <use xlink:href="#m6f9f985184" x="228.876433" y="55.980415" style="stroke: #000000"/>
     <use xlink:href="#m6f9f985184" x="240.823073" y="53.298275" style="stroke: #000000"/>
     <use xlink:href="#m6f9f985184" x="248.37335" y="50.707388" style="stroke: #000000"/>
     <use xlink:href="#m6f9f985184" x="256.688211" y="52.107581" style="stroke: #000000"/>
     <use xlink:href="#m6f9f985184" x="274.273666" y="45.287744" style="stroke: #000000"/>
     <use xlink:href="#m6f9f985184" x="280.581492" y="32.021202" style="stroke: #000000"/>
     <use xlink:href="#m6f9f985184" x="291.476828" y="48.606776" style="stroke: #000000"/>
     <use xlink:href="#m6f9f985184" x="297.689081" y="9.258807" style="stroke: #000000"/>
     <use xlink:href="#m6f9f985184" x="303.710188" y="33.112838" style="stroke: #000000"/>
     <use xlink:href="#m6f9f985184" x="309.540148" y="51.676376" style="stroke: #000000"/>
     <use xlink:href="#m6f9f985184" x="321.964654" y="50.38269" style="stroke: #000000"/>
     <use xlink:href="#m6f9f985184" x="331.61754" y="54.357544" style="stroke: #000000"/>
     <use xlink:href="#m6f9f985184" x="344.615484" y="50.093775" style="stroke: #000000"/>
     <use xlink:href="#m6f9f985184" x="353.408211" y="44.952133" style="stroke: #000000"/>
     <use xlink:href="#m6f9f985184" x="362.392085" y="52.543081" style="stroke: #000000"/>
     <use xlink:href="#m6f9f985184" x="370.324654" y="54.773356" style="stroke: #000000"/>
    </g>
   </g>
   <g id="line2d_15"/>
   <g id="patch_3">
    <path d="M 23.1075 61.56 
L 23.1075 7.2 
" style="fill: none; stroke: #000000; stroke-width: 0.8; stroke-linejoin: miter; stroke-linecap: square"/>
   </g>
   <g id="patch_4">
    <path d="M 23.1075 56.192394 
L 385.8075 56.192394 
" style="fill: none; stroke: #000000; stroke-width: 0.8; stroke-linejoin: miter; stroke-linecap: square"/>
   </g>
  </g>
 </g>
 <defs>
  <clipPath id="p5398d3b2d3">
   <rect x="23.1075" y="7.2" width="362.7" height="54.36"/>
  </clipPath>
 </defs>
</svg>
