<?xml version="1.0" encoding="utf-8" standalone="no"?>
<!DOCTYPE svg PUBLIC "-//W3C//DTD SVG 1.1//EN"
  "http://www.w3.org/Graphics/SVG/1.1/DTD/svg11.dtd">
<svg xmlns:xlink="http://www.w3.org/1999/xlink" width="393.0075pt" height="78.243109pt" viewBox="0 0 393.0075 78.243109" xmlns="http://www.w3.org/2000/svg" version="1.1">
 <metadata>
  <rdf:RDF xmlns:dc="http://purl.org/dc/elements/1.1/" xmlns:cc="http://creativecommons.org/ns#" xmlns:rdf="http://www.w3.org/1999/02/22-rdf-syntax-ns#">
   <cc:Work>
    <dc:type rdf:resource="http://purl.org/dc/dcmitype/StillImage"/>
    <dc:date>2024-05-24T10:51:14.471952</dc:date>
    <dc:format>image/svg+xml</dc:format>
    <dc:creator>
     <cc:Agent>
      <dc:title>Matplotlib v3.5.1, https://matplotlib.org/</dc:title>
     </cc:Agent>
    </dc:creator>
   </cc:Work>
  </rdf:RDF>
 </metadata>
 <defs>
  <style type="text/css">*{stroke-linejoin: round; stroke-linecap: butt}</style>
 </defs>
 <g id="figure_1">
  <g id="patch_1">
   <path d="M 0 78.243109 
L 393.0075 78.243109 
L 393.0075 0 
L 0 0 
z
" style="fill: #ffffff"/>
  </g>
  <g id="axes_1">
   <g id="patch_2">
    <path d="M 23.1075 61.56 
L 385.8075 61.56 
L 385.8075 7.2 
L 23.1075 7.2 
z
" style="fill: #ffffff"/>
   </g>
   <g id="matplotlib.axis_1">
    <g id="xtick_1">
     <g id="line2d_1">
      <defs>
       <path id="m67c711cfcf" d="M 0 0 
L 0 3.5 
" style="stroke: #000000; stroke-width: 0.8"/>
      </defs>
      <g>
       <use xlink:href="#m67c711cfcf" x="23.1075" y="57.268421" style="stroke: #000000; stroke-width: 0.8"/>
      </g>
     </g>
     <g id="text_1">
      <!-- 0 -->
      <g transform="translate(20.880625 69.587327)scale(0.07 -0.07)">
       <defs>
        <path id="DejaVuSans-30" d="M 2034 4250 
Q 1547 4250 1301 3770 
Q 1056 3291 1056 2328 
Q 1056 1369 1301 889 
Q 1547 409 2034 409 
Q 2525 409 2770 889 
Q 3016 1369 3016 2328 
Q 3016 3291 2770 3770 
Q 2525 4250 2034 4250 
z
M 2034 4750 
Q 2819 4750 3233 4129 
Q 3647 3509 3647 2328 
Q 3647 1150 3233 529 
Q 2819 -91 2034 -91 
Q 1250 -91 836 529 
Q 422 1150 422 2328 
Q 422 3509 836 4129 
Q 1250 4750 2034 4750 
z
" transform="scale(0.015625)"/>
       </defs>
       <use xlink:href="#DejaVuSans-30"/>
      </g>
     </g>
    </g>
    <g id="xtick_2">
     <g id="line2d_2">
      <g>
       <use xlink:href="#m67c711cfcf" x="97.007256" y="57.268421" style="stroke: #000000; stroke-width: 0.8"/>
      </g>
     </g>
     <g id="text_2">
      <!-- 1000 -->
      <g transform="translate(88.099756 69.587327)scale(0.07 -0.07)">
       <defs>
        <path id="DejaVuSans-31" d="M 794 531 
L 1825 531 
L 1825 4091 
L 703 3866 
L 703 4441 
L 1819 4666 
L 2450 4666 
L 2450 531 
L 3481 531 
L 3481 0 
L 794 0 
L 794 531 
z
" transform="scale(0.015625)"/>
       </defs>
       <use xlink:href="#DejaVuSans-31"/>
       <use xlink:href="#DejaVuSans-30" x="63.623047"/>
       <use xlink:href="#DejaVuSans-30" x="127.246094"/>
       <use xlink:href="#DejaVuSans-30" x="190.869141"/>
      </g>
     </g>
    </g>
    <g id="xtick_3">
     <g id="line2d_3">
      <g>
       <use xlink:href="#m67c711cfcf" x="170.907011" y="57.268421" style="stroke: #000000; stroke-width: 0.8"/>
      </g>
     </g>
     <g id="text_3">
      <!-- 2000 -->
      <g transform="translate(161.999511 69.587327)scale(0.07 -0.07)">
       <defs>
        <path id="DejaVuSans-32" d="M 1228 531 
L 3431 531 
L 3431 0 
L 469 0 
L 469 531 
Q 828 903 1448 1529 
Q 2069 2156 2228 2338 
Q 2531 2678 2651 2914 
Q 2772 3150 2772 3378 
Q 2772 3750 2511 3984 
Q 2250 4219 1831 4219 
Q 1534 4219 1204 4116 
Q 875 4013 500 3803 
L 500 4441 
Q 881 4594 1212 4672 
Q 1544 4750 1819 4750 
Q 2544 4750 2975 4387 
Q 3406 4025 3406 3419 
Q 3406 3131 3298 2873 
Q 3191 2616 2906 2266 
Q 2828 2175 2409 1742 
Q 1991 1309 1228 531 
z
" transform="scale(0.015625)"/>
       </defs>
       <use xlink:href="#DejaVuSans-32"/>
       <use xlink:href="#DejaVuSans-30" x="63.623047"/>
       <use xlink:href="#DejaVuSans-30" x="127.246094"/>
       <use xlink:href="#DejaVuSans-30" x="190.869141"/>
      </g>
     </g>
    </g>
    <g id="xtick_4">
     <g id="line2d_4">
      <g>
       <use xlink:href="#m67c711cfcf" x="244.806767" y="57.268421" style="stroke: #000000; stroke-width: 0.8"/>
      </g>
     </g>
     <g id="text_4">
      <!-- 3000 -->
      <g transform="translate(235.899267 69.587327)scale(0.07 -0.07)">
       <defs>
        <path id="DejaVuSans-33" d="M 2597 2516 
Q 3050 2419 3304 2112 
Q 3559 1806 3559 1356 
Q 3559 666 3084 287 
Q 2609 -91 1734 -91 
Q 1441 -91 1130 -33 
Q 819 25 488 141 
L 488 750 
Q 750 597 1062 519 
Q 1375 441 1716 441 
Q 2309 441 2620 675 
Q 2931 909 2931 1356 
Q 2931 1769 2642 2001 
Q 2353 2234 1838 2234 
L 1294 2234 
L 1294 2753 
L 1863 2753 
Q 2328 2753 2575 2939 
Q 2822 3125 2822 3475 
Q 2822 3834 2567 4026 
Q 2313 4219 1838 4219 
Q 1578 4219 1281 4162 
Q 984 4106 628 3988 
L 628 4550 
Q 988 4650 1302 4700 
Q 1616 4750 1894 4750 
Q 2613 4750 3031 4423 
Q 3450 4097 3450 3541 
Q 3450 3153 3228 2886 
Q 3006 2619 2597 2516 
z
" transform="scale(0.015625)"/>
       </defs>
       <use xlink:href="#DejaVuSans-33"/>
       <use xlink:href="#DejaVuSans-30" x="63.623047"/>
       <use xlink:href="#DejaVuSans-30" x="127.246094"/>
       <use xlink:href="#DejaVuSans-30" x="190.869141"/>
      </g>
     </g>
    </g>
    <g id="xtick_5">
     <g id="line2d_5">
      <g>
       <use xlink:href="#m67c711cfcf" x="318.706522" y="57.268421" style="stroke: #000000; stroke-width: 0.8"/>
      </g>
     </g>
     <g id="text_5">
      <!-- 4000 -->
      <g transform="translate(309.799022 69.587327)scale(0.07 -0.07)">
       <defs>
        <path id="DejaVuSans-34" d="M 2419 4116 
L 825 1625 
L 2419 1625 
L 2419 4116 
z
M 2253 4666 
L 3047 4666 
L 3047 1625 
L 3713 1625 
L 3713 1100 
L 3047 1100 
L 3047 0 
L 2419 0 
L 2419 1100 
L 313 1100 
L 313 1709 
L 2253 4666 
z
" transform="scale(0.015625)"/>
       </defs>
       <use xlink:href="#DejaVuSans-34"/>
       <use xlink:href="#DejaVuSans-30" x="63.623047"/>
       <use xlink:href="#DejaVuSans-30" x="127.246094"/>
       <use xlink:href="#DejaVuSans-30" x="190.869141"/>
      </g>
     </g>
    </g>
   </g>
   <g id="matplotlib.axis_2">
    <g id="ytick_1">
     <g id="line2d_6">
      <defs>
       <path id="m32f41f97aa" d="M 0 0 
L -3.5 0 
" style="stroke: #000000; stroke-width: 0.8"/>
      </defs>
      <g>
       <use xlink:href="#m32f41f97aa" x="23.1075" y="57.268421" style="stroke: #000000; stroke-width: 0.8"/>
      </g>
     </g>
     <g id="text_6">
      <!-- 0 -->
      <g transform="translate(11.65375 59.927874)scale(0.07 -0.07)">
       <use xlink:href="#DejaVuSans-30"/>
      </g>
     </g>
    </g>
    <g id="ytick_2">
     <g id="line2d_7">
      <g>
       <use xlink:href="#m32f41f97aa" x="23.1075" y="28.657895" style="stroke: #000000; stroke-width: 0.8"/>
      </g>
     </g>
     <g id="text_7">
      <!-- 20 -->
      <g transform="translate(7.2 31.317348)scale(0.07 -0.07)">
       <use xlink:href="#DejaVuSans-32"/>
       <use xlink:href="#DejaVuSans-30" x="63.623047"/>
      </g>
     </g>
    </g>
   </g>
   <g id="line2d_8">
    <path d="M 25.250593 46.451442 
L 25.250593 51.177141 
L 28.428282 51.349781 
L 48.824615 48.836612 
L 57.027488 48.294875 
L 63.530666 50.771128 
L 71.58574 53.129152 
L 80.084211 50.242175 
L 87.621987 53.928601 
L 93.386167 52.330103 
L 99.519847 50.720337 
L 110.235312 52.322871 
L 116.88629 49.146131 
L 128.192952 50.202647 
L 136.469725 51.975293 
L 146.224493 48.09216 
L 157.013857 50.699782 
L 161.743441 50.109214 
L 176.079994 51.286148 
L 187.977855 50.256618 
L 201.058111 49.814762 
L 206.452793 51.293608 
L 219.385251 51.371388 
L 225.371131 52.833625 
L 232.465507 51.192613 
L 237.268991 53.680224 
L 247.245458 52.534547 
L 266.237696 53.026236 
L 272.149676 54.508585 
L 280.05695 51.473503 
L 286.486229 48.875528 
L 291.141913 49.863314 
L 296.019297 42.652619 
L 302.226877 50.356132 
L 308.656155 50.416249 
L 313.23794 50.561375 
L 318.115324 49.113078 
L 322.992708 52.304183 
L 328.682989 52.014296 
L 333.634273 53.469715 
L 341.541546 51.608389 
L 350.409517 51.673619 
L 356.395397 51.690943 
L 361.49448 53.922414 
" clip-path="url(#pd74b0dae52)" style="fill: none; stroke: #0000ff; stroke-width: 3; stroke-linecap: square"/>
   </g>
   <g id="LineCollection_1">
    <path d="M 25.250593 57.072711 
L 25.250593 35.830173 
" clip-path="url(#pd74b0dae52)" style="fill: none; stroke: #000000; stroke-width: 1.5"/>
    <path d="M 25.250593 54.889322 
L 25.250593 47.46496 
" clip-path="url(#pd74b0dae52)" style="fill: none; stroke: #000000; stroke-width: 1.5"/>
    <path d="M 28.428282 55.240465 
L 28.428282 47.459097 
" clip-path="url(#pd74b0dae52)" style="fill: none; stroke: #000000; stroke-width: 1.5"/>
    <path d="M 48.824615 52.924753 
L 48.824615 44.74847 
" clip-path="url(#pd74b0dae52)" style="fill: none; stroke: #000000; stroke-width: 1.5"/>
    <path d="M 57.027488 55.710216 
L 57.027488 40.879534 
" clip-path="url(#pd74b0dae52)" style="fill: none; stroke: #000000; stroke-width: 1.5"/>
    <path d="M 63.530666 54.779043 
L 63.530666 46.763213 
" clip-path="url(#pd74b0dae52)" style="fill: none; stroke: #000000; stroke-width: 1.5"/>
    <path d="M 71.58574 56.12885 
L 71.58574 50.129454 
" clip-path="url(#pd74b0dae52)" style="fill: none; stroke: #000000; stroke-width: 1.5"/>
    <path d="M 80.084211 54.296498 
L 80.084211 46.187852 
" clip-path="url(#pd74b0dae52)" style="fill: none; stroke: #000000; stroke-width: 1.5"/>
    <path d="M 87.621987 57.264174 
L 87.621987 50.593028 
" clip-path="url(#pd74b0dae52)" style="fill: none; stroke: #000000; stroke-width: 1.5"/>
    <path d="M 93.386167 55.927278 
L 93.386167 48.732928 
" clip-path="url(#pd74b0dae52)" style="fill: none; stroke: #000000; stroke-width: 1.5"/>
    <path d="M 99.519847 54.812128 
L 99.519847 46.628547 
" clip-path="url(#pd74b0dae52)" style="fill: none; stroke: #000000; stroke-width: 1.5"/>
    <path d="M 110.235312 55.836016 
L 110.235312 48.809726 
" clip-path="url(#pd74b0dae52)" style="fill: none; stroke: #000000; stroke-width: 1.5"/>
    <path d="M 116.88629 54.322425 
L 116.88629 43.969837 
" clip-path="url(#pd74b0dae52)" style="fill: none; stroke: #000000; stroke-width: 1.5"/>
    <path d="M 128.192952 54.401393 
L 128.192952 46.003901 
" clip-path="url(#pd74b0dae52)" style="fill: none; stroke: #000000; stroke-width: 1.5"/>
    <path d="M 136.469725 55.812457 
L 136.469725 48.13813 
" clip-path="url(#pd74b0dae52)" style="fill: none; stroke: #000000; stroke-width: 1.5"/>
    <path d="M 146.224493 54.202255 
L 146.224493 41.982065 
" clip-path="url(#pd74b0dae52)" style="fill: none; stroke: #000000; stroke-width: 1.5"/>
    <path d="M 157.013857 54.49491 
L 157.013857 46.904654 
" clip-path="url(#pd74b0dae52)" style="fill: none; stroke: #000000; stroke-width: 1.5"/>
    <path d="M 161.743441 54.158381 
L 161.743441 46.060048 
" clip-path="url(#pd74b0dae52)" style="fill: none; stroke: #000000; stroke-width: 1.5"/>
    <path d="M 176.079994 54.783341 
L 176.079994 47.788954 
" clip-path="url(#pd74b0dae52)" style="fill: none; stroke: #000000; stroke-width: 1.5"/>
    <path d="M 187.977855 53.942185 
L 187.977855 46.571051 
" clip-path="url(#pd74b0dae52)" style="fill: none; stroke: #000000; stroke-width: 1.5"/>
    <path d="M 201.058111 54.069209 
L 201.058111 45.560315 
" clip-path="url(#pd74b0dae52)" style="fill: none; stroke: #000000; stroke-width: 1.5"/>
    <path d="M 206.452793 55.130166 
L 206.452793 47.45705 
" clip-path="url(#pd74b0dae52)" style="fill: none; stroke: #000000; stroke-width: 1.5"/>
    <path d="M 219.385251 55.809047 
L 219.385251 46.933729 
" clip-path="url(#pd74b0dae52)" style="fill: none; stroke: #000000; stroke-width: 1.5"/>
    <path d="M 225.371131 56.14214 
L 225.371131 49.525111 
" clip-path="url(#pd74b0dae52)" style="fill: none; stroke: #000000; stroke-width: 1.5"/>
    <path d="M 232.465507 55.048017 
L 232.465507 47.337209 
" clip-path="url(#pd74b0dae52)" style="fill: none; stroke: #000000; stroke-width: 1.5"/>
    <path d="M 237.268991 56.51694 
L 237.268991 50.843507 
" clip-path="url(#pd74b0dae52)" style="fill: none; stroke: #000000; stroke-width: 1.5"/>
    <path d="M 247.245458 56.190695 
L 247.245458 48.878398 
" clip-path="url(#pd74b0dae52)" style="fill: none; stroke: #000000; stroke-width: 1.5"/>
    <path d="M 266.237696 56.232246 
L 266.237696 49.820226 
" clip-path="url(#pd74b0dae52)" style="fill: none; stroke: #000000; stroke-width: 1.5"/>
    <path d="M 272.149676 57.049604 
L 272.149676 51.967566 
" clip-path="url(#pd74b0dae52)" style="fill: none; stroke: #000000; stroke-width: 1.5"/>
    <path d="M 280.05695 54.996152 
L 280.05695 47.950854 
" clip-path="url(#pd74b0dae52)" style="fill: none; stroke: #000000; stroke-width: 1.5"/>
    <path d="M 286.486229 53.628552 
L 286.486229 44.122504 
" clip-path="url(#pd74b0dae52)" style="fill: none; stroke: #000000; stroke-width: 1.5"/>
    <path d="M 291.141913 54.035165 
L 291.141913 45.691464 
" clip-path="url(#pd74b0dae52)" style="fill: none; stroke: #000000; stroke-width: 1.5"/>
    <path d="M 296.019297 54.628029 
L 296.019297 30.67721 
" clip-path="url(#pd74b0dae52)" style="fill: none; stroke: #000000; stroke-width: 1.5"/>
    <path d="M 302.226877 54.409156 
L 302.226877 46.303109 
" clip-path="url(#pd74b0dae52)" style="fill: none; stroke: #000000; stroke-width: 1.5"/>
    <path d="M 308.656155 54.595072 
L 308.656155 46.237426 
" clip-path="url(#pd74b0dae52)" style="fill: none; stroke: #000000; stroke-width: 1.5"/>
    <path d="M 313.23794 54.630218 
L 313.23794 46.492532 
" clip-path="url(#pd74b0dae52)" style="fill: none; stroke: #000000; stroke-width: 1.5"/>
    <path d="M 318.115324 56.258306 
L 318.115324 41.967851 
" clip-path="url(#pd74b0dae52)" style="fill: none; stroke: #000000; stroke-width: 1.5"/>
    <path d="M 322.992708 55.696794 
L 322.992708 48.911573 
" clip-path="url(#pd74b0dae52)" style="fill: none; stroke: #000000; stroke-width: 1.5"/>
    <path d="M 328.682989 55.880375 
L 328.682989 48.148216 
" clip-path="url(#pd74b0dae52)" style="fill: none; stroke: #000000; stroke-width: 1.5"/>
    <path d="M 333.634273 56.46559 
L 333.634273 50.473841 
" clip-path="url(#pd74b0dae52)" style="fill: none; stroke: #000000; stroke-width: 1.5"/>
    <path d="M 341.541546 55.173128 
L 341.541546 48.04365 
" clip-path="url(#pd74b0dae52)" style="fill: none; stroke: #000000; stroke-width: 1.5"/>
    <path d="M 350.409517 55.626077 
L 350.409517 47.721162 
" clip-path="url(#pd74b0dae52)" style="fill: none; stroke: #000000; stroke-width: 1.5"/>
    <path d="M 356.395397 55.227643 
L 356.395397 48.154243 
" clip-path="url(#pd74b0dae52)" style="fill: none; stroke: #000000; stroke-width: 1.5"/>
    <path d="M 361.49448 56.697325 
L 361.49448 51.147502 
" clip-path="url(#pd74b0dae52)" style="fill: none; stroke: #000000; stroke-width: 1.5"/>
   </g>
   <g id="line2d_9">
    <defs>
     <path id="m038d072d0b" d="M 3 0 
L -3 -0 
" style="stroke: #000000"/>
    </defs>
    <g clip-path="url(#pd74b0dae52)">
     <use xlink:href="#m038d072d0b" x="25.250593" y="57.072711" style="stroke: #000000"/>
     <use xlink:href="#m038d072d0b" x="25.250593" y="54.889322" style="stroke: #000000"/>
     <use xlink:href="#m038d072d0b" x="28.428282" y="55.240465" style="stroke: #000000"/>
     <use xlink:href="#m038d072d0b" x="48.824615" y="52.924753" style="stroke: #000000"/>
     <use xlink:href="#m038d072d0b" x="57.027488" y="55.710216" style="stroke: #000000"/>
     <use xlink:href="#m038d072d0b" x="63.530666" y="54.779043" style="stroke: #000000"/>
     <use xlink:href="#m038d072d0b" x="71.58574" y="56.12885" style="stroke: #000000"/>
     <use xlink:href="#m038d072d0b" x="80.084211" y="54.296498" style="stroke: #000000"/>
     <use xlink:href="#m038d072d0b" x="87.621987" y="57.264174" style="stroke: #000000"/>
     <use xlink:href="#m038d072d0b" x="93.386167" y="55.927278" style="stroke: #000000"/>
     <use xlink:href="#m038d072d0b" x="99.519847" y="54.812128" style="stroke: #000000"/>
     <use xlink:href="#m038d072d0b" x="110.235312" y="55.836016" style="stroke: #000000"/>
     <use xlink:href="#m038d072d0b" x="116.88629" y="54.322425" style="stroke: #000000"/>
     <use xlink:href="#m038d072d0b" x="128.192952" y="54.401393" style="stroke: #000000"/>
     <use xlink:href="#m038d072d0b" x="136.469725" y="55.812457" style="stroke: #000000"/>
     <use xlink:href="#m038d072d0b" x="146.224493" y="54.202255" style="stroke: #000000"/>
     <use xlink:href="#m038d072d0b" x="157.013857" y="54.49491" style="stroke: #000000"/>
     <use xlink:href="#m038d072d0b" x="161.743441" y="54.158381" style="stroke: #000000"/>
     <use xlink:href="#m038d072d0b" x="176.079994" y="54.783341" style="stroke: #000000"/>
     <use xlink:href="#m038d072d0b" x="187.977855" y="53.942185" style="stroke: #000000"/>
     <use xlink:href="#m038d072d0b" x="201.058111" y="54.069209" style="stroke: #000000"/>
     <use xlink:href="#m038d072d0b" x="206.452793" y="55.130166" style="stroke: #000000"/>
     <use xlink:href="#m038d072d0b" x="219.385251" y="55.809047" style="stroke: #000000"/>
     <use xlink:href="#m038d072d0b" x="225.371131" y="56.14214" style="stroke: #000000"/>
     <use xlink:href="#m038d072d0b" x="232.465507" y="55.048017" style="stroke: #000000"/>
     <use xlink:href="#m038d072d0b" x="237.268991" y="56.51694" style="stroke: #000000"/>
     <use xlink:href="#m038d072d0b" x="247.245458" y="56.190695" style="stroke: #000000"/>
     <use xlink:href="#m038d072d0b" x="266.237696" y="56.232246" style="stroke: #000000"/>
     <use xlink:href="#m038d072d0b" x="272.149676" y="57.049604" style="stroke: #000000"/>
     <use xlink:href="#m038d072d0b" x="280.05695" y="54.996152" style="stroke: #000000"/>
     <use xlink:href="#m038d072d0b" x="286.486229" y="53.628552" style="stroke: #000000"/>
     <use xlink:href="#m038d072d0b" x="291.141913" y="54.035165" style="stroke: #000000"/>
     <use xlink:href="#m038d072d0b" x="296.019297" y="54.628029" style="stroke: #000000"/>
     <use xlink:href="#m038d072d0b" x="302.226877" y="54.409156" style="stroke: #000000"/>
     <use xlink:href="#m038d072d0b" x="308.656155" y="54.595072" style="stroke: #000000"/>
     <use xlink:href="#m038d072d0b" x="313.23794" y="54.630218" style="stroke: #000000"/>
     <use xlink:href="#m038d072d0b" x="318.115324" y="56.258306" style="stroke: #000000"/>
     <use xlink:href="#m038d072d0b" x="322.992708" y="55.696794" style="stroke: #000000"/>
     <use xlink:href="#m038d072d0b" x="328.682989" y="55.880375" style="stroke: #000000"/>
     <use xlink:href="#m038d072d0b" x="333.634273" y="56.46559" style="stroke: #000000"/>
     <use xlink:href="#m038d072d0b" x="341.541546" y="55.173128" style="stroke: #000000"/>
     <use xlink:href="#m038d072d0b" x="350.409517" y="55.626077" style="stroke: #000000"/>
     <use xlink:href="#m038d072d0b" x="356.395397" y="55.227643" style="stroke: #000000"/>
     <use xlink:href="#m038d072d0b" x="361.49448" y="56.697325" style="stroke: #000000"/>
    </g>
   </g>
   <g id="line2d_10">
    <g clip-path="url(#pd74b0dae52)">
     <use xlink:href="#m038d072d0b" x="25.250593" y="35.830173" style="stroke: #000000"/>
     <use xlink:href="#m038d072d0b" x="25.250593" y="47.46496" style="stroke: #000000"/>
     <use xlink:href="#m038d072d0b" x="28.428282" y="47.459097" style="stroke: #000000"/>
     <use xlink:href="#m038d072d0b" x="48.824615" y="44.74847" style="stroke: #000000"/>
     <use xlink:href="#m038d072d0b" x="57.027488" y="40.879534" style="stroke: #000000"/>
     <use xlink:href="#m038d072d0b" x="63.530666" y="46.763213" style="stroke: #000000"/>
     <use xlink:href="#m038d072d0b" x="71.58574" y="50.129454" style="stroke: #000000"/>
     <use xlink:href="#m038d072d0b" x="80.084211" y="46.187852" style="stroke: #000000"/>
     <use xlink:href="#m038d072d0b" x="87.621987" y="50.593028" style="stroke: #000000"/>
     <use xlink:href="#m038d072d0b" x="93.386167" y="48.732928" style="stroke: #000000"/>
     <use xlink:href="#m038d072d0b" x="99.519847" y="46.628547" style="stroke: #000000"/>
     <use xlink:href="#m038d072d0b" x="110.235312" y="48.809726" style="stroke: #000000"/>
     <use xlink:href="#m038d072d0b" x="116.88629" y="43.969837" style="stroke: #000000"/>
     <use xlink:href="#m038d072d0b" x="128.192952" y="46.003901" style="stroke: #000000"/>
     <use xlink:href="#m038d072d0b" x="136.469725" y="48.13813" style="stroke: #000000"/>
     <use xlink:href="#m038d072d0b" x="146.224493" y="41.982065" style="stroke: #000000"/>
     <use xlink:href="#m038d072d0b" x="157.013857" y="46.904654" style="stroke: #000000"/>
     <use xlink:href="#m038d072d0b" x="161.743441" y="46.060048" style="stroke: #000000"/>
     <use xlink:href="#m038d072d0b" x="176.079994" y="47.788954" style="stroke: #000000"/>
     <use xlink:href="#m038d072d0b" x="187.977855" y="46.571051" style="stroke: #000000"/>
     <use xlink:href="#m038d072d0b" x="201.058111" y="45.560315" style="stroke: #000000"/>
     <use xlink:href="#m038d072d0b" x="206.452793" y="47.45705" style="stroke: #000000"/>
     <use xlink:href="#m038d072d0b" x="219.385251" y="46.933729" style="stroke: #000000"/>
     <use xlink:href="#m038d072d0b" x="225.371131" y="49.525111" style="stroke: #000000"/>
     <use xlink:href="#m038d072d0b" x="232.465507" y="47.337209" style="stroke: #000000"/>
     <use xlink:href="#m038d072d0b" x="237.268991" y="50.843507" style="stroke: #000000"/>
     <use xlink:href="#m038d072d0b" x="247.245458" y="48.878398" style="stroke: #000000"/>
     <use xlink:href="#m038d072d0b" x="266.237696" y="49.820226" style="stroke: #000000"/>
     <use xlink:href="#m038d072d0b" x="272.149676" y="51.967566" style="stroke: #000000"/>
     <use xlink:href="#m038d072d0b" x="280.05695" y="47.950854" style="stroke: #000000"/>
     <use xlink:href="#m038d072d0b" x="286.486229" y="44.122504" style="stroke: #000000"/>
     <use xlink:href="#m038d072d0b" x="291.141913" y="45.691464" style="stroke: #000000"/>
     <use xlink:href="#m038d072d0b" x="296.019297" y="30.67721" style="stroke: #000000"/>
     <use xlink:href="#m038d072d0b" x="302.226877" y="46.303109" style="stroke: #000000"/>
     <use xlink:href="#m038d072d0b" x="308.656155" y="46.237426" style="stroke: #000000"/>
     <use xlink:href="#m038d072d0b" x="313.23794" y="46.492532" style="stroke: #000000"/>
     <use xlink:href="#m038d072d0b" x="318.115324" y="41.967851" style="stroke: #000000"/>
     <use xlink:href="#m038d072d0b" x="322.992708" y="48.911573" style="stroke: #000000"/>
     <use xlink:href="#m038d072d0b" x="328.682989" y="48.148216" style="stroke: #000000"/>
     <use xlink:href="#m038d072d0b" x="333.634273" y="50.473841" style="stroke: #000000"/>
     <use xlink:href="#m038d072d0b" x="341.541546" y="48.04365" style="stroke: #000000"/>
     <use xlink:href="#m038d072d0b" x="350.409517" y="47.721162" style="stroke: #000000"/>
     <use xlink:href="#m038d072d0b" x="356.395397" y="48.154243" style="stroke: #000000"/>
     <use xlink:href="#m038d072d0b" x="361.49448" y="51.147502" style="stroke: #000000"/>
    </g>
   </g>
   <g id="line2d_11"/>
   <g id="patch_3">
    <path d="M 23.1075 61.56 
L 23.1075 7.2 
" style="fill: none; stroke: #000000; stroke-width: 0.8; stroke-linejoin: miter; stroke-linecap: square"/>
   </g>
   <g id="patch_4">
    <path d="M 23.1075 57.268421 
L 385.8075 57.268421 
" style="fill: none; stroke: #000000; stroke-width: 0.8; stroke-linejoin: miter; stroke-linecap: square"/>
   </g>
  </g>
 </g>
 <defs>
  <clipPath id="pd74b0dae52">
   <rect x="23.1075" y="7.2" width="362.7" height="54.36"/>
  </clipPath>
 </defs>
</svg>
