<?xml version="1.0" encoding="utf-8" standalone="no"?>
<!DOCTYPE svg PUBLIC "-//W3C//DTD SVG 1.1//EN"
  "http://www.w3.org/Graphics/SVG/1.1/DTD/svg11.dtd">
<svg xmlns:xlink="http://www.w3.org/1999/xlink" width="393.0075pt" height="80.174713pt" viewBox="0 0 393.0075 80.174713" xmlns="http://www.w3.org/2000/svg" version="1.1">
 <metadata>
  <rdf:RDF xmlns:dc="http://purl.org/dc/elements/1.1/" xmlns:cc="http://creativecommons.org/ns#" xmlns:rdf="http://www.w3.org/1999/02/22-rdf-syntax-ns#">
   <cc:Work>
    <dc:type rdf:resource="http://purl.org/dc/dcmitype/StillImage"/>
    <dc:date>2024-05-24T10:52:41.812736</dc:date>
    <dc:format>image/svg+xml</dc:format>
    <dc:creator>
     <cc:Agent>
      <dc:title>Matplotlib v3.5.1, https://matplotlib.org/</dc:title>
     </cc:Agent>
    </dc:creator>
   </cc:Work>
  </rdf:RDF>
 </metadata>
 <defs>
  <style type="text/css">*{stroke-linejoin: round; stroke-linecap: butt}</style>
 </defs>
 <g id="figure_1">
  <g id="patch_1">
   <path d="M 0 80.174713 
L 393.0075 80.174713 
L 393.0075 0 
L 0 0 
z
" style="fill: #ffffff"/>
  </g>
  <g id="axes_1">
   <g id="patch_2">
    <path d="M 23.1075 61.56 
L 385.8075 61.56 
L 385.8075 7.2 
L 23.1075 7.2 
z
" style="fill: #ffffff"/>
   </g>
   <g id="matplotlib.axis_1">
    <g id="xtick_1">
     <g id="line2d_1">
      <defs>
       <path id="m96734f81eb" d="M 0 0 
L 0 3.5 
" style="stroke: #000000; stroke-width: 0.8"/>
      </defs>
      <g>
       <use xlink:href="#m96734f81eb" x="23.1075" y="59.200026" style="stroke: #000000; stroke-width: 0.8"/>
      </g>
     </g>
     <g id="text_1">
      <!-- 0 -->
      <g transform="translate(20.880625 71.518932)scale(0.07 -0.07)">
       <defs>
        <path id="DejaVuSans-30" d="M 2034 4250 
Q 1547 4250 1301 3770 
Q 1056 3291 1056 2328 
Q 1056 1369 1301 889 
Q 1547 409 2034 409 
Q 2525 409 2770 889 
Q 3016 1369 3016 2328 
Q 3016 3291 2770 3770 
Q 2525 4250 2034 4250 
z
M 2034 4750 
Q 2819 4750 3233 4129 
Q 3647 3509 3647 2328 
Q 3647 1150 3233 529 
Q 2819 -91 2034 -91 
Q 1250 -91 836 529 
Q 422 1150 422 2328 
Q 422 3509 836 4129 
Q 1250 4750 2034 4750 
z
" transform="scale(0.015625)"/>
       </defs>
       <use xlink:href="#DejaVuSans-30"/>
      </g>
     </g>
    </g>
    <g id="xtick_2">
     <g id="line2d_2">
      <g>
       <use xlink:href="#m96734f81eb" x="99.241001" y="59.200026" style="stroke: #000000; stroke-width: 0.8"/>
      </g>
     </g>
     <g id="text_2">
      <!-- 500 -->
      <g transform="translate(92.560376 71.518932)scale(0.07 -0.07)">
       <defs>
        <path id="DejaVuSans-35" d="M 691 4666 
L 3169 4666 
L 3169 4134 
L 1269 4134 
L 1269 2991 
Q 1406 3038 1543 3061 
Q 1681 3084 1819 3084 
Q 2600 3084 3056 2656 
Q 3513 2228 3513 1497 
Q 3513 744 3044 326 
Q 2575 -91 1722 -91 
Q 1428 -91 1123 -41 
Q 819 9 494 109 
L 494 744 
Q 775 591 1075 516 
Q 1375 441 1709 441 
Q 2250 441 2565 725 
Q 2881 1009 2881 1497 
Q 2881 1984 2565 2268 
Q 2250 2553 1709 2553 
Q 1456 2553 1204 2497 
Q 953 2441 691 2322 
L 691 4666 
z
" transform="scale(0.015625)"/>
       </defs>
       <use xlink:href="#DejaVuSans-35"/>
       <use xlink:href="#DejaVuSans-30" x="63.623047"/>
       <use xlink:href="#DejaVuSans-30" x="127.246094"/>
      </g>
     </g>
    </g>
    <g id="xtick_3">
     <g id="line2d_3">
      <g>
       <use xlink:href="#m96734f81eb" x="175.374503" y="59.200026" style="stroke: #000000; stroke-width: 0.8"/>
      </g>
     </g>
     <g id="text_3">
      <!-- 1000 -->
      <g transform="translate(166.467003 71.518932)scale(0.07 -0.07)">
       <defs>
        <path id="DejaVuSans-31" d="M 794 531 
L 1825 531 
L 1825 4091 
L 703 3866 
L 703 4441 
L 1819 4666 
L 2450 4666 
L 2450 531 
L 3481 531 
L 3481 0 
L 794 0 
L 794 531 
z
" transform="scale(0.015625)"/>
       </defs>
       <use xlink:href="#DejaVuSans-31"/>
       <use xlink:href="#DejaVuSans-30" x="63.623047"/>
       <use xlink:href="#DejaVuSans-30" x="127.246094"/>
       <use xlink:href="#DejaVuSans-30" x="190.869141"/>
      </g>
     </g>
    </g>
    <g id="xtick_4">
     <g id="line2d_4">
      <g>
       <use xlink:href="#m96734f81eb" x="251.508004" y="59.200026" style="stroke: #000000; stroke-width: 0.8"/>
      </g>
     </g>
     <g id="text_4">
      <!-- 1500 -->
      <g transform="translate(242.600504 71.518932)scale(0.07 -0.07)">
       <use xlink:href="#DejaVuSans-31"/>
       <use xlink:href="#DejaVuSans-35" x="63.623047"/>
       <use xlink:href="#DejaVuSans-30" x="127.246094"/>
       <use xlink:href="#DejaVuSans-30" x="190.869141"/>
      </g>
     </g>
    </g>
    <g id="xtick_5">
     <g id="line2d_5">
      <g>
       <use xlink:href="#m96734f81eb" x="327.641505" y="59.200026" style="stroke: #000000; stroke-width: 0.8"/>
      </g>
     </g>
     <g id="text_5">
      <!-- 2000 -->
      <g transform="translate(318.734005 71.518932)scale(0.07 -0.07)">
       <defs>
        <path id="DejaVuSans-32" d="M 1228 531 
L 3431 531 
L 3431 0 
L 469 0 
L 469 531 
Q 828 903 1448 1529 
Q 2069 2156 2228 2338 
Q 2531 2678 2651 2914 
Q 2772 3150 2772 3378 
Q 2772 3750 2511 3984 
Q 2250 4219 1831 4219 
Q 1534 4219 1204 4116 
Q 875 4013 500 3803 
L 500 4441 
Q 881 4594 1212 4672 
Q 1544 4750 1819 4750 
Q 2544 4750 2975 4387 
Q 3406 4025 3406 3419 
Q 3406 3131 3298 2873 
Q 3191 2616 2906 2266 
Q 2828 2175 2409 1742 
Q 1991 1309 1228 531 
z
" transform="scale(0.015625)"/>
       </defs>
       <use xlink:href="#DejaVuSans-32"/>
       <use xlink:href="#DejaVuSans-30" x="63.623047"/>
       <use xlink:href="#DejaVuSans-30" x="127.246094"/>
       <use xlink:href="#DejaVuSans-30" x="190.869141"/>
      </g>
     </g>
    </g>
   </g>
   <g id="matplotlib.axis_2">
    <g id="ytick_1">
     <g id="line2d_6">
      <defs>
       <path id="m2ed9ee487b" d="M 0 0 
L -3.5 0 
" style="stroke: #000000; stroke-width: 0.8"/>
      </defs>
      <g>
       <use xlink:href="#m2ed9ee487b" x="23.1075" y="59.200026" style="stroke: #000000; stroke-width: 0.8"/>
      </g>
     </g>
     <g id="text_6">
      <!-- 0 -->
      <g transform="translate(11.65375 61.859479)scale(0.07 -0.07)">
       <use xlink:href="#DejaVuSans-30"/>
      </g>
     </g>
    </g>
    <g id="ytick_2">
     <g id="line2d_7">
      <g>
       <use xlink:href="#m2ed9ee487b" x="23.1075" y="32.740055" style="stroke: #000000; stroke-width: 0.8"/>
      </g>
     </g>
     <g id="text_7">
      <!-- 10 -->
      <g transform="translate(7.2 35.399508)scale(0.07 -0.07)">
       <use xlink:href="#DejaVuSans-31"/>
       <use xlink:href="#DejaVuSans-30" x="63.623047"/>
      </g>
     </g>
    </g>
   </g>
   <g id="line2d_8">
    <path d="M 36.506996 35.923949 
L 56.453974 25.349263 
L 66.046795 27.3911 
L 86.60284 22.598373 
L 96.195661 25.763163 
L 109.290623 24.610146 
L 122.842387 26.706687 
L 142.789364 37.569326 
L 152.077651 24.465991 
L 170.197424 44.368023 
L 196.539616 29.408402 
L 213.288986 29.549906 
L 230.190623 37.052868 
L 262.623495 35.760886 
L 275.413923 37.07798 
L 288.508885 36.060654 
L 303.126518 37.390401 
L 342.259137 57.208807 
L 362.662916 57.607554 
L 372.560271 58.503555 
" clip-path="url(#pc309c8a5b8)" style="fill: none; stroke: #0000ff; stroke-width: 3; stroke-linecap: square"/>
   </g>
   <g id="LineCollection_1">
    <path d="M 36.506996 47.299224 
L 36.506996 24.548674 
" clip-path="url(#pc309c8a5b8)" style="fill: none; stroke: #000000; stroke-width: 1.5"/>
    <path d="M 56.453974 37.571919 
L 56.453974 13.126608 
" clip-path="url(#pc309c8a5b8)" style="fill: none; stroke: #000000; stroke-width: 1.5"/>
    <path d="M 66.046795 40.038887 
L 66.046795 14.743313 
" clip-path="url(#pc309c8a5b8)" style="fill: none; stroke: #000000; stroke-width: 1.5"/>
    <path d="M 86.60284 36.673747 
L 86.60284 8.522999 
" clip-path="url(#pc309c8a5b8)" style="fill: none; stroke: #000000; stroke-width: 1.5"/>
    <path d="M 96.195661 38.601301 
L 96.195661 12.925025 
" clip-path="url(#pc309c8a5b8)" style="fill: none; stroke: #000000; stroke-width: 1.5"/>
    <path d="M 109.290623 37.235821 
L 109.290623 11.984471 
" clip-path="url(#pc309c8a5b8)" style="fill: none; stroke: #000000; stroke-width: 1.5"/>
    <path d="M 122.842387 39.380244 
L 122.842387 14.033129 
" clip-path="url(#pc309c8a5b8)" style="fill: none; stroke: #000000; stroke-width: 1.5"/>
    <path d="M 142.789364 47.61357 
L 142.789364 27.525081 
" clip-path="url(#pc309c8a5b8)" style="fill: none; stroke: #000000; stroke-width: 1.5"/>
    <path d="M 152.077651 37.306316 
L 152.077651 11.625666 
" clip-path="url(#pc309c8a5b8)" style="fill: none; stroke: #000000; stroke-width: 1.5"/>
    <path d="M 170.197424 53.744193 
L 170.197424 34.991853 
" clip-path="url(#pc309c8a5b8)" style="fill: none; stroke: #000000; stroke-width: 1.5"/>
    <path d="M 196.539616 44.949638 
L 196.539616 13.867166 
" clip-path="url(#pc309c8a5b8)" style="fill: none; stroke: #000000; stroke-width: 1.5"/>
    <path d="M 213.288986 40.708221 
L 213.288986 18.391592 
" clip-path="url(#pc309c8a5b8)" style="fill: none; stroke: #000000; stroke-width: 1.5"/>
    <path d="M 230.190623 47.744885 
L 230.190623 26.360851 
" clip-path="url(#pc309c8a5b8)" style="fill: none; stroke: #000000; stroke-width: 1.5"/>
    <path d="M 262.623495 50.467927 
L 262.623495 21.053845 
" clip-path="url(#pc309c8a5b8)" style="fill: none; stroke: #000000; stroke-width: 1.5"/>
    <path d="M 275.413923 49.139748 
L 275.413923 25.016213 
" clip-path="url(#pc309c8a5b8)" style="fill: none; stroke: #000000; stroke-width: 1.5"/>
    <path d="M 288.508885 46.02272 
L 288.508885 26.098588 
" clip-path="url(#pc309c8a5b8)" style="fill: none; stroke: #000000; stroke-width: 1.5"/>
    <path d="M 303.126518 45.932369 
L 303.126518 28.848433 
" clip-path="url(#pc309c8a5b8)" style="fill: none; stroke: #000000; stroke-width: 1.5"/>
    <path d="M 342.259137 61.56 
L 342.259137 52.857613 
" clip-path="url(#pc309c8a5b8)" style="fill: none; stroke: #000000; stroke-width: 1.5"/>
    <path d="M 362.662916 61.458798 
L 362.662916 53.756309 
" clip-path="url(#pc309c8a5b8)" style="fill: none; stroke: #000000; stroke-width: 1.5"/>
    <path d="M 372.560271 60.256056 
L 372.560271 56.751055 
" clip-path="url(#pc309c8a5b8)" style="fill: none; stroke: #000000; stroke-width: 1.5"/>
   </g>
   <g id="line2d_9">
    <defs>
     <path id="m8c883c1336" d="M 3 0 
L -3 -0 
" style="stroke: #000000"/>
    </defs>
    <g clip-path="url(#pc309c8a5b8)">
     <use xlink:href="#m8c883c1336" x="36.506996" y="47.299224" style="stroke: #000000"/>
     <use xlink:href="#m8c883c1336" x="56.453974" y="37.571919" style="stroke: #000000"/>
     <use xlink:href="#m8c883c1336" x="66.046795" y="40.038887" style="stroke: #000000"/>
     <use xlink:href="#m8c883c1336" x="86.60284" y="36.673747" style="stroke: #000000"/>
     <use xlink:href="#m8c883c1336" x="96.195661" y="38.601301" style="stroke: #000000"/>
     <use xlink:href="#m8c883c1336" x="109.290623" y="37.235821" style="stroke: #000000"/>
     <use xlink:href="#m8c883c1336" x="122.842387" y="39.380244" style="stroke: #000000"/>
     <use xlink:href="#m8c883c1336" x="142.789364" y="47.61357" style="stroke: #000000"/>
     <use xlink:href="#m8c883c1336" x="152.077651" y="37.306316" style="stroke: #000000"/>
     <use xlink:href="#m8c883c1336" x="170.197424" y="53.744193" style="stroke: #000000"/>
     <use xlink:href="#m8c883c1336" x="196.539616" y="44.949638" style="stroke: #000000"/>
     <use xlink:href="#m8c883c1336" x="213.288986" y="40.708221" style="stroke: #000000"/>
     <use xlink:href="#m8c883c1336" x="230.190623" y="47.744885" style="stroke: #000000"/>
     <use xlink:href="#m8c883c1336" x="262.623495" y="50.467927" style="stroke: #000000"/>
     <use xlink:href="#m8c883c1336" x="275.413923" y="49.139748" style="stroke: #000000"/>
     <use xlink:href="#m8c883c1336" x="288.508885" y="46.02272" style="stroke: #000000"/>
     <use xlink:href="#m8c883c1336" x="303.126518" y="45.932369" style="stroke: #000000"/>
     <use xlink:href="#m8c883c1336" x="342.259137" y="61.56" style="stroke: #000000"/>
     <use xlink:href="#m8c883c1336" x="362.662916" y="61.458798" style="stroke: #000000"/>
     <use xlink:href="#m8c883c1336" x="372.560271" y="60.256056" style="stroke: #000000"/>
    </g>
   </g>
   <g id="line2d_10">
    <g clip-path="url(#pc309c8a5b8)">
     <use xlink:href="#m8c883c1336" x="36.506996" y="24.548674" style="stroke: #000000"/>
     <use xlink:href="#m8c883c1336" x="56.453974" y="13.126608" style="stroke: #000000"/>
     <use xlink:href="#m8c883c1336" x="66.046795" y="14.743313" style="stroke: #000000"/>
     <use xlink:href="#m8c883c1336" x="86.60284" y="8.522999" style="stroke: #000000"/>
     <use xlink:href="#m8c883c1336" x="96.195661" y="12.925025" style="stroke: #000000"/>
     <use xlink:href="#m8c883c1336" x="109.290623" y="11.984471" style="stroke: #000000"/>
     <use xlink:href="#m8c883c1336" x="122.842387" y="14.033129" style="stroke: #000000"/>
     <use xlink:href="#m8c883c1336" x="142.789364" y="27.525081" style="stroke: #000000"/>
     <use xlink:href="#m8c883c1336" x="152.077651" y="11.625666" style="stroke: #000000"/>
     <use xlink:href="#m8c883c1336" x="170.197424" y="34.991853" style="stroke: #000000"/>
     <use xlink:href="#m8c883c1336" x="196.539616" y="13.867166" style="stroke: #000000"/>
     <use xlink:href="#m8c883c1336" x="213.288986" y="18.391592" style="stroke: #000000"/>
     <use xlink:href="#m8c883c1336" x="230.190623" y="26.360851" style="stroke: #000000"/>
     <use xlink:href="#m8c883c1336" x="262.623495" y="21.053845" style="stroke: #000000"/>
     <use xlink:href="#m8c883c1336" x="275.413923" y="25.016213" style="stroke: #000000"/>
     <use xlink:href="#m8c883c1336" x="288.508885" y="26.098588" style="stroke: #000000"/>
     <use xlink:href="#m8c883c1336" x="303.126518" y="28.848433" style="stroke: #000000"/>
     <use xlink:href="#m8c883c1336" x="342.259137" y="52.857613" style="stroke: #000000"/>
     <use xlink:href="#m8c883c1336" x="362.662916" y="53.756309" style="stroke: #000000"/>
     <use xlink:href="#m8c883c1336" x="372.560271" y="56.751055" style="stroke: #000000"/>
    </g>
   </g>
   <g id="line2d_11"/>
   <g id="patch_3">
    <path d="M 23.1075 61.56 
L 23.1075 7.2 
" style="fill: none; stroke: #000000; stroke-width: 0.8; stroke-linejoin: miter; stroke-linecap: square"/>
   </g>
   <g id="patch_4">
    <path d="M 23.1075 59.200026 
L 385.8075 59.200026 
" style="fill: none; stroke: #000000; stroke-width: 0.8; stroke-linejoin: miter; stroke-linecap: square"/>
   </g>
  </g>
 </g>
 <defs>
  <clipPath id="pc309c8a5b8">
   <rect x="23.1075" y="7.2" width="362.7" height="54.36"/>
  </clipPath>
 </defs>
</svg>
