<?xml version="1.0" encoding="utf-8" standalone="no"?>
<!DOCTYPE svg PUBLIC "-//W3C//DTD SVG 1.1//EN"
  "http://www.w3.org/Graphics/SVG/1.1/DTD/svg11.dtd">
<svg xmlns:xlink="http://www.w3.org/1999/xlink" width="393.315418pt" height="78.243109pt" viewBox="0 0 393.315418 78.243109" xmlns="http://www.w3.org/2000/svg" version="1.1">
 <metadata>
  <rdf:RDF xmlns:dc="http://purl.org/dc/elements/1.1/" xmlns:cc="http://creativecommons.org/ns#" xmlns:rdf="http://www.w3.org/1999/02/22-rdf-syntax-ns#">
   <cc:Work>
    <dc:type rdf:resource="http://purl.org/dc/dcmitype/StillImage"/>
    <dc:date>2024-05-24T10:52:39.789834</dc:date>
    <dc:format>image/svg+xml</dc:format>
    <dc:creator>
     <cc:Agent>
      <dc:title>Matplotlib v3.5.1, https://matplotlib.org/</dc:title>
     </cc:Agent>
    </dc:creator>
   </cc:Work>
  </rdf:RDF>
 </metadata>
 <defs>
  <style type="text/css">*{stroke-linejoin: round; stroke-linecap: butt}</style>
 </defs>
 <g id="figure_1">
  <g id="patch_1">
   <path d="M 0 78.243109 
L 393.315418 78.243109 
L 393.315418 0 
L 0 0 
z
" style="fill: #ffffff"/>
  </g>
  <g id="axes_1">
   <g id="patch_2">
    <path d="M 23.1075 61.56 
L 385.8075 61.56 
L 385.8075 7.2 
L 23.1075 7.2 
z
" style="fill: #ffffff"/>
   </g>
   <g id="matplotlib.axis_1">
    <g id="xtick_1">
     <g id="line2d_1">
      <defs>
       <path id="md2d58f1c44" d="M 0 0 
L 0 3.5 
" style="stroke: #000000; stroke-width: 0.8"/>
      </defs>
      <g>
       <use xlink:href="#md2d58f1c44" x="23.1075" y="57.268421" style="stroke: #000000; stroke-width: 0.8"/>
      </g>
     </g>
     <g id="text_1">
      <!-- 0 -->
      <g transform="translate(20.880625 69.587327)scale(0.07 -0.07)">
       <defs>
        <path id="DejaVuSans-30" d="M 2034 4250 
Q 1547 4250 1301 3770 
Q 1056 3291 1056 2328 
Q 1056 1369 1301 889 
Q 1547 409 2034 409 
Q 2525 409 2770 889 
Q 3016 1369 3016 2328 
Q 3016 3291 2770 3770 
Q 2525 4250 2034 4250 
z
M 2034 4750 
Q 2819 4750 3233 4129 
Q 3647 3509 3647 2328 
Q 3647 1150 3233 529 
Q 2819 -91 2034 -91 
Q 1250 -91 836 529 
Q 422 1150 422 2328 
Q 422 3509 836 4129 
Q 1250 4750 2034 4750 
z
" transform="scale(0.015625)"/>
       </defs>
       <use xlink:href="#DejaVuSans-30"/>
      </g>
     </g>
    </g>
    <g id="xtick_2">
     <g id="line2d_2">
      <g>
       <use xlink:href="#md2d58f1c44" x="73.693274" y="57.268421" style="stroke: #000000; stroke-width: 0.8"/>
      </g>
     </g>
     <g id="text_2">
      <!-- 1000 -->
      <g transform="translate(64.785774 69.587327)scale(0.07 -0.07)">
       <defs>
        <path id="DejaVuSans-31" d="M 794 531 
L 1825 531 
L 1825 4091 
L 703 3866 
L 703 4441 
L 1819 4666 
L 2450 4666 
L 2450 531 
L 3481 531 
L 3481 0 
L 794 0 
L 794 531 
z
" transform="scale(0.015625)"/>
       </defs>
       <use xlink:href="#DejaVuSans-31"/>
       <use xlink:href="#DejaVuSans-30" x="63.623047"/>
       <use xlink:href="#DejaVuSans-30" x="127.246094"/>
       <use xlink:href="#DejaVuSans-30" x="190.869141"/>
      </g>
     </g>
    </g>
    <g id="xtick_3">
     <g id="line2d_3">
      <g>
       <use xlink:href="#md2d58f1c44" x="124.279048" y="57.268421" style="stroke: #000000; stroke-width: 0.8"/>
      </g>
     </g>
     <g id="text_3">
      <!-- 2000 -->
      <g transform="translate(115.371548 69.587327)scale(0.07 -0.07)">
       <defs>
        <path id="DejaVuSans-32" d="M 1228 531 
L 3431 531 
L 3431 0 
L 469 0 
L 469 531 
Q 828 903 1448 1529 
Q 2069 2156 2228 2338 
Q 2531 2678 2651 2914 
Q 2772 3150 2772 3378 
Q 2772 3750 2511 3984 
Q 2250 4219 1831 4219 
Q 1534 4219 1204 4116 
Q 875 4013 500 3803 
L 500 4441 
Q 881 4594 1212 4672 
Q 1544 4750 1819 4750 
Q 2544 4750 2975 4387 
Q 3406 4025 3406 3419 
Q 3406 3131 3298 2873 
Q 3191 2616 2906 2266 
Q 2828 2175 2409 1742 
Q 1991 1309 1228 531 
z
" transform="scale(0.015625)"/>
       </defs>
       <use xlink:href="#DejaVuSans-32"/>
       <use xlink:href="#DejaVuSans-30" x="63.623047"/>
       <use xlink:href="#DejaVuSans-30" x="127.246094"/>
       <use xlink:href="#DejaVuSans-30" x="190.869141"/>
      </g>
     </g>
    </g>
    <g id="xtick_4">
     <g id="line2d_4">
      <g>
       <use xlink:href="#md2d58f1c44" x="174.864822" y="57.268421" style="stroke: #000000; stroke-width: 0.8"/>
      </g>
     </g>
     <g id="text_4">
      <!-- 3000 -->
      <g transform="translate(165.957322 69.587327)scale(0.07 -0.07)">
       <defs>
        <path id="DejaVuSans-33" d="M 2597 2516 
Q 3050 2419 3304 2112 
Q 3559 1806 3559 1356 
Q 3559 666 3084 287 
Q 2609 -91 1734 -91 
Q 1441 -91 1130 -33 
Q 819 25 488 141 
L 488 750 
Q 750 597 1062 519 
Q 1375 441 1716 441 
Q 2309 441 2620 675 
Q 2931 909 2931 1356 
Q 2931 1769 2642 2001 
Q 2353 2234 1838 2234 
L 1294 2234 
L 1294 2753 
L 1863 2753 
Q 2328 2753 2575 2939 
Q 2822 3125 2822 3475 
Q 2822 3834 2567 4026 
Q 2313 4219 1838 4219 
Q 1578 4219 1281 4162 
Q 984 4106 628 3988 
L 628 4550 
Q 988 4650 1302 4700 
Q 1616 4750 1894 4750 
Q 2613 4750 3031 4423 
Q 3450 4097 3450 3541 
Q 3450 3153 3228 2886 
Q 3006 2619 2597 2516 
z
" transform="scale(0.015625)"/>
       </defs>
       <use xlink:href="#DejaVuSans-33"/>
       <use xlink:href="#DejaVuSans-30" x="63.623047"/>
       <use xlink:href="#DejaVuSans-30" x="127.246094"/>
       <use xlink:href="#DejaVuSans-30" x="190.869141"/>
      </g>
     </g>
    </g>
    <g id="xtick_5">
     <g id="line2d_5">
      <g>
       <use xlink:href="#md2d58f1c44" x="225.450596" y="57.268421" style="stroke: #000000; stroke-width: 0.8"/>
      </g>
     </g>
     <g id="text_5">
      <!-- 4000 -->
      <g transform="translate(216.543096 69.587327)scale(0.07 -0.07)">
       <defs>
        <path id="DejaVuSans-34" d="M 2419 4116 
L 825 1625 
L 2419 1625 
L 2419 4116 
z
M 2253 4666 
L 3047 4666 
L 3047 1625 
L 3713 1625 
L 3713 1100 
L 3047 1100 
L 3047 0 
L 2419 0 
L 2419 1100 
L 313 1100 
L 313 1709 
L 2253 4666 
z
" transform="scale(0.015625)"/>
       </defs>
       <use xlink:href="#DejaVuSans-34"/>
       <use xlink:href="#DejaVuSans-30" x="63.623047"/>
       <use xlink:href="#DejaVuSans-30" x="127.246094"/>
       <use xlink:href="#DejaVuSans-30" x="190.869141"/>
      </g>
     </g>
    </g>
    <g id="xtick_6">
     <g id="line2d_6">
      <g>
       <use xlink:href="#md2d58f1c44" x="276.03637" y="57.268421" style="stroke: #000000; stroke-width: 0.8"/>
      </g>
     </g>
     <g id="text_6">
      <!-- 5000 -->
      <g transform="translate(267.12887 69.587327)scale(0.07 -0.07)">
       <defs>
        <path id="DejaVuSans-35" d="M 691 4666 
L 3169 4666 
L 3169 4134 
L 1269 4134 
L 1269 2991 
Q 1406 3038 1543 3061 
Q 1681 3084 1819 3084 
Q 2600 3084 3056 2656 
Q 3513 2228 3513 1497 
Q 3513 744 3044 326 
Q 2575 -91 1722 -91 
Q 1428 -91 1123 -41 
Q 819 9 494 109 
L 494 744 
Q 775 591 1075 516 
Q 1375 441 1709 441 
Q 2250 441 2565 725 
Q 2881 1009 2881 1497 
Q 2881 1984 2565 2268 
Q 2250 2553 1709 2553 
Q 1456 2553 1204 2497 
Q 953 2441 691 2322 
L 691 4666 
z
" transform="scale(0.015625)"/>
       </defs>
       <use xlink:href="#DejaVuSans-35"/>
       <use xlink:href="#DejaVuSans-30" x="63.623047"/>
       <use xlink:href="#DejaVuSans-30" x="127.246094"/>
       <use xlink:href="#DejaVuSans-30" x="190.869141"/>
      </g>
     </g>
    </g>
    <g id="xtick_7">
     <g id="line2d_7">
      <g>
       <use xlink:href="#md2d58f1c44" x="326.622144" y="57.268421" style="stroke: #000000; stroke-width: 0.8"/>
      </g>
     </g>
     <g id="text_7">
      <!-- 6000 -->
      <g transform="translate(317.714644 69.587327)scale(0.07 -0.07)">
       <defs>
        <path id="DejaVuSans-36" d="M 2113 2584 
Q 1688 2584 1439 2293 
Q 1191 2003 1191 1497 
Q 1191 994 1439 701 
Q 1688 409 2113 409 
Q 2538 409 2786 701 
Q 3034 994 3034 1497 
Q 3034 2003 2786 2293 
Q 2538 2584 2113 2584 
z
M 3366 4563 
L 3366 3988 
Q 3128 4100 2886 4159 
Q 2644 4219 2406 4219 
Q 1781 4219 1451 3797 
Q 1122 3375 1075 2522 
Q 1259 2794 1537 2939 
Q 1816 3084 2150 3084 
Q 2853 3084 3261 2657 
Q 3669 2231 3669 1497 
Q 3669 778 3244 343 
Q 2819 -91 2113 -91 
Q 1303 -91 875 529 
Q 447 1150 447 2328 
Q 447 3434 972 4092 
Q 1497 4750 2381 4750 
Q 2619 4750 2861 4703 
Q 3103 4656 3366 4563 
z
" transform="scale(0.015625)"/>
       </defs>
       <use xlink:href="#DejaVuSans-36"/>
       <use xlink:href="#DejaVuSans-30" x="63.623047"/>
       <use xlink:href="#DejaVuSans-30" x="127.246094"/>
       <use xlink:href="#DejaVuSans-30" x="190.869141"/>
      </g>
     </g>
    </g>
    <g id="xtick_8">
     <g id="line2d_8">
      <g>
       <use xlink:href="#md2d58f1c44" x="377.207918" y="57.268421" style="stroke: #000000; stroke-width: 0.8"/>
      </g>
     </g>
     <g id="text_8">
      <!-- 7000 -->
      <g transform="translate(368.300418 69.587327)scale(0.07 -0.07)">
       <defs>
        <path id="DejaVuSans-37" d="M 525 4666 
L 3525 4666 
L 3525 4397 
L 1831 0 
L 1172 0 
L 2766 4134 
L 525 4134 
L 525 4666 
z
" transform="scale(0.015625)"/>
       </defs>
       <use xlink:href="#DejaVuSans-37"/>
       <use xlink:href="#DejaVuSans-30" x="63.623047"/>
       <use xlink:href="#DejaVuSans-30" x="127.246094"/>
       <use xlink:href="#DejaVuSans-30" x="190.869141"/>
      </g>
     </g>
    </g>
   </g>
   <g id="matplotlib.axis_2">
    <g id="ytick_1">
     <g id="line2d_9">
      <defs>
       <path id="m0f294d2730" d="M 0 0 
L -3.5 0 
" style="stroke: #000000; stroke-width: 0.8"/>
      </defs>
      <g>
       <use xlink:href="#m0f294d2730" x="23.1075" y="57.268421" style="stroke: #000000; stroke-width: 0.8"/>
      </g>
     </g>
     <g id="text_9">
      <!-- 0 -->
      <g transform="translate(11.65375 59.927874)scale(0.07 -0.07)">
       <use xlink:href="#DejaVuSans-30"/>
      </g>
     </g>
    </g>
    <g id="ytick_2">
     <g id="line2d_10">
      <g>
       <use xlink:href="#m0f294d2730" x="23.1075" y="28.657895" style="stroke: #000000; stroke-width: 0.8"/>
      </g>
     </g>
     <g id="text_10">
      <!-- 20 -->
      <g transform="translate(7.2 31.317348)scale(0.07 -0.07)">
       <use xlink:href="#DejaVuSans-32"/>
       <use xlink:href="#DejaVuSans-30" x="63.623047"/>
      </g>
     </g>
    </g>
   </g>
   <g id="line2d_11">
    <path d="M 25.636789 55.038055 
L 34.286956 53.93897 
L 40.610178 51.4516 
L 44.859383 52.293673 
L 48.299215 52.752099 
L 54.82478 52.756587 
L 59.630429 51.177987 
L 67.370052 51.472267 
L 71.872186 55.146641 
L 75.716705 52.514673 
L 81.635241 51.541931 
L 84.973902 51.08618 
L 93.978169 52.675675 
L 108.445701 52.979277 
L 114.718337 53.254124 
L 118.208755 50.675358 
L 128.578839 51.321981 
L 143.198128 51.952437 
L 146.840303 52.81971 
L 151.797709 45.168843 
L 156.957458 52.763131 
L 162.623065 52.740223 
L 174.915408 50.514767 
L 179.822228 52.639058 
L 182.90796 49.740879 
L 195.706161 55.23899 
L 204.609257 53.171414 
L 233.594906 50.413036 
L 239.361684 52.257037 
L 244.926119 53.486548 
L 256.156161 54.217023 
L 259.292479 53.763165 
L 263.187584 52.598405 
L 269.156705 51.881084 
L 272.343609 51.44867 
L 278.616245 54.617932 
L 286.81114 53.487253 
L 295.056621 53.398381 
L 302.13863 52.958948 
L 305.932563 55.031544 
L 316.808504 52.33189 
L 320.197751 52.815106 
L 325.205743 52.742278 
L 328.342061 52.756753 
L 333.451224 53.267189 
L 344.883609 54.020495 
L 349.8916 53.895778 
L 356.467751 52.757582 
L 360.008755 53.741065 
L 365.269676 52.833223 
L 370.12591 53.598352 
L 378.776077 52.722346 
L 382.317082 54.738702 
" clip-path="url(#p3cd35ede7d)" style="fill: none; stroke: #0000ff; stroke-width: 3; stroke-linecap: square"/>
   </g>
   <g id="LineCollection_1">
    <path d="M 25.636789 57.721503 
L 25.636789 52.354607 
" clip-path="url(#p3cd35ede7d)" style="fill: none; stroke: #000000; stroke-width: 1.5"/>
    <path d="M 34.286956 57.087372 
L 34.286956 50.790567 
" clip-path="url(#p3cd35ede7d)" style="fill: none; stroke: #000000; stroke-width: 1.5"/>
    <path d="M 40.610178 55.77272 
L 40.610178 47.130479 
" clip-path="url(#p3cd35ede7d)" style="fill: none; stroke: #000000; stroke-width: 1.5"/>
    <path d="M 44.859383 55.83166 
L 44.859383 48.755686 
" clip-path="url(#p3cd35ede7d)" style="fill: none; stroke: #000000; stroke-width: 1.5"/>
    <path d="M 48.299215 56.30268 
L 48.299215 49.201518 
" clip-path="url(#p3cd35ede7d)" style="fill: none; stroke: #000000; stroke-width: 1.5"/>
    <path d="M 54.82478 56.180547 
L 54.82478 49.332626 
" clip-path="url(#p3cd35ede7d)" style="fill: none; stroke: #000000; stroke-width: 1.5"/>
    <path d="M 59.630429 55.808945 
L 59.630429 46.547028 
" clip-path="url(#p3cd35ede7d)" style="fill: none; stroke: #000000; stroke-width: 1.5"/>
    <path d="M 67.370052 55.685697 
L 67.370052 47.258838 
" clip-path="url(#p3cd35ede7d)" style="fill: none; stroke: #000000; stroke-width: 1.5"/>
    <path d="M 71.872186 57.512413 
L 71.872186 52.780869 
" clip-path="url(#p3cd35ede7d)" style="fill: none; stroke: #000000; stroke-width: 1.5"/>
    <path d="M 75.716705 55.832858 
L 75.716705 49.196487 
" clip-path="url(#p3cd35ede7d)" style="fill: none; stroke: #000000; stroke-width: 1.5"/>
    <path d="M 81.635241 55.561844 
L 81.635241 47.522018 
" clip-path="url(#p3cd35ede7d)" style="fill: none; stroke: #000000; stroke-width: 1.5"/>
    <path d="M 84.973902 55.080565 
L 84.973902 47.091794 
" clip-path="url(#p3cd35ede7d)" style="fill: none; stroke: #000000; stroke-width: 1.5"/>
    <path d="M 93.978169 55.825635 
L 93.978169 49.525715 
" clip-path="url(#p3cd35ede7d)" style="fill: none; stroke: #000000; stroke-width: 1.5"/>
    <path d="M 108.445701 56.234002 
L 108.445701 49.724552 
" clip-path="url(#p3cd35ede7d)" style="fill: none; stroke: #000000; stroke-width: 1.5"/>
    <path d="M 114.718337 56.596276 
L 114.718337 49.911972 
" clip-path="url(#p3cd35ede7d)" style="fill: none; stroke: #000000; stroke-width: 1.5"/>
    <path d="M 118.208755 54.665256 
L 118.208755 46.685459 
" clip-path="url(#p3cd35ede7d)" style="fill: none; stroke: #000000; stroke-width: 1.5"/>
    <path d="M 128.578839 54.940617 
L 128.578839 47.703345 
" clip-path="url(#p3cd35ede7d)" style="fill: none; stroke: #000000; stroke-width: 1.5"/>
    <path d="M 143.198128 56.69949 
L 143.198128 47.205385 
" clip-path="url(#p3cd35ede7d)" style="fill: none; stroke: #000000; stroke-width: 1.5"/>
    <path d="M 146.840303 56.597558 
L 146.840303 49.041863 
" clip-path="url(#p3cd35ede7d)" style="fill: none; stroke: #000000; stroke-width: 1.5"/>
    <path d="M 151.797709 54.612804 
L 151.797709 35.724882 
" clip-path="url(#p3cd35ede7d)" style="fill: none; stroke: #000000; stroke-width: 1.5"/>
    <path d="M 156.957458 56.16501 
L 156.957458 49.361252 
" clip-path="url(#p3cd35ede7d)" style="fill: none; stroke: #000000; stroke-width: 1.5"/>
    <path d="M 162.623065 55.943089 
L 162.623065 49.537357 
" clip-path="url(#p3cd35ede7d)" style="fill: none; stroke: #000000; stroke-width: 1.5"/>
    <path d="M 174.915408 55.669524 
L 174.915408 45.36001 
" clip-path="url(#p3cd35ede7d)" style="fill: none; stroke: #000000; stroke-width: 1.5"/>
    <path d="M 179.822228 56.427192 
L 179.822228 48.850925 
" clip-path="url(#p3cd35ede7d)" style="fill: none; stroke: #000000; stroke-width: 1.5"/>
    <path d="M 182.90796 54.711657 
L 182.90796 44.770102 
" clip-path="url(#p3cd35ede7d)" style="fill: none; stroke: #000000; stroke-width: 1.5"/>
    <path d="M 195.706161 57.631355 
L 195.706161 52.846625 
" clip-path="url(#p3cd35ede7d)" style="fill: none; stroke: #000000; stroke-width: 1.5"/>
    <path d="M 204.609257 56.293635 
L 204.609257 50.049192 
" clip-path="url(#p3cd35ede7d)" style="fill: none; stroke: #000000; stroke-width: 1.5"/>
    <path d="M 233.594906 54.767792 
L 233.594906 46.058279 
" clip-path="url(#p3cd35ede7d)" style="fill: none; stroke: #000000; stroke-width: 1.5"/>
    <path d="M 239.361684 55.666727 
L 239.361684 48.847347 
" clip-path="url(#p3cd35ede7d)" style="fill: none; stroke: #000000; stroke-width: 1.5"/>
    <path d="M 244.926119 56.624346 
L 244.926119 50.34875 
" clip-path="url(#p3cd35ede7d)" style="fill: none; stroke: #000000; stroke-width: 1.5"/>
    <path d="M 256.156161 56.785937 
L 256.156161 51.648109 
" clip-path="url(#p3cd35ede7d)" style="fill: none; stroke: #000000; stroke-width: 1.5"/>
    <path d="M 259.292479 56.66358 
L 259.292479 50.86275 
" clip-path="url(#p3cd35ede7d)" style="fill: none; stroke: #000000; stroke-width: 1.5"/>
    <path d="M 263.187584 56.054667 
L 263.187584 49.142142 
" clip-path="url(#p3cd35ede7d)" style="fill: none; stroke: #000000; stroke-width: 1.5"/>
    <path d="M 269.156705 55.822841 
L 269.156705 47.939328 
" clip-path="url(#p3cd35ede7d)" style="fill: none; stroke: #000000; stroke-width: 1.5"/>
    <path d="M 272.343609 55.581892 
L 272.343609 47.315449 
" clip-path="url(#p3cd35ede7d)" style="fill: none; stroke: #000000; stroke-width: 1.5"/>
    <path d="M 278.616245 57.501947 
L 278.616245 51.733917 
" clip-path="url(#p3cd35ede7d)" style="fill: none; stroke: #000000; stroke-width: 1.5"/>
    <path d="M 286.81114 56.333985 
L 286.81114 50.640521 
" clip-path="url(#p3cd35ede7d)" style="fill: none; stroke: #000000; stroke-width: 1.5"/>
    <path d="M 295.056621 56.564647 
L 295.056621 50.232114 
" clip-path="url(#p3cd35ede7d)" style="fill: none; stroke: #000000; stroke-width: 1.5"/>
    <path d="M 302.13863 56.229783 
L 302.13863 49.688113 
" clip-path="url(#p3cd35ede7d)" style="fill: none; stroke: #000000; stroke-width: 1.5"/>
    <path d="M 305.932563 57.697207 
L 305.932563 52.365881 
" clip-path="url(#p3cd35ede7d)" style="fill: none; stroke: #000000; stroke-width: 1.5"/>
    <path d="M 316.808504 56.124378 
L 316.808504 48.539402 
" clip-path="url(#p3cd35ede7d)" style="fill: none; stroke: #000000; stroke-width: 1.5"/>
    <path d="M 320.197751 56.009155 
L 320.197751 49.621057 
" clip-path="url(#p3cd35ede7d)" style="fill: none; stroke: #000000; stroke-width: 1.5"/>
    <path d="M 325.205743 56.143748 
L 325.205743 49.340808 
" clip-path="url(#p3cd35ede7d)" style="fill: none; stroke: #000000; stroke-width: 1.5"/>
    <path d="M 328.342061 56.032012 
L 328.342061 49.481493 
" clip-path="url(#p3cd35ede7d)" style="fill: none; stroke: #000000; stroke-width: 1.5"/>
    <path d="M 333.451224 56.27925 
L 333.451224 50.255127 
" clip-path="url(#p3cd35ede7d)" style="fill: none; stroke: #000000; stroke-width: 1.5"/>
    <path d="M 344.883609 56.732852 
L 344.883609 51.308138 
" clip-path="url(#p3cd35ede7d)" style="fill: none; stroke: #000000; stroke-width: 1.5"/>
    <path d="M 349.8916 56.65498 
L 349.8916 51.136576 
" clip-path="url(#p3cd35ede7d)" style="fill: none; stroke: #000000; stroke-width: 1.5"/>
    <path d="M 356.467751 56.169819 
L 356.467751 49.345345 
" clip-path="url(#p3cd35ede7d)" style="fill: none; stroke: #000000; stroke-width: 1.5"/>
    <path d="M 360.008755 56.519222 
L 360.008755 50.962909 
" clip-path="url(#p3cd35ede7d)" style="fill: none; stroke: #000000; stroke-width: 1.5"/>
    <path d="M 365.269676 55.999763 
L 365.269676 49.666683 
" clip-path="url(#p3cd35ede7d)" style="fill: none; stroke: #000000; stroke-width: 1.5"/>
    <path d="M 370.12591 56.843644 
L 370.12591 50.35306 
" clip-path="url(#p3cd35ede7d)" style="fill: none; stroke: #000000; stroke-width: 1.5"/>
    <path d="M 378.776077 56.224597 
L 378.776077 49.220095 
" clip-path="url(#p3cd35ede7d)" style="fill: none; stroke: #000000; stroke-width: 1.5"/>
    <path d="M 382.317082 56.956471 
L 382.317082 52.520932 
" clip-path="url(#p3cd35ede7d)" style="fill: none; stroke: #000000; stroke-width: 1.5"/>
   </g>
   <g id="line2d_12">
    <defs>
     <path id="m1380f8d483" d="M 3 0 
L -3 -0 
" style="stroke: #000000"/>
    </defs>
    <g clip-path="url(#p3cd35ede7d)">
     <use xlink:href="#m1380f8d483" x="25.636789" y="57.721503" style="stroke: #000000"/>
     <use xlink:href="#m1380f8d483" x="34.286956" y="57.087372" style="stroke: #000000"/>
     <use xlink:href="#m1380f8d483" x="40.610178" y="55.77272" style="stroke: #000000"/>
     <use xlink:href="#m1380f8d483" x="44.859383" y="55.83166" style="stroke: #000000"/>
     <use xlink:href="#m1380f8d483" x="48.299215" y="56.30268" style="stroke: #000000"/>
     <use xlink:href="#m1380f8d483" x="54.82478" y="56.180547" style="stroke: #000000"/>
     <use xlink:href="#m1380f8d483" x="59.630429" y="55.808945" style="stroke: #000000"/>
     <use xlink:href="#m1380f8d483" x="67.370052" y="55.685697" style="stroke: #000000"/>
     <use xlink:href="#m1380f8d483" x="71.872186" y="57.512413" style="stroke: #000000"/>
     <use xlink:href="#m1380f8d483" x="75.716705" y="55.832858" style="stroke: #000000"/>
     <use xlink:href="#m1380f8d483" x="81.635241" y="55.561844" style="stroke: #000000"/>
     <use xlink:href="#m1380f8d483" x="84.973902" y="55.080565" style="stroke: #000000"/>
     <use xlink:href="#m1380f8d483" x="93.978169" y="55.825635" style="stroke: #000000"/>
     <use xlink:href="#m1380f8d483" x="108.445701" y="56.234002" style="stroke: #000000"/>
     <use xlink:href="#m1380f8d483" x="114.718337" y="56.596276" style="stroke: #000000"/>
     <use xlink:href="#m1380f8d483" x="118.208755" y="54.665256" style="stroke: #000000"/>
     <use xlink:href="#m1380f8d483" x="128.578839" y="54.940617" style="stroke: #000000"/>
     <use xlink:href="#m1380f8d483" x="143.198128" y="56.69949" style="stroke: #000000"/>
     <use xlink:href="#m1380f8d483" x="146.840303" y="56.597558" style="stroke: #000000"/>
     <use xlink:href="#m1380f8d483" x="151.797709" y="54.612804" style="stroke: #000000"/>
     <use xlink:href="#m1380f8d483" x="156.957458" y="56.16501" style="stroke: #000000"/>
     <use xlink:href="#m1380f8d483" x="162.623065" y="55.943089" style="stroke: #000000"/>
     <use xlink:href="#m1380f8d483" x="174.915408" y="55.669524" style="stroke: #000000"/>
     <use xlink:href="#m1380f8d483" x="179.822228" y="56.427192" style="stroke: #000000"/>
     <use xlink:href="#m1380f8d483" x="182.90796" y="54.711657" style="stroke: #000000"/>
     <use xlink:href="#m1380f8d483" x="195.706161" y="57.631355" style="stroke: #000000"/>
     <use xlink:href="#m1380f8d483" x="204.609257" y="56.293635" style="stroke: #000000"/>
     <use xlink:href="#m1380f8d483" x="233.594906" y="54.767792" style="stroke: #000000"/>
     <use xlink:href="#m1380f8d483" x="239.361684" y="55.666727" style="stroke: #000000"/>
     <use xlink:href="#m1380f8d483" x="244.926119" y="56.624346" style="stroke: #000000"/>
     <use xlink:href="#m1380f8d483" x="256.156161" y="56.785937" style="stroke: #000000"/>
     <use xlink:href="#m1380f8d483" x="259.292479" y="56.66358" style="stroke: #000000"/>
     <use xlink:href="#m1380f8d483" x="263.187584" y="56.054667" style="stroke: #000000"/>
     <use xlink:href="#m1380f8d483" x="269.156705" y="55.822841" style="stroke: #000000"/>
     <use xlink:href="#m1380f8d483" x="272.343609" y="55.581892" style="stroke: #000000"/>
     <use xlink:href="#m1380f8d483" x="278.616245" y="57.501947" style="stroke: #000000"/>
     <use xlink:href="#m1380f8d483" x="286.81114" y="56.333985" style="stroke: #000000"/>
     <use xlink:href="#m1380f8d483" x="295.056621" y="56.564647" style="stroke: #000000"/>
     <use xlink:href="#m1380f8d483" x="302.13863" y="56.229783" style="stroke: #000000"/>
     <use xlink:href="#m1380f8d483" x="305.932563" y="57.697207" style="stroke: #000000"/>
     <use xlink:href="#m1380f8d483" x="316.808504" y="56.124378" style="stroke: #000000"/>
     <use xlink:href="#m1380f8d483" x="320.197751" y="56.009155" style="stroke: #000000"/>
     <use xlink:href="#m1380f8d483" x="325.205743" y="56.143748" style="stroke: #000000"/>
     <use xlink:href="#m1380f8d483" x="328.342061" y="56.032012" style="stroke: #000000"/>
     <use xlink:href="#m1380f8d483" x="333.451224" y="56.27925" style="stroke: #000000"/>
     <use xlink:href="#m1380f8d483" x="344.883609" y="56.732852" style="stroke: #000000"/>
     <use xlink:href="#m1380f8d483" x="349.8916" y="56.65498" style="stroke: #000000"/>
     <use xlink:href="#m1380f8d483" x="356.467751" y="56.169819" style="stroke: #000000"/>
     <use xlink:href="#m1380f8d483" x="360.008755" y="56.519222" style="stroke: #000000"/>
     <use xlink:href="#m1380f8d483" x="365.269676" y="55.999763" style="stroke: #000000"/>
     <use xlink:href="#m1380f8d483" x="370.12591" y="56.843644" style="stroke: #000000"/>
     <use xlink:href="#m1380f8d483" x="378.776077" y="56.224597" style="stroke: #000000"/>
     <use xlink:href="#m1380f8d483" x="382.317082" y="56.956471" style="stroke: #000000"/>
    </g>
   </g>
   <g id="line2d_13">
    <g clip-path="url(#p3cd35ede7d)">
     <use xlink:href="#m1380f8d483" x="25.636789" y="52.354607" style="stroke: #000000"/>
     <use xlink:href="#m1380f8d483" x="34.286956" y="50.790567" style="stroke: #000000"/>
     <use xlink:href="#m1380f8d483" x="40.610178" y="47.130479" style="stroke: #000000"/>
     <use xlink:href="#m1380f8d483" x="44.859383" y="48.755686" style="stroke: #000000"/>
     <use xlink:href="#m1380f8d483" x="48.299215" y="49.201518" style="stroke: #000000"/>
     <use xlink:href="#m1380f8d483" x="54.82478" y="49.332626" style="stroke: #000000"/>
     <use xlink:href="#m1380f8d483" x="59.630429" y="46.547028" style="stroke: #000000"/>
     <use xlink:href="#m1380f8d483" x="67.370052" y="47.258838" style="stroke: #000000"/>
     <use xlink:href="#m1380f8d483" x="71.872186" y="52.780869" style="stroke: #000000"/>
     <use xlink:href="#m1380f8d483" x="75.716705" y="49.196487" style="stroke: #000000"/>
     <use xlink:href="#m1380f8d483" x="81.635241" y="47.522018" style="stroke: #000000"/>
     <use xlink:href="#m1380f8d483" x="84.973902" y="47.091794" style="stroke: #000000"/>
     <use xlink:href="#m1380f8d483" x="93.978169" y="49.525715" style="stroke: #000000"/>
     <use xlink:href="#m1380f8d483" x="108.445701" y="49.724552" style="stroke: #000000"/>
     <use xlink:href="#m1380f8d483" x="114.718337" y="49.911972" style="stroke: #000000"/>
     <use xlink:href="#m1380f8d483" x="118.208755" y="46.685459" style="stroke: #000000"/>
     <use xlink:href="#m1380f8d483" x="128.578839" y="47.703345" style="stroke: #000000"/>
     <use xlink:href="#m1380f8d483" x="143.198128" y="47.205385" style="stroke: #000000"/>
     <use xlink:href="#m1380f8d483" x="146.840303" y="49.041863" style="stroke: #000000"/>
     <use xlink:href="#m1380f8d483" x="151.797709" y="35.724882" style="stroke: #000000"/>
     <use xlink:href="#m1380f8d483" x="156.957458" y="49.361252" style="stroke: #000000"/>
     <use xlink:href="#m1380f8d483" x="162.623065" y="49.537357" style="stroke: #000000"/>
     <use xlink:href="#m1380f8d483" x="174.915408" y="45.36001" style="stroke: #000000"/>
     <use xlink:href="#m1380f8d483" x="179.822228" y="48.850925" style="stroke: #000000"/>
     <use xlink:href="#m1380f8d483" x="182.90796" y="44.770102" style="stroke: #000000"/>
     <use xlink:href="#m1380f8d483" x="195.706161" y="52.846625" style="stroke: #000000"/>
     <use xlink:href="#m1380f8d483" x="204.609257" y="50.049192" style="stroke: #000000"/>
     <use xlink:href="#m1380f8d483" x="233.594906" y="46.058279" style="stroke: #000000"/>
     <use xlink:href="#m1380f8d483" x="239.361684" y="48.847347" style="stroke: #000000"/>
     <use xlink:href="#m1380f8d483" x="244.926119" y="50.34875" style="stroke: #000000"/>
     <use xlink:href="#m1380f8d483" x="256.156161" y="51.648109" style="stroke: #000000"/>
     <use xlink:href="#m1380f8d483" x="259.292479" y="50.86275" style="stroke: #000000"/>
     <use xlink:href="#m1380f8d483" x="263.187584" y="49.142142" style="stroke: #000000"/>
     <use xlink:href="#m1380f8d483" x="269.156705" y="47.939328" style="stroke: #000000"/>
     <use xlink:href="#m1380f8d483" x="272.343609" y="47.315449" style="stroke: #000000"/>
     <use xlink:href="#m1380f8d483" x="278.616245" y="51.733917" style="stroke: #000000"/>
     <use xlink:href="#m1380f8d483" x="286.81114" y="50.640521" style="stroke: #000000"/>
     <use xlink:href="#m1380f8d483" x="295.056621" y="50.232114" style="stroke: #000000"/>
     <use xlink:href="#m1380f8d483" x="302.13863" y="49.688113" style="stroke: #000000"/>
     <use xlink:href="#m1380f8d483" x="305.932563" y="52.365881" style="stroke: #000000"/>
     <use xlink:href="#m1380f8d483" x="316.808504" y="48.539402" style="stroke: #000000"/>
     <use xlink:href="#m1380f8d483" x="320.197751" y="49.621057" style="stroke: #000000"/>
     <use xlink:href="#m1380f8d483" x="325.205743" y="49.340808" style="stroke: #000000"/>
     <use xlink:href="#m1380f8d483" x="328.342061" y="49.481493" style="stroke: #000000"/>
     <use xlink:href="#m1380f8d483" x="333.451224" y="50.255127" style="stroke: #000000"/>
     <use xlink:href="#m1380f8d483" x="344.883609" y="51.308138" style="stroke: #000000"/>
     <use xlink:href="#m1380f8d483" x="349.8916" y="51.136576" style="stroke: #000000"/>
     <use xlink:href="#m1380f8d483" x="356.467751" y="49.345345" style="stroke: #000000"/>
     <use xlink:href="#m1380f8d483" x="360.008755" y="50.962909" style="stroke: #000000"/>
     <use xlink:href="#m1380f8d483" x="365.269676" y="49.666683" style="stroke: #000000"/>
     <use xlink:href="#m1380f8d483" x="370.12591" y="50.35306" style="stroke: #000000"/>
     <use xlink:href="#m1380f8d483" x="378.776077" y="49.220095" style="stroke: #000000"/>
     <use xlink:href="#m1380f8d483" x="382.317082" y="52.520932" style="stroke: #000000"/>
    </g>
   </g>
   <g id="line2d_14"/>
   <g id="patch_3">
    <path d="M 23.1075 61.56 
L 23.1075 7.2 
" style="fill: none; stroke: #000000; stroke-width: 0.8; stroke-linejoin: miter; stroke-linecap: square"/>
   </g>
   <g id="patch_4">
    <path d="M 23.1075 57.268421 
L 385.8075 57.268421 
" style="fill: none; stroke: #000000; stroke-width: 0.8; stroke-linejoin: miter; stroke-linecap: square"/>
   </g>
  </g>
 </g>
 <defs>
  <clipPath id="p3cd35ede7d">
   <rect x="23.1075" y="7.2" width="362.7" height="54.36"/>
  </clipPath>
 </defs>
</svg>
