<?xml version="1.0" encoding="utf-8" standalone="no"?>
<!DOCTYPE svg PUBLIC "-//W3C//DTD SVG 1.1//EN"
  "http://www.w3.org/Graphics/SVG/1.1/DTD/svg11.dtd">
<svg xmlns:xlink="http://www.w3.org/1999/xlink" width="393.968521pt" height="78.243109pt" viewBox="0 0 393.968521 78.243109" xmlns="http://www.w3.org/2000/svg" version="1.1">
 <metadata>
  <rdf:RDF xmlns:dc="http://purl.org/dc/elements/1.1/" xmlns:cc="http://creativecommons.org/ns#" xmlns:rdf="http://www.w3.org/1999/02/22-rdf-syntax-ns#">
   <cc:Work>
    <dc:type rdf:resource="http://purl.org/dc/dcmitype/StillImage"/>
    <dc:date>2024-05-24T10:52:40.116643</dc:date>
    <dc:format>image/svg+xml</dc:format>
    <dc:creator>
     <cc:Agent>
      <dc:title>Matplotlib v3.5.1, https://matplotlib.org/</dc:title>
     </cc:Agent>
    </dc:creator>
   </cc:Work>
  </rdf:RDF>
 </metadata>
 <defs>
  <style type="text/css">*{stroke-linejoin: round; stroke-linecap: butt}</style>
 </defs>
 <g id="figure_1">
  <g id="patch_1">
   <path d="M 0 78.243109 
L 393.968521 78.243109 
L 393.968521 0 
L 0 0 
z
" style="fill: #ffffff"/>
  </g>
  <g id="axes_1">
   <g id="patch_2">
    <path d="M 23.1075 61.56 
L 385.8075 61.56 
L 385.8075 7.2 
L 23.1075 7.2 
z
" style="fill: #ffffff"/>
   </g>
   <g id="matplotlib.axis_1">
    <g id="xtick_1">
     <g id="line2d_1">
      <defs>
       <path id="m0e37beccbf" d="M 0 0 
L 0 3.5 
" style="stroke: #000000; stroke-width: 0.8"/>
      </defs>
      <g>
       <use xlink:href="#m0e37beccbf" x="23.1075" y="57.268421" style="stroke: #000000; stroke-width: 0.8"/>
      </g>
     </g>
     <g id="text_1">
      <!-- 0 -->
      <g transform="translate(20.880625 69.587327)scale(0.07 -0.07)">
       <defs>
        <path id="DejaVuSans-30" d="M 2034 4250 
Q 1547 4250 1301 3770 
Q 1056 3291 1056 2328 
Q 1056 1369 1301 889 
Q 1547 409 2034 409 
Q 2525 409 2770 889 
Q 3016 1369 3016 2328 
Q 3016 3291 2770 3770 
Q 2525 4250 2034 4250 
z
M 2034 4750 
Q 2819 4750 3233 4129 
Q 3647 3509 3647 2328 
Q 3647 1150 3233 529 
Q 2819 -91 2034 -91 
Q 1250 -91 836 529 
Q 422 1150 422 2328 
Q 422 3509 836 4129 
Q 1250 4750 2034 4750 
z
" transform="scale(0.015625)"/>
       </defs>
       <use xlink:href="#DejaVuSans-30"/>
      </g>
     </g>
    </g>
    <g id="xtick_2">
     <g id="line2d_2">
      <g>
       <use xlink:href="#m0e37beccbf" x="94.058204" y="57.268421" style="stroke: #000000; stroke-width: 0.8"/>
      </g>
     </g>
     <g id="text_2">
      <!-- 500 -->
      <g transform="translate(87.377579 69.587327)scale(0.07 -0.07)">
       <defs>
        <path id="DejaVuSans-35" d="M 691 4666 
L 3169 4666 
L 3169 4134 
L 1269 4134 
L 1269 2991 
Q 1406 3038 1543 3061 
Q 1681 3084 1819 3084 
Q 2600 3084 3056 2656 
Q 3513 2228 3513 1497 
Q 3513 744 3044 326 
Q 2575 -91 1722 -91 
Q 1428 -91 1123 -41 
Q 819 9 494 109 
L 494 744 
Q 775 591 1075 516 
Q 1375 441 1709 441 
Q 2250 441 2565 725 
Q 2881 1009 2881 1497 
Q 2881 1984 2565 2268 
Q 2250 2553 1709 2553 
Q 1456 2553 1204 2497 
Q 953 2441 691 2322 
L 691 4666 
z
" transform="scale(0.015625)"/>
       </defs>
       <use xlink:href="#DejaVuSans-35"/>
       <use xlink:href="#DejaVuSans-30" x="63.623047"/>
       <use xlink:href="#DejaVuSans-30" x="127.246094"/>
      </g>
     </g>
    </g>
    <g id="xtick_3">
     <g id="line2d_3">
      <g>
       <use xlink:href="#m0e37beccbf" x="165.008908" y="57.268421" style="stroke: #000000; stroke-width: 0.8"/>
      </g>
     </g>
     <g id="text_3">
      <!-- 1000 -->
      <g transform="translate(156.101408 69.587327)scale(0.07 -0.07)">
       <defs>
        <path id="DejaVuSans-31" d="M 794 531 
L 1825 531 
L 1825 4091 
L 703 3866 
L 703 4441 
L 1819 4666 
L 2450 4666 
L 2450 531 
L 3481 531 
L 3481 0 
L 794 0 
L 794 531 
z
" transform="scale(0.015625)"/>
       </defs>
       <use xlink:href="#DejaVuSans-31"/>
       <use xlink:href="#DejaVuSans-30" x="63.623047"/>
       <use xlink:href="#DejaVuSans-30" x="127.246094"/>
       <use xlink:href="#DejaVuSans-30" x="190.869141"/>
      </g>
     </g>
    </g>
    <g id="xtick_4">
     <g id="line2d_4">
      <g>
       <use xlink:href="#m0e37beccbf" x="235.959613" y="57.268421" style="stroke: #000000; stroke-width: 0.8"/>
      </g>
     </g>
     <g id="text_4">
      <!-- 1500 -->
      <g transform="translate(227.052113 69.587327)scale(0.07 -0.07)">
       <use xlink:href="#DejaVuSans-31"/>
       <use xlink:href="#DejaVuSans-35" x="63.623047"/>
       <use xlink:href="#DejaVuSans-30" x="127.246094"/>
       <use xlink:href="#DejaVuSans-30" x="190.869141"/>
      </g>
     </g>
    </g>
    <g id="xtick_5">
     <g id="line2d_5">
      <g>
       <use xlink:href="#m0e37beccbf" x="306.910317" y="57.268421" style="stroke: #000000; stroke-width: 0.8"/>
      </g>
     </g>
     <g id="text_5">
      <!-- 2000 -->
      <g transform="translate(298.002817 69.587327)scale(0.07 -0.07)">
       <defs>
        <path id="DejaVuSans-32" d="M 1228 531 
L 3431 531 
L 3431 0 
L 469 0 
L 469 531 
Q 828 903 1448 1529 
Q 2069 2156 2228 2338 
Q 2531 2678 2651 2914 
Q 2772 3150 2772 3378 
Q 2772 3750 2511 3984 
Q 2250 4219 1831 4219 
Q 1534 4219 1204 4116 
Q 875 4013 500 3803 
L 500 4441 
Q 881 4594 1212 4672 
Q 1544 4750 1819 4750 
Q 2544 4750 2975 4387 
Q 3406 4025 3406 3419 
Q 3406 3131 3298 2873 
Q 3191 2616 2906 2266 
Q 2828 2175 2409 1742 
Q 1991 1309 1228 531 
z
" transform="scale(0.015625)"/>
       </defs>
       <use xlink:href="#DejaVuSans-32"/>
       <use xlink:href="#DejaVuSans-30" x="63.623047"/>
       <use xlink:href="#DejaVuSans-30" x="127.246094"/>
       <use xlink:href="#DejaVuSans-30" x="190.869141"/>
      </g>
     </g>
    </g>
    <g id="xtick_6">
     <g id="line2d_6">
      <g>
       <use xlink:href="#m0e37beccbf" x="377.861021" y="57.268421" style="stroke: #000000; stroke-width: 0.8"/>
      </g>
     </g>
     <g id="text_6">
      <!-- 2500 -->
      <g transform="translate(368.953521 69.587327)scale(0.07 -0.07)">
       <use xlink:href="#DejaVuSans-32"/>
       <use xlink:href="#DejaVuSans-35" x="63.623047"/>
       <use xlink:href="#DejaVuSans-30" x="127.246094"/>
       <use xlink:href="#DejaVuSans-30" x="190.869141"/>
      </g>
     </g>
    </g>
   </g>
   <g id="matplotlib.axis_2">
    <g id="ytick_1">
     <g id="line2d_7">
      <defs>
       <path id="m1a9854b9fc" d="M 0 0 
L -3.5 0 
" style="stroke: #000000; stroke-width: 0.8"/>
      </defs>
      <g>
       <use xlink:href="#m1a9854b9fc" x="23.1075" y="57.268421" style="stroke: #000000; stroke-width: 0.8"/>
      </g>
     </g>
     <g id="text_7">
      <!-- 0 -->
      <g transform="translate(11.65375 59.927874)scale(0.07 -0.07)">
       <use xlink:href="#DejaVuSans-30"/>
      </g>
     </g>
    </g>
    <g id="ytick_2">
     <g id="line2d_8">
      <g>
       <use xlink:href="#m1a9854b9fc" x="23.1075" y="28.657895" style="stroke: #000000; stroke-width: 0.8"/>
      </g>
     </g>
     <g id="text_8">
      <!-- 20 -->
      <g transform="translate(7.2 31.317348)scale(0.07 -0.07)">
       <use xlink:href="#DejaVuSans-32"/>
       <use xlink:href="#DejaVuSans-30" x="63.623047"/>
      </g>
     </g>
    </g>
   </g>
   <g id="line2d_9">
    <path d="M 55.744824 31.887203 
L 64.684613 17.508396 
L 88.949754 27.044649 
L 102.430387 26.513553 
L 119.032852 23.512993 
L 130.526866 34.264617 
L 153.231092 34.610235 
L 163.447993 35.00749 
L 179.766655 34.281725 
L 188.564542 35.451252 
L 205.876514 30.187687 
L 233.121585 55.456909 
L 241.919472 55.541253 
L 250.859261 56.015598 
L 265.191303 56.437157 
L 276.543415 55.97975 
L 293.429683 55.812047 
L 303.788486 55.453081 
L 316.985317 55.071885 
L 325.925106 56.115476 
L 342.52757 55.897363 
L 355.866303 51.318135 
L 368.211725 55.951951 
L 378.854331 55.822753 
" clip-path="url(#p2c19fe95bc)" style="fill: none; stroke: #0000ff; stroke-width: 3; stroke-linecap: square"/>
   </g>
   <g id="LineCollection_1">
    <path d="M 55.744824 40.305596 
L 55.744824 23.468809 
" clip-path="url(#p2c19fe95bc)" style="fill: none; stroke: #000000; stroke-width: 1.5"/>
    <path d="M 64.684613 27.909806 
L 64.684613 7.106985 
" clip-path="url(#p2c19fe95bc)" style="fill: none; stroke: #000000; stroke-width: 1.5"/>
    <path d="M 88.949754 36.30958 
L 88.949754 17.779718 
" clip-path="url(#p2c19fe95bc)" style="fill: none; stroke: #000000; stroke-width: 1.5"/>
    <path d="M 102.430387 34.245972 
L 102.430387 18.781134 
" clip-path="url(#p2c19fe95bc)" style="fill: none; stroke: #000000; stroke-width: 1.5"/>
    <path d="M 119.032852 34.904761 
L 119.032852 12.121225 
" clip-path="url(#p2c19fe95bc)" style="fill: none; stroke: #000000; stroke-width: 1.5"/>
    <path d="M 130.526866 41.611238 
L 130.526866 26.917996 
" clip-path="url(#p2c19fe95bc)" style="fill: none; stroke: #000000; stroke-width: 1.5"/>
    <path d="M 153.231092 41.221677 
L 153.231092 27.998793 
" clip-path="url(#p2c19fe95bc)" style="fill: none; stroke: #000000; stroke-width: 1.5"/>
    <path d="M 163.447993 42.629659 
L 163.447993 27.385322 
" clip-path="url(#p2c19fe95bc)" style="fill: none; stroke: #000000; stroke-width: 1.5"/>
    <path d="M 179.766655 41.928292 
L 179.766655 26.635157 
" clip-path="url(#p2c19fe95bc)" style="fill: none; stroke: #000000; stroke-width: 1.5"/>
    <path d="M 188.564542 43.476754 
L 188.564542 27.42575 
" clip-path="url(#p2c19fe95bc)" style="fill: none; stroke: #000000; stroke-width: 1.5"/>
    <path d="M 205.876514 38.360197 
L 205.876514 22.015178 
" clip-path="url(#p2c19fe95bc)" style="fill: none; stroke: #000000; stroke-width: 1.5"/>
    <path d="M 233.121585 58.338288 
L 233.121585 52.57553 
" clip-path="url(#p2c19fe95bc)" style="fill: none; stroke: #000000; stroke-width: 1.5"/>
    <path d="M 241.919472 58.342974 
L 241.919472 52.739532 
" clip-path="url(#p2c19fe95bc)" style="fill: none; stroke: #000000; stroke-width: 1.5"/>
    <path d="M 250.859261 57.742114 
L 250.859261 54.289083 
" clip-path="url(#p2c19fe95bc)" style="fill: none; stroke: #000000; stroke-width: 1.5"/>
    <path d="M 265.191303 57.912361 
L 265.191303 54.961953 
" clip-path="url(#p2c19fe95bc)" style="fill: none; stroke: #000000; stroke-width: 1.5"/>
    <path d="M 276.543415 57.889934 
L 276.543415 54.069565 
" clip-path="url(#p2c19fe95bc)" style="fill: none; stroke: #000000; stroke-width: 1.5"/>
    <path d="M 293.429683 58.081658 
L 293.429683 53.542437 
" clip-path="url(#p2c19fe95bc)" style="fill: none; stroke: #000000; stroke-width: 1.5"/>
    <path d="M 303.788486 58.061688 
L 303.788486 52.844473 
" clip-path="url(#p2c19fe95bc)" style="fill: none; stroke: #000000; stroke-width: 1.5"/>
    <path d="M 316.985317 59.245642 
L 316.985317 50.898128 
" clip-path="url(#p2c19fe95bc)" style="fill: none; stroke: #000000; stroke-width: 1.5"/>
    <path d="M 325.925106 57.715085 
L 325.925106 54.515868 
" clip-path="url(#p2c19fe95bc)" style="fill: none; stroke: #000000; stroke-width: 1.5"/>
    <path d="M 342.52757 58.164942 
L 342.52757 53.629783 
" clip-path="url(#p2c19fe95bc)" style="fill: none; stroke: #000000; stroke-width: 1.5"/>
    <path d="M 355.866303 60.335808 
L 355.866303 42.300462 
" clip-path="url(#p2c19fe95bc)" style="fill: none; stroke: #000000; stroke-width: 1.5"/>
    <path d="M 368.211725 57.589687 
L 368.211725 54.314216 
" clip-path="url(#p2c19fe95bc)" style="fill: none; stroke: #000000; stroke-width: 1.5"/>
    <path d="M 378.854331 58.879083 
L 378.854331 52.766423 
" clip-path="url(#p2c19fe95bc)" style="fill: none; stroke: #000000; stroke-width: 1.5"/>
   </g>
   <g id="line2d_10">
    <defs>
     <path id="m63194d4093" d="M 3 0 
L -3 -0 
" style="stroke: #000000"/>
    </defs>
    <g clip-path="url(#p2c19fe95bc)">
     <use xlink:href="#m63194d4093" x="55.744824" y="40.305596" style="stroke: #000000"/>
     <use xlink:href="#m63194d4093" x="64.684613" y="27.909806" style="stroke: #000000"/>
     <use xlink:href="#m63194d4093" x="88.949754" y="36.30958" style="stroke: #000000"/>
     <use xlink:href="#m63194d4093" x="102.430387" y="34.245972" style="stroke: #000000"/>
     <use xlink:href="#m63194d4093" x="119.032852" y="34.904761" style="stroke: #000000"/>
     <use xlink:href="#m63194d4093" x="130.526866" y="41.611238" style="stroke: #000000"/>
     <use xlink:href="#m63194d4093" x="153.231092" y="41.221677" style="stroke: #000000"/>
     <use xlink:href="#m63194d4093" x="163.447993" y="42.629659" style="stroke: #000000"/>
     <use xlink:href="#m63194d4093" x="179.766655" y="41.928292" style="stroke: #000000"/>
     <use xlink:href="#m63194d4093" x="188.564542" y="43.476754" style="stroke: #000000"/>
     <use xlink:href="#m63194d4093" x="205.876514" y="38.360197" style="stroke: #000000"/>
     <use xlink:href="#m63194d4093" x="233.121585" y="58.338288" style="stroke: #000000"/>
     <use xlink:href="#m63194d4093" x="241.919472" y="58.342974" style="stroke: #000000"/>
     <use xlink:href="#m63194d4093" x="250.859261" y="57.742114" style="stroke: #000000"/>
     <use xlink:href="#m63194d4093" x="265.191303" y="57.912361" style="stroke: #000000"/>
     <use xlink:href="#m63194d4093" x="276.543415" y="57.889934" style="stroke: #000000"/>
     <use xlink:href="#m63194d4093" x="293.429683" y="58.081658" style="stroke: #000000"/>
     <use xlink:href="#m63194d4093" x="303.788486" y="58.061688" style="stroke: #000000"/>
     <use xlink:href="#m63194d4093" x="316.985317" y="59.245642" style="stroke: #000000"/>
     <use xlink:href="#m63194d4093" x="325.925106" y="57.715085" style="stroke: #000000"/>
     <use xlink:href="#m63194d4093" x="342.52757" y="58.164942" style="stroke: #000000"/>
     <use xlink:href="#m63194d4093" x="355.866303" y="60.335808" style="stroke: #000000"/>
     <use xlink:href="#m63194d4093" x="368.211725" y="57.589687" style="stroke: #000000"/>
     <use xlink:href="#m63194d4093" x="378.854331" y="58.879083" style="stroke: #000000"/>
    </g>
   </g>
   <g id="line2d_11">
    <g clip-path="url(#p2c19fe95bc)">
     <use xlink:href="#m63194d4093" x="55.744824" y="23.468809" style="stroke: #000000"/>
     <use xlink:href="#m63194d4093" x="64.684613" y="7.106985" style="stroke: #000000"/>
     <use xlink:href="#m63194d4093" x="88.949754" y="17.779718" style="stroke: #000000"/>
     <use xlink:href="#m63194d4093" x="102.430387" y="18.781134" style="stroke: #000000"/>
     <use xlink:href="#m63194d4093" x="119.032852" y="12.121225" style="stroke: #000000"/>
     <use xlink:href="#m63194d4093" x="130.526866" y="26.917996" style="stroke: #000000"/>
     <use xlink:href="#m63194d4093" x="153.231092" y="27.998793" style="stroke: #000000"/>
     <use xlink:href="#m63194d4093" x="163.447993" y="27.385322" style="stroke: #000000"/>
     <use xlink:href="#m63194d4093" x="179.766655" y="26.635157" style="stroke: #000000"/>
     <use xlink:href="#m63194d4093" x="188.564542" y="27.42575" style="stroke: #000000"/>
     <use xlink:href="#m63194d4093" x="205.876514" y="22.015178" style="stroke: #000000"/>
     <use xlink:href="#m63194d4093" x="233.121585" y="52.57553" style="stroke: #000000"/>
     <use xlink:href="#m63194d4093" x="241.919472" y="52.739532" style="stroke: #000000"/>
     <use xlink:href="#m63194d4093" x="250.859261" y="54.289083" style="stroke: #000000"/>
     <use xlink:href="#m63194d4093" x="265.191303" y="54.961953" style="stroke: #000000"/>
     <use xlink:href="#m63194d4093" x="276.543415" y="54.069565" style="stroke: #000000"/>
     <use xlink:href="#m63194d4093" x="293.429683" y="53.542437" style="stroke: #000000"/>
     <use xlink:href="#m63194d4093" x="303.788486" y="52.844473" style="stroke: #000000"/>
     <use xlink:href="#m63194d4093" x="316.985317" y="50.898128" style="stroke: #000000"/>
     <use xlink:href="#m63194d4093" x="325.925106" y="54.515868" style="stroke: #000000"/>
     <use xlink:href="#m63194d4093" x="342.52757" y="53.629783" style="stroke: #000000"/>
     <use xlink:href="#m63194d4093" x="355.866303" y="42.300462" style="stroke: #000000"/>
     <use xlink:href="#m63194d4093" x="368.211725" y="54.314216" style="stroke: #000000"/>
     <use xlink:href="#m63194d4093" x="378.854331" y="52.766423" style="stroke: #000000"/>
    </g>
   </g>
   <g id="line2d_12"/>
   <g id="patch_3">
    <path d="M 23.1075 61.56 
L 23.1075 7.2 
" style="fill: none; stroke: #000000; stroke-width: 0.8; stroke-linejoin: miter; stroke-linecap: square"/>
   </g>
   <g id="patch_4">
    <path d="M 23.1075 57.268421 
L 385.8075 57.268421 
" style="fill: none; stroke: #000000; stroke-width: 0.8; stroke-linejoin: miter; stroke-linecap: square"/>
   </g>
  </g>
 </g>
 <defs>
  <clipPath id="p2c19fe95bc">
   <rect x="23.1075" y="7.2" width="362.7" height="54.36"/>
  </clipPath>
 </defs>
</svg>
