<?xml version="1.0" encoding="utf-8" standalone="no"?>
<!DOCTYPE svg PUBLIC "-//W3C//DTD SVG 1.1//EN"
  "http://www.w3.org/Graphics/SVG/1.1/DTD/svg11.dtd">
<svg xmlns:xlink="http://www.w3.org/1999/xlink" width="393.0075pt" height="78.243109pt" viewBox="0 0 393.0075 78.243109" xmlns="http://www.w3.org/2000/svg" version="1.1">
 <metadata>
  <rdf:RDF xmlns:dc="http://purl.org/dc/elements/1.1/" xmlns:cc="http://creativecommons.org/ns#" xmlns:rdf="http://www.w3.org/1999/02/22-rdf-syntax-ns#">
   <cc:Work>
    <dc:type rdf:resource="http://purl.org/dc/dcmitype/StillImage"/>
    <dc:date>2024-05-24T10:52:39.324917</dc:date>
    <dc:format>image/svg+xml</dc:format>
    <dc:creator>
     <cc:Agent>
      <dc:title>Matplotlib v3.5.1, https://matplotlib.org/</dc:title>
     </cc:Agent>
    </dc:creator>
   </cc:Work>
  </rdf:RDF>
 </metadata>
 <defs>
  <style type="text/css">*{stroke-linejoin: round; stroke-linecap: butt}</style>
 </defs>
 <g id="figure_1">
  <g id="patch_1">
   <path d="M 0 78.243109 
L 393.0075 78.243109 
L 393.0075 0 
L 0 0 
z
" style="fill: #ffffff"/>
  </g>
  <g id="axes_1">
   <g id="patch_2">
    <path d="M 23.1075 61.56 
L 385.8075 61.56 
L 385.8075 7.2 
L 23.1075 7.2 
z
" style="fill: #ffffff"/>
   </g>
   <g id="matplotlib.axis_1">
    <g id="xtick_1">
     <g id="line2d_1">
      <defs>
       <path id="ma2fb624217" d="M 0 0 
L 0 3.5 
" style="stroke: #000000; stroke-width: 0.8"/>
      </defs>
      <g>
       <use xlink:href="#ma2fb624217" x="23.1075" y="57.268421" style="stroke: #000000; stroke-width: 0.8"/>
      </g>
     </g>
     <g id="text_1">
      <!-- 0 -->
      <g transform="translate(20.880625 69.587327)scale(0.07 -0.07)">
       <defs>
        <path id="DejaVuSans-30" d="M 2034 4250 
Q 1547 4250 1301 3770 
Q 1056 3291 1056 2328 
Q 1056 1369 1301 889 
Q 1547 409 2034 409 
Q 2525 409 2770 889 
Q 3016 1369 3016 2328 
Q 3016 3291 2770 3770 
Q 2525 4250 2034 4250 
z
M 2034 4750 
Q 2819 4750 3233 4129 
Q 3647 3509 3647 2328 
Q 3647 1150 3233 529 
Q 2819 -91 2034 -91 
Q 1250 -91 836 529 
Q 422 1150 422 2328 
Q 422 3509 836 4129 
Q 1250 4750 2034 4750 
z
" transform="scale(0.015625)"/>
       </defs>
       <use xlink:href="#DejaVuSans-30"/>
      </g>
     </g>
    </g>
    <g id="xtick_2">
     <g id="line2d_2">
      <g>
       <use xlink:href="#ma2fb624217" x="79.550077" y="57.268421" style="stroke: #000000; stroke-width: 0.8"/>
      </g>
     </g>
     <g id="text_2">
      <!-- 500 -->
      <g transform="translate(72.869452 69.587327)scale(0.07 -0.07)">
       <defs>
        <path id="DejaVuSans-35" d="M 691 4666 
L 3169 4666 
L 3169 4134 
L 1269 4134 
L 1269 2991 
Q 1406 3038 1543 3061 
Q 1681 3084 1819 3084 
Q 2600 3084 3056 2656 
Q 3513 2228 3513 1497 
Q 3513 744 3044 326 
Q 2575 -91 1722 -91 
Q 1428 -91 1123 -41 
Q 819 9 494 109 
L 494 744 
Q 775 591 1075 516 
Q 1375 441 1709 441 
Q 2250 441 2565 725 
Q 2881 1009 2881 1497 
Q 2881 1984 2565 2268 
Q 2250 2553 1709 2553 
Q 1456 2553 1204 2497 
Q 953 2441 691 2322 
L 691 4666 
z
" transform="scale(0.015625)"/>
       </defs>
       <use xlink:href="#DejaVuSans-35"/>
       <use xlink:href="#DejaVuSans-30" x="63.623047"/>
       <use xlink:href="#DejaVuSans-30" x="127.246094"/>
      </g>
     </g>
    </g>
    <g id="xtick_3">
     <g id="line2d_3">
      <g>
       <use xlink:href="#ma2fb624217" x="135.992654" y="57.268421" style="stroke: #000000; stroke-width: 0.8"/>
      </g>
     </g>
     <g id="text_3">
      <!-- 1000 -->
      <g transform="translate(127.085154 69.587327)scale(0.07 -0.07)">
       <defs>
        <path id="DejaVuSans-31" d="M 794 531 
L 1825 531 
L 1825 4091 
L 703 3866 
L 703 4441 
L 1819 4666 
L 2450 4666 
L 2450 531 
L 3481 531 
L 3481 0 
L 794 0 
L 794 531 
z
" transform="scale(0.015625)"/>
       </defs>
       <use xlink:href="#DejaVuSans-31"/>
       <use xlink:href="#DejaVuSans-30" x="63.623047"/>
       <use xlink:href="#DejaVuSans-30" x="127.246094"/>
       <use xlink:href="#DejaVuSans-30" x="190.869141"/>
      </g>
     </g>
    </g>
    <g id="xtick_4">
     <g id="line2d_4">
      <g>
       <use xlink:href="#ma2fb624217" x="192.435231" y="57.268421" style="stroke: #000000; stroke-width: 0.8"/>
      </g>
     </g>
     <g id="text_4">
      <!-- 1500 -->
      <g transform="translate(183.527731 69.587327)scale(0.07 -0.07)">
       <use xlink:href="#DejaVuSans-31"/>
       <use xlink:href="#DejaVuSans-35" x="63.623047"/>
       <use xlink:href="#DejaVuSans-30" x="127.246094"/>
       <use xlink:href="#DejaVuSans-30" x="190.869141"/>
      </g>
     </g>
    </g>
    <g id="xtick_5">
     <g id="line2d_5">
      <g>
       <use xlink:href="#ma2fb624217" x="248.877808" y="57.268421" style="stroke: #000000; stroke-width: 0.8"/>
      </g>
     </g>
     <g id="text_5">
      <!-- 2000 -->
      <g transform="translate(239.970308 69.587327)scale(0.07 -0.07)">
       <defs>
        <path id="DejaVuSans-32" d="M 1228 531 
L 3431 531 
L 3431 0 
L 469 0 
L 469 531 
Q 828 903 1448 1529 
Q 2069 2156 2228 2338 
Q 2531 2678 2651 2914 
Q 2772 3150 2772 3378 
Q 2772 3750 2511 3984 
Q 2250 4219 1831 4219 
Q 1534 4219 1204 4116 
Q 875 4013 500 3803 
L 500 4441 
Q 881 4594 1212 4672 
Q 1544 4750 1819 4750 
Q 2544 4750 2975 4387 
Q 3406 4025 3406 3419 
Q 3406 3131 3298 2873 
Q 3191 2616 2906 2266 
Q 2828 2175 2409 1742 
Q 1991 1309 1228 531 
z
" transform="scale(0.015625)"/>
       </defs>
       <use xlink:href="#DejaVuSans-32"/>
       <use xlink:href="#DejaVuSans-30" x="63.623047"/>
       <use xlink:href="#DejaVuSans-30" x="127.246094"/>
       <use xlink:href="#DejaVuSans-30" x="190.869141"/>
      </g>
     </g>
    </g>
    <g id="xtick_6">
     <g id="line2d_6">
      <g>
       <use xlink:href="#ma2fb624217" x="305.320385" y="57.268421" style="stroke: #000000; stroke-width: 0.8"/>
      </g>
     </g>
     <g id="text_6">
      <!-- 2500 -->
      <g transform="translate(296.412885 69.587327)scale(0.07 -0.07)">
       <use xlink:href="#DejaVuSans-32"/>
       <use xlink:href="#DejaVuSans-35" x="63.623047"/>
       <use xlink:href="#DejaVuSans-30" x="127.246094"/>
       <use xlink:href="#DejaVuSans-30" x="190.869141"/>
      </g>
     </g>
    </g>
    <g id="xtick_7">
     <g id="line2d_7">
      <g>
       <use xlink:href="#ma2fb624217" x="361.762962" y="57.268421" style="stroke: #000000; stroke-width: 0.8"/>
      </g>
     </g>
     <g id="text_7">
      <!-- 3000 -->
      <g transform="translate(352.855462 69.587327)scale(0.07 -0.07)">
       <defs>
        <path id="DejaVuSans-33" d="M 2597 2516 
Q 3050 2419 3304 2112 
Q 3559 1806 3559 1356 
Q 3559 666 3084 287 
Q 2609 -91 1734 -91 
Q 1441 -91 1130 -33 
Q 819 25 488 141 
L 488 750 
Q 750 597 1062 519 
Q 1375 441 1716 441 
Q 2309 441 2620 675 
Q 2931 909 2931 1356 
Q 2931 1769 2642 2001 
Q 2353 2234 1838 2234 
L 1294 2234 
L 1294 2753 
L 1863 2753 
Q 2328 2753 2575 2939 
Q 2822 3125 2822 3475 
Q 2822 3834 2567 4026 
Q 2313 4219 1838 4219 
Q 1578 4219 1281 4162 
Q 984 4106 628 3988 
L 628 4550 
Q 988 4650 1302 4700 
Q 1616 4750 1894 4750 
Q 2613 4750 3031 4423 
Q 3450 4097 3450 3541 
Q 3450 3153 3228 2886 
Q 3006 2619 2597 2516 
z
" transform="scale(0.015625)"/>
       </defs>
       <use xlink:href="#DejaVuSans-33"/>
       <use xlink:href="#DejaVuSans-30" x="63.623047"/>
       <use xlink:href="#DejaVuSans-30" x="127.246094"/>
       <use xlink:href="#DejaVuSans-30" x="190.869141"/>
      </g>
     </g>
    </g>
   </g>
   <g id="matplotlib.axis_2">
    <g id="ytick_1">
     <g id="line2d_8">
      <defs>
       <path id="m9e4b6d6620" d="M 0 0 
L -3.5 0 
" style="stroke: #000000; stroke-width: 0.8"/>
      </defs>
      <g>
       <use xlink:href="#m9e4b6d6620" x="23.1075" y="57.268421" style="stroke: #000000; stroke-width: 0.8"/>
      </g>
     </g>
     <g id="text_8">
      <!-- 0 -->
      <g transform="translate(11.65375 59.927874)scale(0.07 -0.07)">
       <use xlink:href="#DejaVuSans-30"/>
      </g>
     </g>
    </g>
    <g id="ytick_2">
     <g id="line2d_9">
      <g>
       <use xlink:href="#m9e4b6d6620" x="23.1075" y="28.657895" style="stroke: #000000; stroke-width: 0.8"/>
      </g>
     </g>
     <g id="text_9">
      <!-- 20 -->
      <g transform="translate(7.2 31.317348)scale(0.07 -0.07)">
       <use xlink:href="#DejaVuSans-32"/>
       <use xlink:href="#DejaVuSans-30" x="63.623047"/>
      </g>
     </g>
    </g>
   </g>
   <g id="line2d_10">
    <path d="M 60.924027 55.328184 
L 80.227388 54.89698 
L 128.655119 54.434323 
L 135.653999 53.35155 
L 151.23215 39.928282 
L 165.229909 53.761956 
L 175.276688 55.337142 
L 185.549237 55.612183 
L 198.531029 54.098111 
L 210.948396 51.807857 
L 220.769405 54.0443 
L 228.10694 55.839563 
L 240.185651 54.722551 
L 254.070525 51.77203 
L 266.600777 53.815996 
L 280.937192 56.230269 
L 287.823186 55.330206 
L 298.885931 52.270843 
L 305.771926 54.462051 
L 312.996576 54.024791 
L 321.575847 54.12958 
L 332.412822 55.169177 
L 339.976127 55.203674 
L 347.539433 55.314764 
L 358.489293 56.284587 
L 367.520105 53.176846 
L 378.244195 52.915362 
" clip-path="url(#paaa9d68090)" style="fill: none; stroke: #0000ff; stroke-width: 3; stroke-linecap: square"/>
   </g>
   <g id="LineCollection_1">
    <path d="M 60.924027 57.729531 
L 60.924027 52.926837 
" clip-path="url(#paaa9d68090)" style="fill: none; stroke: #000000; stroke-width: 1.5"/>
    <path d="M 80.227388 57.255367 
L 80.227388 52.538593 
" clip-path="url(#paaa9d68090)" style="fill: none; stroke: #000000; stroke-width: 1.5"/>
    <path d="M 128.655119 57.239684 
L 128.655119 51.628961 
" clip-path="url(#paaa9d68090)" style="fill: none; stroke: #000000; stroke-width: 1.5"/>
    <path d="M 135.653999 56.274021 
L 135.653999 50.429079 
" clip-path="url(#paaa9d68090)" style="fill: none; stroke: #000000; stroke-width: 1.5"/>
    <path d="M 151.23215 49.451264 
L 151.23215 30.4053 
" clip-path="url(#paaa9d68090)" style="fill: none; stroke: #000000; stroke-width: 1.5"/>
    <path d="M 165.229909 56.533886 
L 165.229909 50.990026 
" clip-path="url(#paaa9d68090)" style="fill: none; stroke: #000000; stroke-width: 1.5"/>
    <path d="M 175.276688 57.462546 
L 175.276688 53.211739 
" clip-path="url(#paaa9d68090)" style="fill: none; stroke: #000000; stroke-width: 1.5"/>
    <path d="M 185.549237 57.594387 
L 185.549237 53.62998 
" clip-path="url(#paaa9d68090)" style="fill: none; stroke: #000000; stroke-width: 1.5"/>
    <path d="M 198.531029 56.72007 
L 198.531029 51.476151 
" clip-path="url(#paaa9d68090)" style="fill: none; stroke: #000000; stroke-width: 1.5"/>
    <path d="M 210.948396 57.50436 
L 210.948396 46.111355 
" clip-path="url(#paaa9d68090)" style="fill: none; stroke: #000000; stroke-width: 1.5"/>
    <path d="M 220.769405 56.820418 
L 220.769405 51.268181 
" clip-path="url(#paaa9d68090)" style="fill: none; stroke: #000000; stroke-width: 1.5"/>
    <path d="M 228.10694 57.886225 
L 228.10694 53.792901 
" clip-path="url(#paaa9d68090)" style="fill: none; stroke: #000000; stroke-width: 1.5"/>
    <path d="M 240.185651 57.214071 
L 240.185651 52.23103 
" clip-path="url(#paaa9d68090)" style="fill: none; stroke: #000000; stroke-width: 1.5"/>
    <path d="M 254.070525 54.952895 
L 254.070525 48.591165 
" clip-path="url(#paaa9d68090)" style="fill: none; stroke: #000000; stroke-width: 1.5"/>
    <path d="M 266.600777 56.460801 
L 266.600777 51.171191 
" clip-path="url(#paaa9d68090)" style="fill: none; stroke: #000000; stroke-width: 1.5"/>
    <path d="M 280.937192 57.706241 
L 280.937192 54.754296 
" clip-path="url(#paaa9d68090)" style="fill: none; stroke: #000000; stroke-width: 1.5"/>
    <path d="M 287.823186 57.482578 
L 287.823186 53.177834 
" clip-path="url(#paaa9d68090)" style="fill: none; stroke: #000000; stroke-width: 1.5"/>
    <path d="M 298.885931 55.795136 
L 298.885931 48.746551 
" clip-path="url(#paaa9d68090)" style="fill: none; stroke: #000000; stroke-width: 1.5"/>
    <path d="M 305.771926 56.817325 
L 305.771926 52.106777 
" clip-path="url(#paaa9d68090)" style="fill: none; stroke: #000000; stroke-width: 1.5"/>
    <path d="M 312.996576 56.422168 
L 312.996576 51.627414 
" clip-path="url(#paaa9d68090)" style="fill: none; stroke: #000000; stroke-width: 1.5"/>
    <path d="M 321.575847 56.946562 
L 321.575847 51.312597 
" clip-path="url(#paaa9d68090)" style="fill: none; stroke: #000000; stroke-width: 1.5"/>
    <path d="M 332.412822 57.359706 
L 332.412822 52.978648 
" clip-path="url(#paaa9d68090)" style="fill: none; stroke: #000000; stroke-width: 1.5"/>
    <path d="M 339.976127 57.549981 
L 339.976127 52.857368 
" clip-path="url(#paaa9d68090)" style="fill: none; stroke: #000000; stroke-width: 1.5"/>
    <path d="M 347.539433 57.573465 
L 347.539433 53.056063 
" clip-path="url(#paaa9d68090)" style="fill: none; stroke: #000000; stroke-width: 1.5"/>
    <path d="M 358.489293 57.896967 
L 358.489293 54.672207 
" clip-path="url(#paaa9d68090)" style="fill: none; stroke: #000000; stroke-width: 1.5"/>
    <path d="M 367.520105 56.215934 
L 367.520105 50.137758 
" clip-path="url(#paaa9d68090)" style="fill: none; stroke: #000000; stroke-width: 1.5"/>
    <path d="M 378.244195 56.214563 
L 378.244195 49.616161 
" clip-path="url(#paaa9d68090)" style="fill: none; stroke: #000000; stroke-width: 1.5"/>
   </g>
   <g id="line2d_11">
    <defs>
     <path id="m5016dd026d" d="M 3 0 
L -3 -0 
" style="stroke: #000000"/>
    </defs>
    <g clip-path="url(#paaa9d68090)">
     <use xlink:href="#m5016dd026d" x="60.924027" y="57.729531" style="stroke: #000000"/>
     <use xlink:href="#m5016dd026d" x="80.227388" y="57.255367" style="stroke: #000000"/>
     <use xlink:href="#m5016dd026d" x="128.655119" y="57.239684" style="stroke: #000000"/>
     <use xlink:href="#m5016dd026d" x="135.653999" y="56.274021" style="stroke: #000000"/>
     <use xlink:href="#m5016dd026d" x="151.23215" y="49.451264" style="stroke: #000000"/>
     <use xlink:href="#m5016dd026d" x="165.229909" y="56.533886" style="stroke: #000000"/>
     <use xlink:href="#m5016dd026d" x="175.276688" y="57.462546" style="stroke: #000000"/>
     <use xlink:href="#m5016dd026d" x="185.549237" y="57.594387" style="stroke: #000000"/>
     <use xlink:href="#m5016dd026d" x="198.531029" y="56.72007" style="stroke: #000000"/>
     <use xlink:href="#m5016dd026d" x="210.948396" y="57.50436" style="stroke: #000000"/>
     <use xlink:href="#m5016dd026d" x="220.769405" y="56.820418" style="stroke: #000000"/>
     <use xlink:href="#m5016dd026d" x="228.10694" y="57.886225" style="stroke: #000000"/>
     <use xlink:href="#m5016dd026d" x="240.185651" y="57.214071" style="stroke: #000000"/>
     <use xlink:href="#m5016dd026d" x="254.070525" y="54.952895" style="stroke: #000000"/>
     <use xlink:href="#m5016dd026d" x="266.600777" y="56.460801" style="stroke: #000000"/>
     <use xlink:href="#m5016dd026d" x="280.937192" y="57.706241" style="stroke: #000000"/>
     <use xlink:href="#m5016dd026d" x="287.823186" y="57.482578" style="stroke: #000000"/>
     <use xlink:href="#m5016dd026d" x="298.885931" y="55.795136" style="stroke: #000000"/>
     <use xlink:href="#m5016dd026d" x="305.771926" y="56.817325" style="stroke: #000000"/>
     <use xlink:href="#m5016dd026d" x="312.996576" y="56.422168" style="stroke: #000000"/>
     <use xlink:href="#m5016dd026d" x="321.575847" y="56.946562" style="stroke: #000000"/>
     <use xlink:href="#m5016dd026d" x="332.412822" y="57.359706" style="stroke: #000000"/>
     <use xlink:href="#m5016dd026d" x="339.976127" y="57.549981" style="stroke: #000000"/>
     <use xlink:href="#m5016dd026d" x="347.539433" y="57.573465" style="stroke: #000000"/>
     <use xlink:href="#m5016dd026d" x="358.489293" y="57.896967" style="stroke: #000000"/>
     <use xlink:href="#m5016dd026d" x="367.520105" y="56.215934" style="stroke: #000000"/>
     <use xlink:href="#m5016dd026d" x="378.244195" y="56.214563" style="stroke: #000000"/>
    </g>
   </g>
   <g id="line2d_12">
    <g clip-path="url(#paaa9d68090)">
     <use xlink:href="#m5016dd026d" x="60.924027" y="52.926837" style="stroke: #000000"/>
     <use xlink:href="#m5016dd026d" x="80.227388" y="52.538593" style="stroke: #000000"/>
     <use xlink:href="#m5016dd026d" x="128.655119" y="51.628961" style="stroke: #000000"/>
     <use xlink:href="#m5016dd026d" x="135.653999" y="50.429079" style="stroke: #000000"/>
     <use xlink:href="#m5016dd026d" x="151.23215" y="30.4053" style="stroke: #000000"/>
     <use xlink:href="#m5016dd026d" x="165.229909" y="50.990026" style="stroke: #000000"/>
     <use xlink:href="#m5016dd026d" x="175.276688" y="53.211739" style="stroke: #000000"/>
     <use xlink:href="#m5016dd026d" x="185.549237" y="53.62998" style="stroke: #000000"/>
     <use xlink:href="#m5016dd026d" x="198.531029" y="51.476151" style="stroke: #000000"/>
     <use xlink:href="#m5016dd026d" x="210.948396" y="46.111355" style="stroke: #000000"/>
     <use xlink:href="#m5016dd026d" x="220.769405" y="51.268181" style="stroke: #000000"/>
     <use xlink:href="#m5016dd026d" x="228.10694" y="53.792901" style="stroke: #000000"/>
     <use xlink:href="#m5016dd026d" x="240.185651" y="52.23103" style="stroke: #000000"/>
     <use xlink:href="#m5016dd026d" x="254.070525" y="48.591165" style="stroke: #000000"/>
     <use xlink:href="#m5016dd026d" x="266.600777" y="51.171191" style="stroke: #000000"/>
     <use xlink:href="#m5016dd026d" x="280.937192" y="54.754296" style="stroke: #000000"/>
     <use xlink:href="#m5016dd026d" x="287.823186" y="53.177834" style="stroke: #000000"/>
     <use xlink:href="#m5016dd026d" x="298.885931" y="48.746551" style="stroke: #000000"/>
     <use xlink:href="#m5016dd026d" x="305.771926" y="52.106777" style="stroke: #000000"/>
     <use xlink:href="#m5016dd026d" x="312.996576" y="51.627414" style="stroke: #000000"/>
     <use xlink:href="#m5016dd026d" x="321.575847" y="51.312597" style="stroke: #000000"/>
     <use xlink:href="#m5016dd026d" x="332.412822" y="52.978648" style="stroke: #000000"/>
     <use xlink:href="#m5016dd026d" x="339.976127" y="52.857368" style="stroke: #000000"/>
     <use xlink:href="#m5016dd026d" x="347.539433" y="53.056063" style="stroke: #000000"/>
     <use xlink:href="#m5016dd026d" x="358.489293" y="54.672207" style="stroke: #000000"/>
     <use xlink:href="#m5016dd026d" x="367.520105" y="50.137758" style="stroke: #000000"/>
     <use xlink:href="#m5016dd026d" x="378.244195" y="49.616161" style="stroke: #000000"/>
    </g>
   </g>
   <g id="line2d_13"/>
   <g id="patch_3">
    <path d="M 23.1075 61.56 
L 23.1075 7.2 
" style="fill: none; stroke: #000000; stroke-width: 0.8; stroke-linejoin: miter; stroke-linecap: square"/>
   </g>
   <g id="patch_4">
    <path d="M 23.1075 57.268421 
L 385.8075 57.268421 
" style="fill: none; stroke: #000000; stroke-width: 0.8; stroke-linejoin: miter; stroke-linecap: square"/>
   </g>
  </g>
 </g>
 <defs>
  <clipPath id="paaa9d68090">
   <rect x="23.1075" y="7.2" width="362.7" height="54.36"/>
  </clipPath>
 </defs>
</svg>
